<?xml version="1.0" encoding="UTF-8"?>
<svg width="30px" height="30px" viewBox="0 0 30 30" version="1.1" xmlns="http://www.w3.org/2000/svg" xmlns:xlink="http://www.w3.org/1999/xlink">
    <!-- Generator: Sketch 58 (84663) - https://sketch.com -->
    <title>app_fund history</title>
    <desc>Created with Sketch.</desc>
    <defs>
        <path d="M24.9829061,8.34051344 C28.1604204,13.1023207 27.5319217,19.4455553 23.4817467,23.4912305 C21.2293815,25.7410934 18.1753023,27.0037339 14.9917467,27.0012342 C9.267117,26.996729 4.34278512,22.9491876 3.23005667,17.3337409 C2.11732822,11.7182943 5.12608387,6.09877249 10.4164227,3.91160061 C15.7067615,1.72442873 21.8053918,3.57870618 24.9829061,8.34051344 Z M14.9917467,4.24123053 C9.04916282,4.24123053 4.23174673,9.05864662 4.23174673,15.0012305 C4.23174673,20.9438144 9.04916282,25.7612305 14.9917467,25.7612305 C20.9343306,25.7612305 25.7517467,20.9438144 25.7517467,15.0012305 C25.7517467,12.1475011 24.6181071,9.41065299 22.6002157,7.39276156 C20.5823243,5.37487013 17.8454762,4.24123053 14.9917467,4.24123053 Z M14.3919554,16.2444943 C14.3585315,16.1442228 14.3524698,16.0400267 14.3707358,15.9410606 L14.3717467,8.38123053 C14.3717467,8.03881398 14.6493302,7.76123053 14.9917467,7.76123053 C15.3341633,7.76123053 15.6117467,8.03881398 15.6117467,8.38123053 L15.611,14.812 L18.9917467,12.2912305 C19.1213163,12.192046 19.2852226,12.1489078 19.4468313,12.1714579 C19.6084399,12.1940079 19.754277,12.280366 19.8517467,12.4112305 C19.951466,12.5424163 19.9948597,12.7079024 19.9723441,12.8711405 C19.9498285,13.0343786 19.863256,13.1819384 19.7317467,13.2812305 L15.3717467,16.5412305 C15.2889871,16.6012771 15.1932936,16.6399741 15.0931118,16.6546545 L14.9917467,16.6612319 L14.9917467,16.6612319 C14.7215581,16.6705796 14.4774477,16.5009712 14.3919554,16.2444943 Z" id="path-1"></path>
    </defs>
    <g id="app_fund-history" stroke="none" stroke-width="1" fill="none" fill-rule="evenodd">
        <mask id="mask-2" fill="white">
            <use xlink:href="#path-1"></use>
        </mask>
        <use id="Mask" fill="#000000" fill-rule="nonzero" xlink:href="#path-1"></use>
        <g id="palette/additional/lightblue" mask="url(#mask-2)" fill="#E21B23" fill-rule="nonzero">
            <g transform="translate(-59.000000, -38.000000)" id="color">
                <rect x="0" y="0" width="147" height="106"></rect>
            </g>
        </g>
    </g>
</svg>