<?xml version="1.0" encoding="UTF-8"?>
<svg width="30px" height="30px" viewBox="0 0 30 30" version="1.1" xmlns="http://www.w3.org/2000/svg" xmlns:xlink="http://www.w3.org/1999/xlink">
    <!-- Generator: Sketch 58 (84663) - https://sketch.com -->
    <title>account info</title>
    <desc>Created with Sketch.</desc>
    <defs>
        <path d="M20.0694497,13.6610771 C23.7373729,13.6827974 26.6995737,16.6620133 26.7001674,20.33 C26.66169,24.0446061 23.6248691,27.0277572 19.9101674,27 C16.2427743,26.9340092 13.3168457,23.9191622 13.360643,20.2514369 C13.4044403,16.5837116 16.4015266,13.639593 20.0694497,13.6610771 Z M10.8601674,16.1199907 C11.9939824,16.1182331 13.114124,16.3675329 14.1401674,16.85 C13.8644615,17.2847705 13.6428244,17.7515517 13.4801674,18.24 C12.6615087,17.8511396 11.7664865,17.6495888 10.8601674,17.65 C7.39371623,17.7089635 4.61328581,20.5009217 4.54095525,23.9398056 L4.5401674,26.08 C4.53469488,26.5013489 4.19155183,26.8400659 3.7701674,26.8400659 C3.56687583,26.8426751 3.37098789,26.7637864 3.22629007,26.6209678 C3.11053182,26.5067129 3.035257,26.3591643 3.00978641,26.2006208 L3.0001674,26.08 L3.0001674,24.17 C2.97209948,19.7863808 6.47712805,16.1966251 10.8601674,16.1199907 Z M19.9101674,15.21 C17.0922115,15.2759391 14.8553082,17.6031106 14.9008441,20.42147 C14.9463799,23.2398295 17.2572955,25.4935224 20.0759108,25.4683922 C22.8945261,25.4432621 25.1648906,23.1487233 25.1601748,20.33 C25.1217501,17.4674847 22.7727462,15.1766466 19.9101674,15.21 Z M19.9101674,21.71 C20.1460885,21.744321 20.321066,21.9465955 20.321066,22.1850001 C20.321066,22.4234045 20.1460885,22.625679 19.9101674,22.66 C19.7872725,22.6601214 19.6696747,22.6099754 19.5846841,22.5212074 C19.4996935,22.4324394 19.4547053,22.3127735 19.4601674,22.19 C19.4547568,22.0662907 19.4994502,21.9456245 19.584141,21.8552877 C19.6688317,21.7649509 19.7863666,21.7125736 19.9101674,21.71 Z M20.2801674,17.43 L20.1701674,21.09 L19.6601674,21.09 L19.5501674,17.43 L20.2801674,17.43 Z M10.8601674,3 C13.9562184,3.03844121 16.4379531,5.57383509 16.4101674,8.67 C16.4435042,11.7700517 13.9601601,14.3115643 10.8601674,14.35 C7.76409871,14.3061032 5.28679879,11.7662001 5.3201674,8.67 C5.28683023,5.5754709 7.76569742,3.03843534 10.8601674,3 Z M10.8601674,4.54 C8.61619282,4.57835105 6.82675417,6.42594646 6.8601674,8.67 C6.82671116,10.9157441 8.61460099,12.7662101 10.8601674,12.81 C13.1057338,12.7662101 14.8936236,10.9157441 14.8601674,8.67 C14.8935806,6.42594646 13.104142,4.57835105 10.8601674,4.54 Z" id="path-1"></path>
    </defs>
    <g id="account-info" stroke="none" stroke-width="1" fill="none" fill-rule="evenodd">
        <mask id="mask-2" fill="white">
            <use xlink:href="#path-1"></use>
        </mask>
        <use id="Combined-Shape" fill="#000000" fill-rule="nonzero" xlink:href="#path-1"></use>
        <g id="palette/additional/lightblue" mask="url(#mask-2)" fill="#E21B23" fill-rule="nonzero">
            <g transform="translate(-59.000000, -38.000000)" id="color">
                <rect x="0" y="0" width="147" height="106"></rect>
            </g>
        </g>
    </g>
</svg>