<?xml version="1.0" encoding="UTF-8"?>
<svg width="30px" height="30px" viewBox="0 0 30 30" version="1.1" xmlns="http://www.w3.org/2000/svg" xmlns:xlink="http://www.w3.org/1999/xlink">
    <!-- Generator: Sketch 58 (84663) - https://sketch.com -->
    <title>app_pause</title>
    <desc>Created with Sketch.</desc>
    <defs>
        <path d="M24.9829061,8.34051344 C28.1604204,13.1023207 27.5319217,19.4455553 23.4817467,23.4912305 C21.2293815,25.7410934 18.1753023,27.0037339 14.9917467,27.0012342 C9.267117,26.996729 4.34278512,22.9491876 3.23005667,17.3337409 C2.11732822,11.7182943 5.12608387,6.09877249 10.4164227,3.91160061 C15.7067615,1.72442873 21.8053918,3.57870618 24.9829061,8.34051344 Z M14.9917467,4.23123053 C9.04363997,4.23123053 4.22174673,9.05312377 4.22174673,15.0012305 C4.22174673,20.9493373 9.04363997,25.7712305 14.9917467,25.7712305 C20.9352884,25.7602239 25.7507401,20.9447722 25.7617467,15.0012305 C25.7507401,9.05768882 20.9352884,4.24223711 14.9917467,4.23123053 Z M16.8817467,10.2312305 L17.8817467,10.2312305 C18.269503,10.2361707 18.5888582,10.5236245 18.6435424,10.8973222 L18.6517467,11.0012305 L18.6517467,19.3512305 C18.6468066,19.7389868 18.3593527,20.058342 17.9856551,20.1130262 L17.8817467,20.1212305 L16.8817467,20.1212305 C16.4939905,20.1162904 16.1746353,19.8288365 16.1199511,19.4551389 L16.1117467,19.3512305 L16.1117467,11.0112305 C16.1117146,10.6198992 16.4000644,10.295191 16.7769229,10.2395748 L16.8817467,10.2312305 L17.8817467,10.2312305 Z M12.1217467,10.2312305 L13.1217467,10.2312305 C13.4971789,10.2507595 13.7981868,10.5368881 13.8453217,10.9003341 L13.8517474,11.0012305 L13.8517474,19.3412305 C13.8517794,19.7274996 13.5671912,20.0480242 13.1952136,20.1029777 L13.0917467,20.1112305 L12.0917467,20.1112305 C11.7019257,20.1112305 11.3797627,19.8215525 11.3287759,19.445715 L11.3217467,19.3412305 L11.3217467,11.0012305 C11.3243528,10.7925892 11.4104453,10.5936903 11.5607804,10.4489928 C11.6810485,10.3332347 11.8344094,10.2598872 11.9977404,10.2379261 L12.1217467,10.2312305 L13.1217467,10.2312305 Z" id="path-1"></path>
    </defs>
    <g id="app_pause" stroke="none" stroke-width="1" fill="none" fill-rule="evenodd">
        <mask id="mask-2" fill="white">
            <use xlink:href="#path-1"></use>
        </mask>
        <use id="Mask" fill="#000000" xlink:href="#path-1"></use>
        <g id="palette/additional/lightblue" mask="url(#mask-2)" fill="#E21B23" fill-rule="nonzero">
            <g transform="translate(-59.000000, -38.000000)" id="color">
                <rect x="0" y="0" width="147" height="106"></rect>
            </g>
        </g>
    </g>
</svg>