<?xml version="1.0" encoding="UTF-8"?>
<svg width="30px" height="30px" viewBox="0 0 30 30" version="1.1" xmlns="http://www.w3.org/2000/svg" xmlns:xlink="http://www.w3.org/1999/xlink">
    <!-- Generator: Sketch 58 (84663) - https://sketch.com -->
    <title>app_bluetooth</title>
    <desc>Created with Sketch.</desc>
    <defs>
        <path d="M13.85,3.07373736 C14.312797,3.23575833 14.6219587,3.67340282 14.6200093,4.16373736 L14.6200093,25.0037374 C14.6219587,25.4940719 14.312797,25.9317164 13.85,26.0937374 C13.7220459,26.1412491 13.5864848,26.1649722 13.45,26.1637897 C13.1047477,26.1670579 12.7769225,26.0123538 12.56,25.7437374 L8.09000001,20.3937374 L4.09000001,20.3937374 C3.4847885,20.3828309 3,19.8890471 3,19.2837374 L3,9.88373736 C3,9.27070129 3.49696394,8.77373736 4.11000001,8.77373736 L8.11000001,8.77373736 L12.56,3.42373736 C12.8693279,3.04078143 13.3895337,2.89964031 13.85,3.07373736 Z M13.29,4.58373736 L8.91000001,9.86373736 C8.78442638,10.015956 8.59733012,10.1040013 8.40000001,10.1037374 L4.33000001,10.1037374 L4.33000001,19.0637374 L8.40000001,19.0637374 C8.59733012,19.0634735 8.78442638,19.1515188 8.91000001,19.3037374 L13.29,24.5837374 L13.29,4.58373736 Z M22.51,8.31373736 L26.45,10.5937374 C26.7921806,10.7923537 27.0027747,11.158091 27.0027747,11.5537374 C27.0027747,11.9493837 26.7921806,12.315121 26.45,12.5137374 L22.84,14.5937374 L26.45,16.6737374 C26.7921806,16.8723537 27.0027747,17.238091 27.0027747,17.6337374 C27.0027747,18.0293837 26.7921806,18.395121 26.45,18.5937374 L22.51,20.8637374 C22.357651,20.9669645 22.1827535,21.0321224 22,21.0537377 C21.806541,21.0539002 21.6165897,21.0020953 21.45,20.9037374 C21.090706,20.7016643 20.8745482,20.3156681 20.89,19.9037374 L20.89,15.7837374 L16.62,18.2537374 L15.96,17.0937374 L20.23,14.6337374 L15.91,12.1637374 L16.57,11.0137374 L20.84,13.4837374 L20.84,9.31373736 C20.8311959,8.91132051 21.0390087,8.53512762 21.3843432,8.32834049 C21.7296777,8.12155337 22.1594173,8.11597836 22.51,8.31373736 Z M22.23,15.7837374 L22.23,19.5837374 L25.5,17.6937374 L22.23,15.7837374 Z M22.23,9.70373736 L22.23,13.4837374 L25.45,11.5837374 L22.23,9.70373736 Z" id="path-1"></path>
    </defs>
    <g id="app_bluetooth" stroke="none" stroke-width="1" fill="none" fill-rule="evenodd">
        <mask id="mask-2" fill="white">
            <use xlink:href="#path-1"></use>
        </mask>
        <use id="Mask" fill="#000000" fill-rule="nonzero" xlink:href="#path-1"></use>
        <g id="palette/additional/lightblue" mask="url(#mask-2)" fill="#E21B23" fill-rule="nonzero">
            <g transform="translate(-59.000000, -38.000000)" id="color">
                <rect x="0" y="0" width="147" height="106"></rect>
            </g>
        </g>
    </g>
</svg>