<?xml version="1.0" encoding="UTF-8"?>
<svg width="30px" height="30px" viewBox="0 0 30 30" version="1.1" xmlns="http://www.w3.org/2000/svg" xmlns:xlink="http://www.w3.org/1999/xlink">
    <!-- Generator: Sketch 58 (84663) - https://sketch.com -->
    <title>app_play</title>
    <desc>Created with Sketch.</desc>
    <defs>
        <path d="M24.9829061,8.34051344 C28.1604204,13.1023207 27.5319217,19.4455553 23.4817467,23.4912305 C21.2293815,25.7410934 18.1753023,27.0037339 14.9917467,27.0012342 C9.267117,26.996729 4.34278512,22.9491876 3.23005667,17.3337409 C2.11732822,11.7182943 5.12608387,6.09877249 10.4164227,3.91160061 C15.7067615,1.72442873 21.8053918,3.57870618 24.9829061,8.34051344 Z M14.9917467,4.23123053 C9.04363997,4.23123053 4.22174673,9.05312377 4.22174673,15.0012305 C4.22174673,20.9493373 9.04363997,25.7712305 14.9917467,25.7712305 C20.9352884,25.7602239 25.7507401,20.9447722 25.7617467,15.0012305 C25.7507401,9.05768882 20.9352884,4.24223711 14.9917467,4.23123053 Z M13.0969812,11.1863709 C13.2277181,11.1158145 13.3863942,11.1214993 13.5117467,11.2012305 L13.5117467,11.2012305 L18.8517467,14.6112305 C18.9692023,14.6866502 19.0402179,14.8166456 19.0402179,14.9562305 C19.0402179,15.0958154 18.9692023,15.2258109 18.8517467,15.3012305 L18.8517467,15.3012305 L13.5117467,18.7112305 C13.3848837,18.7919105 13.2240381,18.7966845 13.0926133,18.7236708 C12.9611885,18.650657 12.8802668,18.5115678 12.8817268,18.3612305 L12.8817268,18.3612305 L12.8817268,11.5412305 C12.8839025,11.3926853 12.9662443,11.2569273 13.0969812,11.1863709 Z" id="path-1"></path>
    </defs>
    <g id="app_play" stroke="none" stroke-width="1" fill="none" fill-rule="evenodd">
        <mask id="mask-2" fill="white">
            <use xlink:href="#path-1"></use>
        </mask>
        <use id="Mask" fill="#000000" fill-rule="nonzero" xlink:href="#path-1"></use>
        <g id="palette/additional/lightblue" mask="url(#mask-2)" fill="#E21B23" fill-rule="nonzero">
            <g transform="translate(-59.000000, -38.000000)" id="color">
                <rect x="0" y="0" width="147" height="106"></rect>
            </g>
        </g>
    </g>
</svg>