<?xml version="1.0" encoding="UTF-8"?>
<svg width="30px" height="30px" viewBox="0 0 30 30" version="1.1" xmlns="http://www.w3.org/2000/svg" xmlns:xlink="http://www.w3.org/1999/xlink">
    <!-- Generator: Sketch 58 (84663) - https://sketch.com -->
    <title>app_close</title>
    <desc>Created with Sketch.</desc>
    <defs>
        <path d="M24.9829061,8.34051344 C28.1604204,13.1023207 27.5319217,19.4455553 23.4817467,23.4912305 C21.2293815,25.7410934 18.1753023,27.0037339 14.9917467,27.0012342 C9.267117,26.996729 4.34278512,22.9491876 3.23005667,17.3337409 C2.11732822,11.7182943 5.12608387,6.09877249 10.4164227,3.91160061 C15.7067615,1.72442873 21.8053918,3.57870618 24.9829061,8.34051344 Z M14.9917467,4.22123053 C9.03811712,4.22123053 4.21174673,9.04760092 4.21174673,15.0012305 C4.21174673,20.9548601 9.03811712,25.7812305 14.9917467,25.7812305 C20.9453763,25.7812305 25.7717467,20.9548601 25.7717467,15.0012305 C25.7717467,12.1421968 24.636,9.40026159 22.6143578,7.37861943 C20.5927157,5.35697727 17.8507805,4.22123053 14.9917467,4.22123053 Z M11.2217467,9.32123053 L14.9917467,14.0312305 L18.7617467,9.32123053 L20.3117467,9.32123053 L15.7717467,15.0012305 L20.3117467,20.6812305 L18.7617467,20.6812305 L14.9917467,15.9712305 L11.2217467,20.6812305 L9.66174673,20.6812305 L14.2117467,15.0012305 L9.66174673,9.32123053 L11.2217467,9.32123053 Z" id="path-1"></path>
    </defs>
    <g id="app_close" stroke="none" stroke-width="1" fill="none" fill-rule="evenodd">
        <mask id="mask-2" fill="white">
            <use xlink:href="#path-1"></use>
        </mask>
        <use id="Mask" fill="#000000" fill-rule="nonzero" xlink:href="#path-1"></use>
        <g id="palette/additional/lightblue" mask="url(#mask-2)" fill="#E21B23" fill-rule="nonzero">
            <g transform="translate(-59.000000, -38.000000)" id="color">
                <rect x="0" y="0" width="147" height="106"></rect>
            </g>
        </g>
    </g>
</svg>