<?xml version="1.0" encoding="UTF-8"?>
<svg width="30px" height="30px" viewBox="0 0 30 30" version="1.1" xmlns="http://www.w3.org/2000/svg" xmlns:xlink="http://www.w3.org/1999/xlink">
    <!-- Generator: Sketch 58 (84663) - https://sketch.com -->
    <title>app_camera</title>
    <desc>Created with Sketch.</desc>
    <defs>
        <path d="M23.5097897,6.52081528 C28.20421,11.2152357 28.20421,18.8263949 23.5097897,23.5208153 C21.2526172,25.7721374 18.187684,27.0254825 14.9997897,27.0008153 C10.1477035,27.0005891 5.77321987,24.0784156 3.91511681,19.596207 C2.05701375,15.1139984 3.08098207,9.95389247 6.50978965,6.52081528 C11.20421,1.82639491 18.8153693,1.82639491 23.5097897,6.52081528 Z M14.9997897,4.24081528 C9.05720575,4.24081528 4.23978965,9.05823137 4.23978965,15.0008153 C4.23978965,20.9433992 9.05720575,25.7608153 14.9997897,25.7608153 C20.9423736,25.7608153 25.7597897,20.9433992 25.7597897,15.0008153 C25.7542766,9.06051645 20.9400885,4.24632832 14.9997897,4.24081528 Z M16.5597897,9.38081528 C17.1097897,9.38081528 17.4897897,9.88081528 17.9297897,10.4708153 C18.0816543,10.6767309 18.2452588,10.8737241 18.4197897,11.0608153 L19.9397897,11.0608153 C20.3508853,11.0554766 20.7472607,11.2136814 21.0417003,11.5006194 C21.33614,11.7875573 21.5045194,12.1797188 21.5097897,12.5908153 L21.5097897,19.0908153 C21.5045194,19.5019118 21.33614,19.8940732 21.0417003,20.1810112 C20.7472607,20.4679492 20.3508853,20.626154 19.9397897,20.6208153 L10.0597897,20.6208153 C9.64869405,20.626154 9.2523186,20.4679492 8.95787897,20.1810112 C8.66343934,19.8940732 8.4950599,19.5019118 8.48978965,19.0908153 L8.48978965,12.5908153 C8.4950599,12.1797188 8.66343934,11.7875573 8.95787897,11.5006194 C9.2523186,11.2136814 9.64869405,11.0554766 10.0597897,11.0608153 L11.5797897,11.0608153 C11.7543205,10.8737241 11.917925,10.6767309 12.0697897,10.4708153 C12.5097897,9.88081528 12.8897897,9.38081528 13.4397897,9.38081528 L16.5597897,9.38081528 Z M16.4497897,10.6108153 L13.5497897,10.6108153 C13.3724565,10.7989616 13.2087111,10.9994661 13.0597897,11.2108153 C12.6197897,11.7908153 12.2397897,12.3008153 11.6897897,12.3008153 L10.0597897,12.3008153 C9.8865495,12.2892349 9.73568054,12.4179172 9.71978965,12.5908153 L9.71978965,19.0908153 C9.72493129,19.1757457 9.76368532,19.2551315 9.82748593,19.3114262 C9.89128654,19.3677208 9.97488001,19.3962886 10.0597897,19.3908153 L19.9397897,19.3908153 C20.0246993,19.3962886 20.1082928,19.3677208 20.1720934,19.3114262 C20.235894,19.2551315 20.274648,19.1757457 20.2797897,19.0908153 L20.2797897,12.5908153 C20.2638988,12.4179172 20.1130298,12.2892349 19.9397897,12.3008153 L18.3097897,12.3008153 C17.7597897,12.3008153 17.3797897,11.7908153 16.9397897,11.2108153 C16.7908682,10.9994661 16.6271228,10.7989616 16.4497897,10.6108153 Z M14.9997897,11.6908153 C16.8278521,11.6908153 18.3097897,13.1727528 18.3097897,15.0008153 C18.2715113,16.7950608 16.7943041,18.2231765 14.9997897,18.2008153 C13.2052752,18.2231765 11.728068,16.7950608 11.6897897,15.0008153 C11.6897897,13.1727528 13.1717272,11.6908153 14.9997897,11.6908153 Z M14.9997897,13.0008153 C14.4573351,12.9818176 13.9304562,13.1841144 13.5401043,13.561266 C13.1497525,13.9384175 12.9294571,14.4580283 12.9297893,15.0008153 C12.9297893,16.1440447 13.8565602,17.0708153 14.9997897,17.0708153 C16.1430191,17.0708153 17.06979,16.1440447 17.06979,15.0008153 C17.0701222,14.4580283 16.8498268,13.9384175 16.459475,13.561266 C16.0691231,13.1841144 15.5422442,12.9818176 14.9997897,13.0008153 Z" id="path-1"></path>
    </defs>
    <g id="app_camera" stroke="none" stroke-width="1" fill="none" fill-rule="evenodd">
        <mask id="mask-2" fill="white">
            <use xlink:href="#path-1"></use>
        </mask>
        <use id="Mask" fill="#2A2825" fill-rule="nonzero" xlink:href="#path-1"></use>
        <g id="palette/additional/lightblue" mask="url(#mask-2)" fill="#E21B23" fill-rule="nonzero">
            <g transform="translate(-59.000000, -38.000000)" id="color">
                <rect x="0" y="0" width="147" height="106"></rect>
            </g>
        </g>
    </g>
</svg>