<?xml version="1.0" encoding="UTF-8"?>
<svg width="30px" height="30px" viewBox="0 0 30 30" version="1.1" xmlns="http://www.w3.org/2000/svg" xmlns:xlink="http://www.w3.org/1999/xlink">
    <!-- Generator: Sketch 58 (84663) - https://sketch.com -->
    <title>app_contact</title>
    <desc>Created with Sketch.</desc>
    <defs>
        <path d="M24.9829061,8.34051344 C28.1604204,13.1023207 27.5319217,19.4455553 23.4817467,23.4912305 C21.2293815,25.7410934 18.1753023,27.0037339 14.9917467,27.0012342 C9.267117,26.996729 4.34278512,22.9491876 3.23005667,17.3337409 C2.11732822,11.7182943 5.12608387,6.09877249 10.4164227,3.91160061 C15.7067615,1.72442873 21.8053918,3.57870618 24.9829061,8.34051344 Z M14.9917467,18.0612305 C12.2634601,18.0612305 10.0517467,20.2729439 10.0517467,23.0012305 L10.0517467,24.4412305 C10.0517467,24.5068393 10.0408531,24.5699037 10.020776,24.6287137 C11.5427293,25.4172955 13.2454392,25.8394506 14.9917467,25.8394506 C16.7408187,25.8394506 18.4461551,25.4159578 19.9707159,24.6258295 C19.9447874,24.5617521 19.9317467,24.4930142 19.9317467,24.4212305 L19.9317467,23.0012305 C19.9317467,20.2729439 17.7200334,18.0612305 14.9917467,18.0612305 Z M14.9917467,4.16122129 C10.6057562,4.15552215 6.64936752,6.79576334 4.97147193,10.8481222 C3.29357633,14.900481 4.22550332,19.5647491 7.33174673,22.6612213 C7.81338834,23.1440135 8.33591123,23.5766296 8.89119283,23.9556998 L8.89174673,23.0012305 C8.89174673,20.0996667 10.9176103,17.6712687 13.6320457,17.0533283 C11.9405012,16.4786586 10.7258956,14.8736525 10.7317463,12.9879595 C10.7391145,10.6268013 12.6572155,8.71762174 15.0183823,8.72127714 C17.379549,8.72494306 19.2917467,10.640061 19.2917467,13.0012305 C19.2829696,14.8882821 18.0596422,16.4867693 16.3645179,17.0574324 C19.0725018,17.6792102 21.0917467,20.1044104 21.0917467,23.0012305 L21.0913592,23.9563424 C21.6469916,23.5771186 22.1698329,23.1442863 22.6517467,22.6612213 C25.7477197,19.5611906 26.6731768,14.9022707 24.9970985,10.8543011 C23.3210203,6.80633144 19.3729885,4.16529936 14.9917467,4.16122129 Z M14.9917467,9.88121448 C13.2712649,9.89225948 11.8844342,11.293977 11.8917461,13.0144784 C11.899116,14.7349799 13.2978574,16.1248122 15.0183707,16.1211666 C16.738884,16.1175066 18.1317467,14.7217477 18.1317467,13.0012305 C18.1290988,12.1711016 17.7967897,11.376025 17.2079245,10.7909105 C16.6190594,10.2057961 15.8218756,9.87857412 14.9917467,9.88121448 Z" id="path-1"></path>
    </defs>
    <g id="app_contact" stroke="none" stroke-width="1" fill="none" fill-rule="evenodd">
        <mask id="mask-2" fill="white">
            <use xlink:href="#path-1"></use>
        </mask>
        <use id="Mask" fill="#000000" xlink:href="#path-1"></use>
        <g id="palette/additional/lightblue" mask="url(#mask-2)" fill="#E21B23" fill-rule="nonzero">
            <g transform="translate(-59.000000, -38.000000)" id="color">
                <rect x="0" y="0" width="147" height="106"></rect>
            </g>
        </g>
    </g>
</svg>