<?xml version="1.0" encoding="UTF-8"?>
<svg width="30px" height="30px" viewBox="0 0 30 30" version="1.1" xmlns="http://www.w3.org/2000/svg" xmlns:xlink="http://www.w3.org/1999/xlink">
    <!-- Generator: Sketch 58 (84663) - https://sketch.com -->
    <title>app_info</title>
    <desc>Created with Sketch.</desc>
    <defs>
        <path d="M24.9829061,8.34051344 C28.1604204,13.1023207 27.5319217,19.4455553 23.4817467,23.4912305 C21.2293815,25.7410934 18.1753023,27.0037339 14.9917467,27.0012342 C9.267117,26.996729 4.34278512,22.9491876 3.23005667,17.3337409 C2.11732822,11.7182943 5.12608387,6.09877249 10.4164227,3.91160061 C15.7067615,1.72442873 21.8053918,3.57870618 24.9829061,8.34051344 Z M14.9917467,4.18123053 C9.01602573,4.18123053 4.17174673,9.02550953 4.17174673,15.0012305 C4.17174673,20.9769515 9.01602573,25.8212305 14.9917467,25.8212305 C17.8613891,25.8212305 20.6134985,24.6812695 22.6426421,22.6521259 C24.6717857,20.6229823 25.8117467,17.8708729 25.8117467,15.0012305 C25.8117467,12.1315881 24.6717857,9.37947877 22.6426421,7.35033515 C20.6134985,5.32119154 17.8613891,4.18123053 14.9917467,4.18123053 Z M18.1817467,9.13123053 C19.5916889,9.13673816 20.7317467,10.2812776 20.7317467,11.6912305 L20.7317467,17.6012305 C20.7317467,18.2775326 20.4630868,18.9261351 19.984869,19.4043528 C19.5066513,19.8825706 18.8580488,20.1512305 18.1817467,20.1512305 L15.1117467,20.1512305 L13.2817467,22.1512305 C13.0724097,22.458932 12.7239032,22.6425538 12.3517467,22.6412305 C12.2523156,22.6563159 12.1511778,22.6563159 12.0517467,22.6412305 C11.5531346,22.5162303 11.2055789,22.0652355 11.2117467,21.5512305 L11.2117467,20.0812305 C10.0471495,19.8239977 9.21641648,18.7938887 9.21174673,17.6012305 L9.21174673,11.6912305 C9.21174673,11.0070464 9.48552751,10.3513124 9.97212871,9.87034746 C10.4587299,9.38938256 11.1176095,9.12321274 11.8017467,9.13123053 L18.1817467,9.13123053 Z M18.1817467,10.3112305 L11.8017467,10.3112305 C11.4366609,10.3112305 11.0866719,10.4569316 10.8294577,10.7160233 C10.5722434,10.975115 10.4290819,11.3261544 10.4317467,11.6912305 L10.4317467,17.6012305 C10.4236751,17.9697468 10.5644427,18.3259687 10.8222476,18.5894189 C11.0800525,18.8528692 11.4331421,19.0013189 11.8017467,19.0012305 L12.3917467,19.0012305 L12.3917467,21.3912305 L14.6017467,19.0012305 L18.1817467,19.0012305 C18.9383768,19.0012305 19.5517833,18.3878606 19.5517833,17.6312305 L19.5517833,11.6912305 C19.5544116,11.3261544 19.41125,10.975115 19.1540358,10.7160233 C18.8968215,10.4569316 18.5468326,10.3112305 18.1817467,10.3112305 Z M14.9917467,15.6712305 C15.3357746,15.676692 15.6117901,15.9571593 15.6117467,16.3012305 C15.6117467,16.6436471 15.3341633,16.9212305 14.9917467,16.9212305 C14.6493302,16.9212305 14.3717467,16.6436471 14.3717467,16.3012305 C14.3717034,15.9571593 14.6477188,15.676692 14.9917467,15.6712305 Z M15.6017467,12.4212305 L15.4517467,15.3012305 L14.5417467,15.3012305 L14.3817467,12.4212305 L15.6017467,12.4212305 Z" id="path-1"></path>
    </defs>
    <g id="app_info" stroke="none" stroke-width="1" fill="none" fill-rule="evenodd">
        <mask id="mask-2" fill="white">
            <use xlink:href="#path-1"></use>
        </mask>
        <use id="Mask" fill="#000000" fill-rule="nonzero" xlink:href="#path-1"></use>
        <g id="palette/additional/lightblue" mask="url(#mask-2)" fill="#E21B23" fill-rule="nonzero">
            <g transform="translate(-59.000000, -38.000000)" id="color">
                <rect x="0" y="0" width="147" height="106"></rect>
            </g>
        </g>
    </g>
</svg>