<?xml version="1.0" encoding="UTF-8"?>
<svg width="30px" height="30px" viewBox="0 0 30 30" version="1.1" xmlns="http://www.w3.org/2000/svg" xmlns:xlink="http://www.w3.org/1999/xlink">
    <!-- Generator: Sketch 58 (84663) - https://sketch.com -->
    <title>app_eidt</title>
    <desc>Created with Sketch.</desc>
    <defs>
        <path d="M23.5197921,6.52081528 C28.2142125,11.2152357 28.2142125,18.8263949 23.5197921,23.5208153 C21.2611942,25.7773303 18.1923724,27.0343946 14.9997921,27.0108153 C10.1451322,27.0105887 5.7688597,24.0853548 3.91241397,19.5996741 C2.05596825,15.1139933 3.08512025,9.9516682 6.51979213,6.52081528 C11.2142125,1.82639491 18.8253718,1.82639491 23.5197921,6.52081528 Z M14.9997921,4.33081057 C10.6792276,4.32676981 6.78184408,6.92630179 5.12563173,10.9168224 C3.46941938,14.907343 4.38068486,19.5026406 7.43435535,22.559173 C10.4880258,25.6157054 15.0824678,26.5312752 19.0745381,24.8788018 C23.0666084,23.2263284 25.6697921,19.3313817 25.6697921,15.0108153 C25.6642905,9.11859709 20.8920026,4.34183651 14.9997921,4.33081057 Z M10.5697921,18.3208153 L12.0497921,19.8008153 L12.0297921,19.8108153 L10.5497921,19.8108153 L10.5497921,18.3308153 L10.5697921,18.3208153 Z M17.2997921,11.5808153 L18.7797921,13.0608153 L12.3997921,19.4408153 L10.9197921,17.9608153 L12.9697921,15.9108153 L15.2597921,13.6308153 L17.2997921,11.5808153 Z M18.0297921,10.8708153 C18.4380778,10.4706153 19.0915064,10.4706153 19.4997921,10.8708153 L19.4997921,10.8708153 L19.5841652,10.9561274 C19.7416544,11.1357526 19.8305645,11.3670788 19.8321964,11.6086031 C19.8341003,11.8903814 19.7170323,12.1598856 19.5097921,12.3508153 L19.5097921,12.3508153 L19.1497921,12.7108153 L17.6697921,11.2308153 Z" id="path-1"></path>
    </defs>
    <g id="app_eidt" stroke="none" stroke-width="1" fill="none" fill-rule="evenodd">
        <mask id="mask-2" fill="white">
            <use xlink:href="#path-1"></use>
        </mask>
        <use id="Mask" fill="#000000" fill-rule="nonzero" xlink:href="#path-1"></use>
        <g id="palette/additional/lightblue" mask="url(#mask-2)" fill="#E21B23" fill-rule="nonzero">
            <g transform="translate(-59.000000, -38.000000)" id="color">
                <rect x="0" y="0" width="147" height="106"></rect>
            </g>
        </g>
    </g>
</svg>