<?xml version="1.0" encoding="UTF-8"?>
<svg width="30px" height="30px" viewBox="0 0 30 30" version="1.1" xmlns="http://www.w3.org/2000/svg" xmlns:xlink="http://www.w3.org/1999/xlink">
    <!-- Generator: Sketch 58 (84663) - https://sketch.com -->
    <title>app_delete number</title>
    <desc>Created with Sketch.</desc>
    <defs>
        <path d="M23.6406305,7 C25.4940278,7.00549158 26.9951389,8.50660269 27.0006305,10.36 L27.0006305,20.54 C26.9951389,22.3933973 25.4940278,23.8945084 23.6406305,23.9 L11.7806305,23.9 C10.9263343,23.899157 10.1042413,23.5738941 9.48063052,22.99 L4.06063052,17.9 C3.38388994,17.2648667 3,16.3781014 3,15.45 C3,14.5218986 3.38388994,13.6351333 4.06063052,13 L9.48063052,7.91 C10.1042413,7.32610591 10.9263343,7.000843 11.7806305,7 L23.6406305,7 Z M12.214,8.119 L11.7806305,8.11999949 C11.2112776,8.11961441 10.6635396,8.33799365 10.2506305,8.73 L4.83063052,13.82 C4.37891885,14.2417382 4.12247151,14.8320141 4.12247151,15.45 C4.12247151,16.0061873 4.33019385,16.5399295 4.70103613,16.9485632 L4.83063052,17.08 L10.2506305,22.17 C10.6635396,22.5620063 11.2112776,22.7803856 11.7806305,22.7800005 L23.6406305,22.7800005 C24.2347155,22.7800005 24.8044682,22.5440007 25.2245497,22.1239192 C25.6446312,21.7038377 25.8806305,21.1340849 25.8806305,20.54 L25.8806305,10.36 C25.8806305,9.12288216 24.8777484,8.11999949 23.6406305,8.11999949 L22.326,8.119 L23.075411,8.69408632 L18.032,15.261 L23.0764621,21.8305748 L22.1167617,22.5675112 L17.269,16.255 L12.4233307,22.5661188 L11.4636304,21.8291824 L16.506,15.261 L11.4646814,8.69547873 L12.214,8.119 Z M21.991,8.119 L12.548,8.119 L17.269,14.268 L21.991,8.119 Z" id="path-1"></path>
    </defs>
    <g id="app_delete-number" stroke="none" stroke-width="1" fill="none" fill-rule="evenodd">
        <mask id="mask-2" fill="white">
            <use xlink:href="#path-1"></use>
        </mask>
        <use id="Mask" fill="#000000" fill-rule="nonzero" xlink:href="#path-1"></use>
        <g id="palette/additional/lightblue" mask="url(#mask-2)" fill="#E21B23" fill-rule="nonzero">
            <g transform="translate(-59.000000, -38.000000)" id="color">
                <rect x="0" y="0" width="147" height="106"></rect>
            </g>
        </g>
    </g>
</svg>