<?xml version="1.0" encoding="UTF-8"?>
<svg width="30px" height="30px" viewBox="0 0 30 30" version="1.1" xmlns="http://www.w3.org/2000/svg" xmlns:xlink="http://www.w3.org/1999/xlink">
    <!-- Generator: Sketch 58 (84663) - https://sketch.com -->
    <title>app_call</title>
    <desc>Created with Sketch.</desc>
    <defs>
        <path d="M24.9829061,8.34051344 C28.1604204,13.1023207 27.5319217,19.4455553 23.4817467,23.4912305 C21.2293815,25.7410934 18.1753023,27.0037339 14.9917467,27.0012342 C9.267117,26.996729 4.34278512,22.9491876 3.23005667,17.3337409 C2.11732822,11.7182943 5.12608387,6.09877249 10.4164227,3.91160061 C15.7067615,1.72442873 21.8053918,3.57870618 24.9829061,8.34051344 Z M14.9917467,4.14118695 C10.5987769,4.14056676 6.63807259,6.78652863 4.95686603,10.8450664 C3.27565946,14.9036041 4.20511608,19.5752637 7.31174673,22.6812305 C11.5532936,26.9227773 18.4301998,26.9227772 22.6717466,22.6812304 C26.9132934,18.4396836 26.9132935,11.5627774 22.6717467,7.32123053 C20.639159,5.27811908 17.8736992,4.1330459 14.9917467,4.14118695 Z M11.9217467,8.37123053 L13.7017467,10.3712305 C14.0814078,10.8105724 14.0814078,11.4618886 13.7017467,11.9012305 L13.1117467,12.6312305 C13.0217467,12.7112305 13.0117467,12.9712305 13.1817467,13.3712305 C13.5265013,14.1281373 14.0195571,14.8082142 14.6317467,15.3712305 C15.1985326,15.9817462 15.8775563,16.4774335 16.6317467,16.8312305 C16.9873023,16.9734527 17.2322406,16.981354 17.3454916,16.9181441 L17.3817467,16.8912305 L18.1017467,16.3012305 C18.5072931,15.9507742 19.0934566,15.923816 19.5267902,16.220356 L19.6317467,16.3012305 L21.5417467,18.0012305 C21.9912648,18.4142733 22.0437278,19.1050359 21.6617467,19.5812305 L20.6617467,20.9412305 C20.2762727,21.3103599 19.7545471,21.5023839 19.2217467,21.4712305 C18.448882,21.4326107 17.6911633,21.2423315 16.9917467,20.9112305 C15.2340435,20.0989905 13.6408393,18.9701884 12.2917467,17.5812305 C10.9165551,16.2346728 9.79828467,14.648762 8.99174673,12.9012305 C8.304474,11.3071396 8.25501119,10.0228421 8.89554274,9.34404984 L8.99174673,9.25123053 L10.3417467,8.25123053 C10.8179413,7.86924946 11.5087039,7.92171244 11.9217467,8.37123053 Z M10.9917467,9.10123053 L9.69174673,10.0812305 C9.46174673,10.3612305 9.47174673,11.1912305 10.0117467,12.4412305 C10.7721612,14.0591177 11.8190217,15.5260776 13.1017467,16.7712305 C14.3468996,18.0539555 15.8138595,19.100816 17.4317467,19.8612305 C18.6817467,20.4112305 19.5117467,20.4112305 19.7917467,20.1812305 L20.7917467,18.8712305 L20.7917467,18.8712305 L18.7917467,17.1012305 L18.1017467,17.6712305 C17.5372384,18.1451801 16.734425,18.2094052 16.1017467,17.8312305 C15.211876,17.419251 14.4103979,16.8385189 13.7417467,16.1212305 C11.9917467,14.3012305 11.4017467,12.6512305 12.2417467,11.7712305 L12.8017467,11.0812305 L10.9917467,9.10123053 Z" id="path-1"></path>
    </defs>
    <g id="app_call" stroke="none" stroke-width="1" fill="none" fill-rule="evenodd">
        <mask id="mask-2" fill="white">
            <use xlink:href="#path-1"></use>
        </mask>
        <use id="Mask" fill="#000000" fill-rule="nonzero" xlink:href="#path-1"></use>
        <g id="palette/additional/lightblue" mask="url(#mask-2)" fill="#E21B23" fill-rule="nonzero">
            <g transform="translate(-59.000000, -38.000000)" id="color">
                <rect x="0" y="0" width="147" height="106"></rect>
            </g>
        </g>
    </g>
</svg>