<?xml version="1.0" encoding="UTF-8"?>
<svg width="30px" height="30px" viewBox="0 0 30 30" version="1.1" xmlns="http://www.w3.org/2000/svg" xmlns:xlink="http://www.w3.org/1999/xlink">
    <!-- Generator: Sketch 58 (84663) - https://sketch.com -->
    <title>app_location</title>
    <desc>Created with Sketch.</desc>
    <defs>
        <path d="M23.5097897,6.52081528 C28.20421,11.2152357 28.20421,18.8263949 23.5097897,23.5208153 C21.2526172,25.7721374 18.187684,27.0254825 14.9997897,27.0008153 C10.1477035,27.0005891 5.77321987,24.0784156 3.91511681,19.596207 C2.05701375,15.1139984 3.08098207,9.95389247 6.50978965,6.52081528 C11.20421,1.82639491 18.8153693,1.82639491 23.5097897,6.52081528 Z M14.9997897,4.24077316 C10.6450664,4.22867381 6.71238213,6.84255167 5.03748202,10.8623118 C3.36258191,14.8820719 4.27574206,19.5150517 7.3507067,22.5986136 C10.4256713,25.6821755 15.0560835,26.6082674 19.0805043,24.9445969 C23.104925,23.2809265 25.7297944,19.3555554 25.7297944,15.0008153 C25.7353191,9.06765258 20.9329447,4.25185115 14.9997897,4.24077316 Z M14.9997897,7.07073581 C18.1400344,7.0652626 20.6932669,9.60060911 20.7097897,12.7408153 C20.7097897,14.4008153 19.9297897,16.4808153 18.3897897,18.9208153 C17.7931039,19.8843238 17.138967,20.8107975 16.4310003,21.6952362 L15.9997897,22.2208153 L14.9997897,23.4308153 L13.9997897,22.2208153 C13.1176829,21.1805647 12.312234,20.0776678 11.5897897,18.9208153 C10.0497897,16.4808153 9.26978965,14.4008153 9.26978965,12.7408153 C9.27772524,11.2290748 9.88588319,9.78240596 10.9604712,8.71907018 C12.0350592,7.6557344 13.4880494,7.06283781 14.9997897,7.07073581 Z M14.9997897,8.41076655 C14.3431918,8.40860399 13.6942765,8.55204843 13.0997897,8.83081528 C11.6614682,9.52267409 10.7215121,10.9417078 10.6361057,12.5240781 L10.6297897,12.7408153 L10.6599738,13.1103585 C10.7617167,14.0929016 11.0329702,15.0504266 11.4616704,15.9403472 L11.6297897,16.2708153 L11.8997897,16.8008153 L12.2897897,17.5108153 L12.4997897,17.8508153 C13.1135314,18.8674893 13.7866973,19.8468358 14.5157095,20.7837786 L14.9597897,21.3408153 L15.0297897,21.2508153 L15.1797897,21.0708153 L15.6697897,20.4508153 L15.7897897,20.2908153 L15.9997897,20.0008153 L16.2697897,19.6708153 L16.3197897,19.6008153 L16.4597897,19.4008153 L17.0297897,18.5608153 L17.1410397,18.3808153 L17.1410397,18.3808153 L17.2597897,18.2008153 L17.3397897,18.0808153 C17.473123,17.8741486 17.6109008,17.6541486 17.7442341,17.4267412 L17.9397897,17.0808153 L18.0597897,16.8508153 L18.0976861,16.7873749 L18.0976861,16.7873749 L18.1297897,16.7208153 L18.3297897,16.3408153 L18.4597897,16.0708153 L18.5697897,15.8308153 L18.7097897,15.5208153 C18.884676,15.1101234 19.0349421,14.6893782 19.1597897,14.2608153 C19.254743,13.9307757 19.3218744,13.5935673 19.3605807,13.2527304 L19.3897897,12.9108153 L19.3897897,12.7208153 L19.3816773,12.4813156 C19.3180456,11.4472629 18.8860948,10.4669622 18.1597897,9.72081528 C18.0501222,9.60983941 17.9331976,9.50627769 17.8097897,9.41081528 C17.0185339,8.75975312 16.0244576,8.40598932 14.9997897,8.41076655 Z M15.0661746,9.89123808 C16.6888292,9.90029723 17.9995566,11.2181356 17.9997897,12.8408153 C17.9724976,14.4781107 16.6373125,15.7910427 14.9997897,15.7908153 C13.3773431,15.7633122 12.0817183,14.430623 12.0999764,12.808046 C12.1182346,11.1854691 13.4435199,9.88227186 15.0661746,9.89123808 Z M14.9997897,11.1308153 C14.0553827,11.1308153 13.2897897,11.8964084 13.2897897,12.8408153 C13.2897897,13.7852222 14.0553827,14.5508153 14.9997897,14.5508153 C15.9441966,14.5508153 16.7097897,13.7852222 16.7097897,12.8408153 C16.7043279,11.89868 15.941925,11.1362771 14.9997897,11.1308153 Z" id="path-1"></path>
    </defs>
    <g id="app_location" stroke="none" stroke-width="1" fill="none" fill-rule="evenodd">
        <mask id="mask-2" fill="white">
            <use xlink:href="#path-1"></use>
        </mask>
        <use id="Mask" fill="#000000" fill-rule="nonzero" xlink:href="#path-1"></use>
        <g id="palette/additional/lightblue" mask="url(#mask-2)" fill="#E21B23" fill-rule="nonzero">
            <g transform="translate(-59.000000, -38.000000)" id="color">
                <rect x="0" y="0" width="147" height="106"></rect>
            </g>
        </g>
    </g>
</svg>