<?xml version="1.0" encoding="UTF-8"?>
<svg width="30px" height="30px" viewBox="0 0 30 30" version="1.1" xmlns="http://www.w3.org/2000/svg" xmlns:xlink="http://www.w3.org/1999/xlink">
    <!-- Generator: Sketch 58 (84663) - https://sketch.com -->
    <title>add contact</title>
    <desc>Created with Sketch.</desc>
    <defs>
        <path d="M17.1561835,4.02824029 C17.4535963,4.13385156 17.6242107,4.44602816 17.5524954,4.75337972 C17.48078,5.06073129 17.189624,5.26516143 16.8761835,5.22824029 C16.1092587,5.04799833 15.3240033,4.95739194 14.5361835,4.95824029 C10.1545934,4.94125063 6.24186283,7.69815046 4.78350194,11.8299544 C3.32514106,15.9617583 4.64041373,20.5639334 8.06188647,23.3011116 C11.4833592,26.0382898 16.2620045,26.3112491 19.9729047,23.9814766 C23.683805,21.6517042 25.5145713,17.2292329 24.5361835,12.9582403 C24.4992624,12.6447999 24.7036925,12.3536438 25.0110441,12.2819284 C25.3183956,12.2102131 25.6305723,12.3808276 25.7361835,12.6782403 C25.9362759,13.5439645 26.036927,14.4296939 26.0361876,15.3182403 C26.0142381,21.6604026 20.8783458,26.7962949 14.5361835,26.8182403 C9.8690436,26.8125218 5.66399625,23.9985241 3.87873266,19.686325 C2.09346908,15.3741258 3.07887349,10.4112653 6.37618352,7.10824029 C9.19688792,4.28948575 13.2720925,3.12514159 17.1561835,4.02824029 Z M14.4161835,15.4682403 C16.5424798,15.4682403 18.2661835,17.191944 18.2661835,19.3182403 L18.2661835,20.1882403 C18.2661835,20.5361797 17.9841229,20.8182403 17.6361835,20.8182403 C17.2882441,20.8182403 17.0061835,20.5361797 17.0061835,20.1882403 L17.0061835,19.3182403 C17.0061835,17.8878228 15.846601,16.7282403 14.4161835,16.7282403 C12.985766,16.7282403 11.8261835,17.8878228 11.8261835,19.3182403 L11.8261835,20.1882403 C11.8261835,20.5361797 11.5441229,20.8182403 11.1961835,20.8182403 C10.8482441,20.8182403 10.5661835,20.5361797 10.5661835,20.1882403 L10.5661835,19.3182403 C10.5661835,17.191944 12.2898872,15.4682403 14.4161835,15.4682403 Z M15.457335,9.14928371 C16.5324451,9.59772461 17.2281475,10.653415 17.2161835,11.8182403 C17.2108824,13.3673446 15.9651433,14.6264309 14.4161835,14.6482403 C13.2515519,14.672617 12.1885074,13.9882045 11.7286346,12.9179344 C11.2687619,11.8476643 11.5039632,10.6054226 12.3232617,9.77734589 C13.1425602,8.9492692 14.3822248,8.70084281 15.457335,9.14928371 Z M14.4161835,10.1982403 C13.5394728,10.187369 12.8194223,10.8882492 12.8066379,11.7649341 C12.7938535,12.641619 13.4931608,13.3631972 14.3698157,13.3778947 C15.2464706,13.3925921 15.9695731,12.694861 15.9861835,11.8182403 C16.0025825,11.3924661 15.8441103,10.9785128 15.5475781,10.6725369 C15.2510459,10.366561 14.8422625,10.1951933 14.4161835,10.1982403 Z M23.5198206,3.2157506 C25.1016103,3.71543547 26.2966655,5.02103811 26.6548206,6.64075063 C26.9959206,8.18333398 26.528574,9.7876289 25.4262697,10.9044429 L25.2561835,11.0682403 L25.0361835,11.2382403 C24.7743443,11.4253599 24.4926359,11.5829825 24.1961835,11.7082403 C24.0285885,11.7862936 23.8546202,11.849859 23.6761835,11.8982403 C23.2428539,12.0351336 22.7906008,12.1026341 22.3361835,12.0982403 C19.7813962,12.0872282 17.7161835,10.0130513 17.7161835,7.45824029 C17.7188339,6.8619948 17.8341933,6.27162628 18.0561835,5.71824029 C18.0544589,5.6815939 18.0544589,5.64488668 18.0561835,5.60824029 C18.1844519,5.3112634 18.3454474,5.02952134 18.5361835,4.76824029 C18.6695688,4.57191928 18.820163,4.38785977 18.9861835,4.21824029 C20.2098182,3.09821264 21.9380308,2.71606573 23.5198206,3.2157506 Z M22.9861835,5.30824029 L21.5961835,5.30824029 L21.5961835,6.74824029 L20.2861835,6.74824029 L20.2861835,8.09824029 L21.5961835,8.09824029 L21.5961835,9.55824029 L22.9861835,9.55824029 L22.9861835,8.09824029 L24.4361835,8.09824029 L24.4361835,6.74824029 L22.9861835,6.74824029 L22.9861835,5.30824029 Z" id="path-1"></path>
    </defs>
    <g id="add-contact" stroke="none" stroke-width="1" fill="none" fill-rule="evenodd">
        <mask id="mask-2" fill="white">
            <use xlink:href="#path-1"></use>
        </mask>
        <use id="Mask" fill="#000000" xlink:href="#path-1"></use>
        <g id="palette/additional/lightblue" mask="url(#mask-2)" fill="#E21B23" fill-rule="nonzero">
            <g transform="translate(-59.000000, -38.000000)" id="color">
                <rect x="0" y="0" width="147" height="106"></rect>
            </g>
        </g>
    </g>
</svg>