<?xml version="1.0" encoding="UTF-8"?>
<svg width="30px" height="30px" viewBox="0 0 30 30" version="1.1" xmlns="http://www.w3.org/2000/svg" xmlns:xlink="http://www.w3.org/1999/xlink">
    <!-- Generator: Sketch 58 (84663) - https://sketch.com -->
    <title>app_home</title>
    <desc>Created with Sketch.</desc>
    <defs>
        <path d="M27,25.7026483 L17.09,25.7026483 L17.09,20.1926483 C17.09,19.0383732 16.1542751,18.1026483 15,18.1026483 C13.8457249,18.1026483 12.91,19.0383732 12.91,20.1926483 L12.91,25.7026483 L3,25.7026483 L3,14.4326483 C3.00180118,13.3696203 3.52022052,12.3738076 4.39,11.7626483 L13.11,5.59264835 C14.2461086,4.80245055 15.7538914,4.80245055 16.89,5.59264835 L25.61,11.7626483 C26.4797795,12.3738076 26.9981988,13.3696203 27,14.4326483 L27,25.7026483 Z M18.27,24.5226483 L25.8200039,24.5226483 L25.8200039,14.4326483 C25.8213225,13.7512808 25.4888413,13.1124686 24.93,12.7226483 L16.21,6.56264835 C15.4834869,6.05409266 14.5165131,6.05409266 13.79,6.56264835 L5.07,12.7226483 C4.5111587,13.1124686 4.17867751,13.7512808 4.17999607,14.4326483 L4.17999607,24.5226483 L11.73,24.5226483 L11.73,20.1926483 C11.73,18.3866772 13.1940289,16.9226484 15,16.9226484 C16.8059711,16.9226484 18.27,18.3866772 18.27,20.1926483 L18.27,24.5226483 Z" id="path-1"></path>
    </defs>
    <g id="app_home" stroke="none" stroke-width="1" fill="none" fill-rule="evenodd">
        <mask id="mask-2" fill="white">
            <use xlink:href="#path-1"></use>
        </mask>
        <use id="Mask" fill="#000000" fill-rule="nonzero" xlink:href="#path-1"></use>
        <g id="palette/additional/lightblue" mask="url(#mask-2)" fill="#E21B23" fill-rule="nonzero">
            <g transform="translate(-59.000000, -38.000000)" id="color">
                <rect x="0" y="0" width="147" height="106"></rect>
            </g>
        </g>
    </g>
</svg>