<?xml version="1.0" encoding="UTF-8"?>
<svg width="30px" height="30px" viewBox="0 0 30 30" version="1.1" xmlns="http://www.w3.org/2000/svg" xmlns:xlink="http://www.w3.org/1999/xlink">
    <!-- Generator: Sketch 58 (84663) - https://sketch.com -->
    <title>app_compose</title>
    <desc>Created with Sketch.</desc>
    <defs>
        <path d="M18.81,4.07204799 L17.49,5.37204799 L4.29,5.37204799 L4.29,25.682048 L24.61,25.682048 L24.61,12.482048 L25.91,11.162048 L25.91,26.982048 L3,26.982048 L3,4.07204799 L18.81,4.07204799 Z M25.54,3.56204799 L26.54,4.56204799 C27.0936485,5.11170686 27.2596529,5.94172885 26.96,6.66204799 C26.6590409,7.36729915 26.21265,8.00110604 25.65,8.52204799 L24.47,9.52204799 L19.8,14.192048 C19.677336,14.3129828 19.5122525,14.3811695 19.34,14.382048 L19.308,14.378 L15.36,15.332048 L15.21,15.412048 C15.0377475,15.4111695 14.872664,15.3429828 14.75,15.222048 C14.5879439,15.0598322 14.5233441,14.8242332 14.58,14.602048 L15.58,10.472048 C15.6226496,10.2751597 15.7545131,10.1128665 15.9317475,10.0290116 L20.91,5.05204799 C20.9490775,5.01252585 20.9927616,4.97862605 21.0397963,4.95086677 L21.54,4.45204799 C23.65,2.34204799 24.93,2.99204799 25.54,3.56204799 Z M16.599,11.904 L16.1,13.902048 L18.1,13.412048 L17.364,12.671 L16.599,11.904 Z M21.37,6.43204799 L17.184,10.618 L19.356,12.796 L23.54,8.61204799 L21.37,6.43204799 Z M23.83,4.30204799 C23.3044479,4.53906025 22.8317879,4.87910341 22.44,5.30204799 L22.293,5.517 L22.926,6.152 L24.47,7.68204799 L24.62,7.53204799 C25.0485942,7.14922274 25.3896677,6.67854128 25.62,6.15204799 C25.77,5.74204799 25.62,5.55204799 25.51,5.41204799 L24.56,4.41204799 C24.368991,4.21558583 24.0704208,4.17059579 23.83,4.30204799 Z" id="path-1"></path>
    </defs>
    <g id="app_compose" stroke="none" stroke-width="1" fill="none" fill-rule="evenodd">
        <mask id="mask-2" fill="white">
            <use xlink:href="#path-1"></use>
        </mask>
        <use id="Mask" fill="#000000" fill-rule="nonzero" xlink:href="#path-1"></use>
        <g id="palette/additional/lightblue" mask="url(#mask-2)" fill="#E21B23" fill-rule="nonzero">
            <g transform="translate(-59.000000, -38.000000)" id="color">
                <rect x="0" y="0" width="147" height="106"></rect>
            </g>
        </g>
    </g>
</svg>