<?xml version="1.0" encoding="UTF-8"?>
<svg width="30px" height="30px" viewBox="0 0 30 30" version="1.1" xmlns="http://www.w3.org/2000/svg" xmlns:xlink="http://www.w3.org/1999/xlink">
    <!-- Generator: Sketch 58 (84663) - https://sketch.com -->
    <title>app_contacts</title>
    <desc>Created with Sketch.</desc>
    <defs>
        <path d="M26.67,24.5804263 L26.67,26.4004263 C26.6486583,26.7420731 26.3622599,27.0064409 26.02,27.0004263 C25.6665378,27.0004263 25.38,26.7138885 25.38,26.3604263 L25.38,24.5404263 C25.3104192,21.0685081 22.5052783,18.2921317 19.0605716,18.2304917 L18.83,18.2304263 C15.2768724,18.1634958 12.341107,20.9873798 12.27,24.5404263 L12.27,26.3604263 C12.27,26.7138885 11.9834622,27.0004263 11.63,27.0004263 C11.2765378,27.0004263 10.99,26.7138885 10.99,26.3604263 L10.99,24.5404263 C11.0864339,20.3833022 14.4531464,17.0657243 18.5814104,17.0004224 L18.83,17.0004263 C23.0861643,16.9335696 26.5933312,20.3244274 26.67,24.5804263 Z M10.83,16.2004263 C11.8573226,16.1960391 12.8758748,16.389564 13.83,16.7704263 C13.9870401,16.8307128 14.1134489,16.9512983 14.1810694,17.1053227 C14.2486899,17.2593471 14.2519055,17.4340174 14.19,17.5904263 C14.0600957,17.9189221 13.6886067,18.0800499 13.36,17.9504263 C12.5536655,17.6362678 11.6953657,17.4768208 10.83,17.4804263 C7.2768724,17.4134958 4.34110702,20.2373798 4.27,23.7904263 L4.27,25.6104263 C4.26463943,25.9561209 3.98569463,26.2350657 3.64,26.2404263 C3.29040646,26.2404263 3.0054624,25.9599772 3,25.6104263 L3,23.7904263 C3.07668562,19.5368221 6.57606964,16.1446989 10.83,16.2004263 Z M19.75,3.00042631 C22.316259,3.02207757 24.3928477,5.09421961 24.42,7.66042631 L24.42,10.1504263 C24.4378104,10.5994921 24.5060037,11.0447767 24.623065,11.4779487 L24.72,11.8004263 C24.78,11.9804263 24.84,12.1504263 24.91,12.3204263 C25.4258743,13.1157803 25.2765328,14.1697049 24.56,14.7904263 C23.66,15.5604263 21.89,15.1504263 21.01,14.7904263 C20.1904743,15.2794061 19.2543165,15.5384904 18.3,15.5404263 C17.3239125,15.539791 16.3663872,15.2736197 15.53,14.7704263 C15.3017772,14.8618515 15.0679722,14.9386731 14.83,15.0004263 C14.2748688,15.1180361 13.7056929,15.1550831 13.14,15.1104263 C12.5287819,15.0881099 11.9661485,14.7713957 11.63,14.2604263 C11.324559,13.6263442 11.3622275,12.8805077 11.73,12.2804263 C11.8247823,12.0626675 11.9049597,11.838839 11.97,11.6104263 C12.019781,11.3692506 12.0565011,11.1255624 12.08,10.8804263 L12.08,10.6704263 C12.0849626,10.6105289 12.0849626,10.5503237 12.08,10.4904263 L12.2,7.79042631 C12.2055123,5.76192476 13.851491,4.12041882 15.88,4.12042631 L16.27,4.12042631 C16.4384874,4.12000299 16.6063963,4.14015205 16.77,4.18042631 C17.4243422,3.41696672 18.3846246,2.98447312 19.39,3.00042631 L19.75,3.00042631 Z M19.8,4.28042631 L19.46,4.28042631 C18.7199365,4.27149261 18.029297,4.65096488 17.64,5.28042631 L17.58,5.38042631 C17.4295822,5.62163196 17.11335,5.69734952 16.87,5.55042631 L16.76,5.49042631 C16.6427668,5.41818725 16.5077025,5.38009219 16.37,5.38042631 L15.98,5.38042631 C14.7081855,5.38041536 13.6657221,6.36578034 13.5762115,7.61592201 L13.57,7.78042631 L13.46,10.4904263 C13.4653134,10.58702 13.4653134,10.6838327 13.46,10.7804263 L13.46,10.9904263 C13.4295912,11.2900641 13.3794828,11.587374 13.31,11.8804263 C13.2365511,12.1601506 13.1429738,12.4341983 13.03,12.7004263 C12.84,13.1704263 12.77,13.3804263 12.86,13.5304263 C12.95,13.6804263 13.32,13.8004263 13.97,13.7604263 C14.3079004,13.7350279 14.6426887,13.6781139 14.97,13.5904263 C15.1707928,13.5408154 15.354118,13.4370464 15.5,13.2904263 L15.51,13.2104263 L15.95,13.5204263 C17.3593189,14.5134248 19.2406811,14.5134248 20.65,13.5204263 L21.03,13.2504263 L21.4,13.5404263 C21.7809297,13.7187505 22.184792,13.8432747 22.6,13.9104263 C22.9875075,14.0199494 23.4010069,13.991676 23.77,13.8304263 C24.03,13.6004263 24.05,13.5304263 23.77,12.8304263 C23.7,12.6504263 23.62,12.4504263 23.55,12.2304263 C23.3385221,11.5838697 23.2206607,10.9103759 23.2,10.2304263 L23.2,7.67042631 C23.1890307,5.79884411 21.6716064,4.28588277 19.8,4.28042631 Z M11.05,3.10042631 C11.6976683,3.09952674 12.3405662,3.21118796 12.95,3.43042631 C13.1082483,3.48685454 13.2374022,3.60415391 13.3087586,3.75625561 C13.380115,3.9083573 13.3877619,4.08265997 13.33,4.24042631 C13.2755982,4.40050214 13.1591399,4.53199472 13.0068097,4.60533885 C12.8544796,4.67868298 12.6790626,4.68772299 12.52,4.63042631 C12.0484027,4.46172197 11.5508534,4.37710476 11.05,4.38042631 C9.95458185,4.35629499 8.89446876,4.76844007 8.10300763,5.5261422 C7.31154649,6.28384433 6.85361112,7.32499682 6.83,8.42042631 C6.87138794,10.5024559 8.46696237,12.2227518 10.54,12.4204263 C10.8619467,12.4760522 11.0903092,12.7652467 11.0697693,13.0913173 C11.0492294,13.4173879 10.7863821,13.67564 10.46,13.6904263 L10.47,13.7004263 L10.4,13.7004263 C7.67926872,13.4262091 5.59704343,11.1546907 5.56,8.42042631 C5.61476707,5.43871878 8.06804481,3.06140774 11.05,3.10042631 Z" id="path-1"></path>
    </defs>
    <g id="app_contacts" stroke="none" stroke-width="1" fill="none" fill-rule="evenodd">
        <mask id="mask-2" fill="white">
            <use xlink:href="#path-1"></use>
        </mask>
        <use id="Mask" fill="#000000" xlink:href="#path-1"></use>
        <g id="palette/additional/lightblue" mask="url(#mask-2)" fill="#E21B23" fill-rule="nonzero">
            <g transform="translate(-59.000000, -38.000000)" id="color">
                <rect x="0" y="0" width="147" height="106"></rect>
            </g>
        </g>
    </g>
</svg>