<?xml version="1.0" encoding="UTF-8"?>
<svg width="30px" height="30px" viewBox="0 0 30 30" version="1.1" xmlns="http://www.w3.org/2000/svg" xmlns:xlink="http://www.w3.org/1999/xlink">
    <!-- Generator: Sketch 58 (84663) - https://sketch.com -->
    <title>app_chat</title>
    <desc>Created with Sketch.</desc>
    <defs>
        <path d="M15,3 C21.627417,3 27,8.372583 27,15 C27,21.627417 21.627417,27 15,27 C8.372583,27 3,21.627417 3,15 C3,8.372583 8.372583,3 15,3 Z M15,4.5 C9.20101013,4.5 4.5,9.20101013 4.5,15 C4.5,20.7989899 9.20101013,25.5 15,25.5 C20.7989899,25.5 25.5,20.7989899 25.5,15 C25.5,9.20101013 20.7989899,4.5 15,4.5 Z M14.0999211,9 C17.5793589,9 20.4,11.545682 20.4,14.6859049 C20.4,16.0409132 19.874099,17.2846551 18.9973344,18.261464 L18.9973344,18.261464 L20.1916599,20.7383342 C20.2618958,20.8842718 20.1307362,21.0486063 19.9935789,20.9865165 L19.9935789,20.9865165 L17.1123298,19.6806848 C16.2174143,20.1213278 15.1911814,20.3718098 14.0999211,20.3718098 C10.6206411,20.3718098 7.8,17.8261277 7.8,14.6859049 C7.8,11.545682 10.6206411,9 14.0999211,9 Z" id="path-1"></path>
    </defs>
    <g id="app_chat" stroke="none" stroke-width="1" fill="none" fill-rule="evenodd">
        <mask id="mask-2" fill="white">
            <use xlink:href="#path-1"></use>
        </mask>
        <use id="Combined-Shape" fill="#E1E0DF" fill-rule="nonzero" xlink:href="#path-1"></use>
        <g id="palette/additional/lightblue" mask="url(#mask-2)" fill="#E21B23" fill-rule="nonzero">
            <g transform="translate(-59.000000, -38.000000)" id="color">
                <rect x="0" y="0" width="147" height="106"></rect>
            </g>
        </g>
    </g>
</svg>