<?xml version="1.0" encoding="UTF-8"?>
<svg width="30px" height="30px" viewBox="0 0 30 30" version="1.1" xmlns="http://www.w3.org/2000/svg" xmlns:xlink="http://www.w3.org/1999/xlink">
    <!-- Generator: Sketch 58 (84663) - https://sketch.com -->
    <title>bank</title>
    <desc>Created with Sketch.</desc>
    <defs>
        <path d="M27,25.1 L27,26.4 L3,26.4 L3,25.1 L27,25.1 Z M5.4,15.2 C5.7,15.2 5.9,15.5 6,15.8 L6,22.9 C5.9,23.2 5.6,23.5 5.3,23.5 C4.9,23.5 4.7,23.2 4.7,22.9 L4.7,15.8 C4.7,15.4 5.1,15.2 5.4,15.2 Z M9.2,15.2 C9.56,15.2 9.758,15.443 9.794,15.7103 L9.8,15.8 L9.8,22.9 C9.8,23.2 9.5,23.5 9.2,23.5 C8.8,23.5 8.6,23.2 8.6,22.9 L8.6,15.8 C8.6,15.44 8.843,15.242 9.1103,15.206 L9.2,15.2 Z M13.1,15.2 C13.5,15.2 13.7,15.5 13.7,15.8 L13.7,22.9 C13.7,23.2 13.4,23.5 13.1,23.5 C12.7,23.5 12.5,23.2 12.5,22.9 L12.5,15.8 C12.5,15.4 12.8,15.2 13.1,15.2 Z M16.9,15.2 C17.26,15.2 17.458,15.443 17.494,15.7103 L17.5,15.8 L17.5,22.9 C17.6,23.2 17.3,23.5 16.9,23.5 C16.5,23.5 16.3,23.2 16.3,22.9 L16.3,15.8 C16.3,15.44 16.543,15.242 16.8103,15.206 L16.9,15.2 Z M20.8,15.2 C21.1,15.2 21.4,15.5 21.4,15.8 L21.4,22.9 C21.5,23.2 21.2,23.5 20.8,23.5 C20.4,23.5 20.2,23.2 20.2,22.9 L20.2,15.8 C20.2,15.4 20.5,15.2 20.8,15.2 Z M24.8,15.2 C25.1,15.2 25.3,15.5 25.4,15.8 L25.4,22.9 C25.3,23.2 25.1,23.5 24.7,23.5 C24.3,23.5 24.1,23.2 24.1,22.9 L24.1,15.8 C24.1,15.4 24.5,15.2 24.8,15.2 Z M15,3 L26.6,11.2 L26.6,13.5 L3.4,13.5 L3.4,11.2 L15,3 Z M15,4.6 L4.6,11.9 L4.6,12.2 L25.3,12.2 L25.3,11.9 L15,4.6 Z M15,7.7 C15.7179702,7.7 16.3,8.28202983 16.3,9 C16.3,9.71797017 15.7179702,10.3 15,10.3 C14.2820298,10.3 13.7,9.71797017 13.7,9 C13.7,8.28202983 14.2820298,7.7 15,7.7 Z" id="path-1"></path>
    </defs>
    <g id="bank" stroke="none" stroke-width="1" fill="none" fill-rule="evenodd">
        <mask id="mask-2" fill="white">
            <use xlink:href="#path-1"></use>
        </mask>
        <use id="Mask" fill="#000000" xlink:href="#path-1"></use>
        <g id="palette/additional/lightblue" mask="url(#mask-2)" fill="#E21B23" fill-rule="nonzero">
            <g transform="translate(-59.000000, -38.000000)" id="color">
                <rect x="0" y="0" width="147" height="106"></rect>
            </g>
        </g>
    </g>
</svg>