<?xml version="1.0" encoding="UTF-8"?>
<svg width="30px" height="30px" viewBox="0 0 30 30" version="1.1" xmlns="http://www.w3.org/2000/svg" xmlns:xlink="http://www.w3.org/1999/xlink">
    <!-- Generator: Sketch 58 (84663) - https://sketch.com -->
    <title>billpay domestic</title>
    <desc>Created with Sketch.</desc>
    <defs>
        <path d="M19.15,3 C20.1496354,3 20.96,3.81039226 20.96,4.81002766 L20.96,4.81002766 L20.96,12.0000277 C20.5117116,12.0335482 20.0705508,12.1312098 19.65,12.2900277 L19.65,12.2900277 L19.65,4.81002766 C19.6446799,4.53611921 19.4239085,4.31534777 19.15,4.31002766 L19.15,4.31002766 L4.83,4.31002766 C4.55385763,4.31002766 4.33,4.53388529 4.33,4.81002766 L4.33,4.81002766 L4.33,22.7400277 C4.33,23.01617 4.55385763,23.2400277 4.83,23.2400277 L4.83,23.2400277 L18.4945575,23.2416562 C18.4154761,23.1217151 18.3372879,23.001169 18.26,22.8800277 C17.7261202,22.1413035 17.2849515,21.3447991 16.9432222,20.5085092 C16.7513062,20.5415678 16.5573541,20.5630466 16.3625936,20.5732177 L16.07,20.5800277 L15.83,20.5800277 L15.83,21.3500277 L15.02,21.3500277 L15.02,20.5800277 L14.8,20.5800277 C14.1892812,20.6395531 13.5763168,20.4915962 13.06,20.1600277 C12.7216634,19.8101964 12.536514,19.3431233 12.5398464,18.8612316 L12.55,18.6800277 L12.55,18.4400277 L13.71,18.4400277 L13.71,18.5600277 C13.6717092,18.8519086 13.7429657,19.1476227 13.91,19.3900277 C14.1428281,19.5213654 14.4049909,19.5893833 14.6705005,19.5887144 L14.83,19.5800277 L15.03,19.5800277 L15.03,17.7000277 C14.3727126,17.7628926 13.7121561,17.6195973 13.14,17.2900277 C12.7472634,16.8957493 12.5589827,16.3419824 12.63,15.7900277 C12.5640729,15.2505712 12.7525178,14.7111014 13.14,14.3300277 C13.6525665,14.0486187 14.2298211,13.9099869 14.8116971,13.9265272 L15.03,13.9400277 L15.03,13.2600277 L15.83,13.2600277 L15.83,13.9400277 C16.2893467,13.9270774 16.7479748,13.9844059 17.19,14.1100277 L17.1791603,14.1071311 C18.1388361,12.8224426 19.6736682,11.9933945 21.4,11.9999883 C24.2900948,11.9889494 26.6434748,14.3199589 26.66,17.2100277 C26.4713413,19.2568471 25.7356447,21.2152506 24.53,22.8800277 C23.995855,23.7172489 23.4187048,24.5260402 22.8009203,25.3031686 L22.33,25.8800277 L21.4,26.9800277 L20.46,25.8800277 C19.9953572,25.3256968 19.5519552,24.7541411 19.1307102,24.1666095 L19.23056,24.3101077 L19.23056,24.3101077 L19.4,24.5500277 C19.3169584,24.5598891 19.2330416,24.5598891 19.15,24.5500277 L19.15,24.5500277 L4.83,24.5500277 C4.34730379,24.5526871 3.88332188,24.3634836 3.54012872,24.0240412 C3.19693556,23.6845987 3.00264489,23.2227239 3,22.7400277 L3,22.7400277 L3,4.81002766 C3.00264489,4.32733138 3.19693556,3.86545658 3.54012872,3.52601416 C3.88332188,3.18657175 4.34730379,2.9973682 4.83,3 L4.83,3 Z M21.4,13.2200277 C20.8183142,13.2458509 20.2488932,13.395878 19.73,13.6600277 C18.4071034,14.2900722 17.5397615,15.5897128 17.4565219,17.0416308 L17.45,17.2500277 L17.4789951,17.5884792 C17.5879089,18.6007453 17.8935869,19.5831518 18.38,20.4800277 L18.505,20.7287777 L18.63,20.9700277 L18.99,21.6200277 L19.18,21.9300277 C19.7447066,22.8518628 20.3608498,23.7409779 21.0254494,24.5931739 L21.43,25.1000277 L21.49,25.0200277 L21.58,24.9200277 L21.63,24.8500277 L22.07,24.2900277 L22.19,24.1400277 L22.38,23.8700277 L22.59,23.5900277 L22.64,23.5200277 L22.76,23.3400277 C22.8733333,23.1800277 22.9911111,23.0155832 23.1103704,22.8407684 L23.29,22.5700277 L23.57,22.1300277 C23.6966667,21.9300277 23.8233333,21.7211388 23.9440741,21.5092869 L24.12,21.1900277 L24.24,20.9800277 L24.3,20.8700277 L24.48,20.5100277 L24.6,20.2600277 C24.637379,20.1920269 24.6707687,20.1219083 24.7,20.0500277 C24.75,19.9500277 24.83,19.8600277 24.83,19.7600277 C24.981951,19.3844924 25.1121663,19.0005244 25.22,18.6100277 C25.3400064,18.2067352 25.4105241,17.7903455 25.43,17.3700277 L25.433619,17.2850277 L25.43,17.2000277 L25.4224074,16.9633429 C25.3636885,16.0203497 24.9666913,15.126942 24.3,14.4500277 C24.2007152,14.3455155 24.09375,14.2485782 23.98,14.1600277 C23.3167575,13.6060454 22.4936911,13.2831165 21.6349834,13.2360044 L21.4,13.2300277 L21.4,13.2200277 Z M22.4316996,14.7882467 C23.4452604,15.2102658 24.1040439,16.2021255 24.1000185,17.3000277 C24.094516,18.788919 22.8888914,19.9945437 21.4,20.0000462 C20.3020978,20.0040715 19.3102381,19.3452881 18.888219,18.3317273 C18.4661999,17.3181666 18.6974197,16.150126 19.473759,15.3737867 C20.2500983,14.5974473 21.4181389,14.3662275 22.4316996,14.7882467 Z M16.186,17.638 L16.19,17.7400277 L15.83,17.7400277 L15.83,19.5800277 L15.98,19.5800277 C16.1804352,19.5850547 16.3801794,19.5545853 16.57,19.4900277 C16.5940741,19.5542252 16.6189531,19.6192277 16.6447178,19.6849543 C16.4723367,19.1534376 16.339793,18.608478 16.2479163,18.0546906 L16.186,17.638 Z M6.74,17.6000277 L11.27,17.6000277 C11.6006277,17.640958 11.8489136,17.9218761 11.8489136,18.2550277 C11.8489136,18.5881792 11.6006277,18.8690973 11.27,18.9100277 L6.74,18.9100277 C6.48666688,18.9413893 6.23796297,18.8238526 6.10136335,18.6082099 C5.96476372,18.3925672 5.96476372,18.1174881 6.10136335,17.9018454 C6.23796297,17.6862028 6.48666688,17.568666 6.74,17.6000277 Z M21.4,15.7200277 L21.4,15.7300277 C20.5329129,15.7300277 19.83,16.4329406 19.83,17.3000277 C19.83,18.1671147 20.5329129,18.8700277 21.4,18.8700277 C22.2670871,18.8700277 22.97,18.1671147 22.97,17.3000277 C22.9726632,16.8819078 22.8084295,16.4799984 22.5137082,16.1833999 C22.2189869,15.8868014 21.8181283,15.7200277 21.4,15.7200277 Z M16.160138,15.0001552 L15.83,15.0000277 L15.83,16.7200277 L16.1653605,16.7206829 C16.2189003,16.1766533 16.3555622,15.6572132 16.562427,15.1751589 L16.5952516,15.1035513 C16.4570281,15.0438806 16.3097483,15.0090043 16.160138,15.0001552 Z M14.99,14.9900277 L14.83,14.9900277 C14.18,14.9900277 13.83,15.2300277 13.83,15.8100277 C13.83,16.3485991 14.0972959,16.6371195 14.6879337,16.6755889 L14.83,16.6800277 L15.01,16.6800277 L14.99,14.9900277 Z M11.27,14.3900277 C11.6345079,14.3900277 11.93,14.6855197 11.93,15.0500277 C11.93,15.4145356 11.6345079,15.7100277 11.27,15.7100277 L6.74,15.7100277 C6.37549207,15.7100277 6.08,15.4145356 6.08,15.0500277 C6.08,14.6855197 6.37549207,14.3900277 6.74,14.3900277 L11.27,14.3900277 Z M17.6386367,11.4918454 C17.7752363,11.7074881 17.7752363,11.9825672 17.6386367,12.1982099 C17.502037,12.4138526 17.2533331,12.5313893 17,12.5000277 L6.74,12.5000277 C6.48666688,12.5313893 6.23796297,12.4138526 6.10136335,12.1982099 C5.96476372,11.9825672 5.96476372,11.7074881 6.10136335,11.4918454 C6.23796297,11.2762028 6.48666688,11.158666 6.74,11.1900277 L17,11.1900277 C17.2533331,11.158666 17.502037,11.2762028 17.6386367,11.4918454 Z M6.74,8.00002766 L17,8.00002766 C17.2533331,7.96866604 17.502037,8.08620276 17.6386367,8.30184543 C17.7752363,8.51748811 17.7752363,8.79256721 17.6386367,9.00820989 C17.502037,9.22385256 17.2533331,9.34138929 17,9.31002766 L17,9.30002766 L6.74,9.30002766 C6.48057398,9.34570869 6.21882733,9.23275362 6.07409444,9.01266044 C5.92936155,8.79256726 5.92936155,8.50748806 6.07409444,8.28739488 C6.21882733,8.0673017 6.48057398,7.95434664 6.74,8.00002766 Z" id="path-1"></path>
    </defs>
    <g id="billpay-domestic" stroke="none" stroke-width="1" fill="none" fill-rule="evenodd">
        <mask id="mask-2" fill="white">
            <use xlink:href="#path-1"></use>
        </mask>
        <use id="Mask" fill="#000000" xlink:href="#path-1"></use>
        <g id="palette/additional/lightblue" mask="url(#mask-2)" fill="#E21B23" fill-rule="nonzero">
            <g transform="translate(-59.000000, -38.000000)" id="color">
                <rect x="0" y="0" width="147" height="106"></rect>
            </g>
        </g>
    </g>
</svg>