<?xml version="1.0" encoding="UTF-8"?>
<svg width="30px" height="30px" viewBox="0 0 30 30" version="1.1" xmlns="http://www.w3.org/2000/svg" xmlns:xlink="http://www.w3.org/1999/xlink">
    <!-- Generator: Sketch 58 (84663) - https://sketch.com -->
    <title>billpay</title>
    <desc>Created with Sketch.</desc>
    <defs>
        <path d="M23.1,3.00092985 C24.1519026,3.02261032 24.9948001,3.87881668 25,4.93092985 L25,25.0709299 C24.9973547,25.585452 24.790421,26.077849 24.4247236,26.4397957 C24.0590262,26.8017423 23.5645221,27.0035889 23.05,27.0009299 L7,27.0009299 C6.47689546,27.0171218 5.96943892,26.8212769 5.59283918,26.4578582 C5.21623945,26.0944394 5.00244717,25.5942792 5,25.0709299 L5,4.93092985 C5.00244717,4.40758049 5.21623945,3.90742028 5.59283918,3.54400154 C5.96943892,3.1805828 6.47689546,2.98473789 7,3.00092985 L23.1,3.00092985 Z M23.1,4.27092985 L7,4.27092985 C6.63773874,4.27629756 6.34536771,4.56866859 6.34,4.93092985 L6.34,25.0709299 C6.34536771,25.4331911 6.63773874,25.7255621 7,25.7309299 L23.1,25.7309299 C23.4622613,25.7255621 23.7546323,25.4331911 23.76,25.0709299 L23.76,4.93092985 C23.7546323,4.56866859 23.4622613,4.27629756 23.1,4.27092985 Z M19.3,14.4709299 L19.3,15.2309299 C19.9936763,15.1676139 20.6903913,15.313924 21.3,15.6509299 C21.7139351,16.0666357 21.9163244,16.6480451 21.85,17.2309299 L21.85,17.4109299 L20.59,17.4109299 L20.59,17.2709299 C20.59,16.6909299 20.22,16.4009299 19.5,16.4009299 L19.3,16.3509299 L19.3,18.3509299 L19.59,18.3509299 C20.2918491,18.3249704 20.9862845,18.5020515 21.59,18.8609299 C21.9873096,19.2895025 22.1772925,19.8704118 22.11,20.4509299 C22.1763174,21.0808347 21.9728603,21.7093716 21.55,22.1809299 C20.9633274,22.5786169 20.2547991,22.755749 19.55,22.6809299 L19.3,22.6809299 L19.3,23.5509299 L18.41,23.5509299 L18.41,22.6809299 L18.16,22.6809299 C17.4581346,22.7531974 16.7526149,22.5838727 16.16,22.2009299 C15.7404179,21.7555996 15.5359242,21.1494218 15.6,20.5409299 L15.6,20.2809299 L17,20.2809299 L17,20.4109299 C16.9574973,20.7387942 17.0395745,21.0706714 17.23,21.3409299 C17.5336793,21.5124374 17.8829832,21.5857912 18.23,21.5509299 L18.43,21.5509299 L18.43,19.4009299 C17.6892139,19.4930986 16.9380716,19.3533512 16.28,19.0009299 C15.8433427,18.5533092 15.6336463,17.9315779 15.71,17.3109299 C15.6404357,16.705996 15.8502495,16.1023213 16.28,15.6709299 C16.9300996,15.3147661 17.6719869,15.1615124 18.41,15.2309299 L18.41,14.4709299 L19.3,14.4709299 Z M19.3,19.4609299 L19.3,21.5309299 L19.48,21.5309299 C20.33,21.5309299 20.75,21.1609299 20.75,20.4409299 C20.7924633,20.147554 20.687739,19.8520821 20.47,19.6509299 C20.1027701,19.4882319 19.6998431,19.4227993 19.3,19.4609299 Z M14.2,19.3909299 C14.5534622,19.3909299 14.84,19.6774676 14.84,20.0309299 C14.84,20.3843921 14.5534622,20.6709299 14.2,20.6709299 L9.11,20.6709299 C8.75653776,20.6709299 8.47,20.3843921 8.47,20.0309299 C8.47,19.6774676 8.75653776,19.3909299 9.11,19.3909299 L14.2,19.3909299 Z M18.41,16.3509299 L18.22,16.3509299 C17.43,16.3509299 17.04,16.6609299 17.04,17.2709299 C17.04,17.8809299 17.43,18.2709299 18.21,18.2709299 L18.41,18.2709299 L18.41,16.3509299 Z M14.2,15.7909299 C14.5534622,15.7909299 14.84,16.0774676 14.84,16.4309299 C14.84,16.7843921 14.5534622,17.0709299 14.2,17.0709299 L9.11,17.0709299 C8.75653776,17.0709299 8.47,16.7843921 8.47,16.4309299 C8.47,16.0774676 8.75653776,15.7909299 9.11,15.7909299 L14.2,15.7909299 Z M21.25028,12.4931056 C21.3830315,12.7023781 21.3830315,12.9694816 21.25028,13.1787541 C21.1175286,13.3880267 20.8758903,13.5018476 20.63,13.4709299 L9.11,13.4709299 C8.7899305,13.430685 8.5498436,13.1585196 8.5498436,12.8359299 C8.5498436,12.5133401 8.7899305,12.2411747 9.11,12.2009299 L20.63,12.2009299 C20.8758903,12.1700121 21.1175286,12.283833 21.25028,12.4931056 Z M21.25028,8.89310557 C21.3830315,9.10237814 21.3830315,9.36948156 21.25028,9.57875413 C21.1175286,9.7880267 20.8758903,9.9018476 20.63,9.87092985 L9.11,9.87092985 C8.7899305,9.83068497 8.5498436,9.55851959 8.5498436,9.23592985 C8.5498436,8.91334011 8.7899305,8.64117473 9.11,8.60092985 L20.63,8.60092985 C20.8758903,8.57001211 21.1175286,8.683833 21.25028,8.89310557 Z" id="path-1"></path>
    </defs>
    <g id="billpay" stroke="none" stroke-width="1" fill="none" fill-rule="evenodd">
        <mask id="mask-2" fill="white">
            <use xlink:href="#path-1"></use>
        </mask>
        <use id="Mask" fill="#000000" fill-rule="nonzero" xlink:href="#path-1"></use>
        <g id="palette/additional/lightblue" mask="url(#mask-2)" fill="#E21B23" fill-rule="nonzero">
            <g transform="translate(-59.000000, -38.000000)" id="color">
                <rect x="0" y="0" width="147" height="106"></rect>
            </g>
        </g>
    </g>
</svg>