<?xml version="1.0" encoding="UTF-8"?>
<svg width="30px" height="30px" viewBox="0 0 30 30" version="1.1" xmlns="http://www.w3.org/2000/svg" xmlns:xlink="http://www.w3.org/1999/xlink">
    <!-- Generator: Sketch 58 (84663) - https://sketch.com -->
    <title>contact</title>
    <desc>Created with Sketch.</desc>
    <defs>
        <path d="M14.9107641,16.2 C17.036048,16.2237082 19.0645399,17.0921654 20.5485577,18.6137057 C22.0325754,20.1352461 22.8501209,22.1847866 22.8207641,24.31 L22.8207641,26.23 C22.8207641,26.6552593 22.4760234,27 22.0507641,27 C21.6255049,27 21.2807641,26.6552593 21.2807641,26.23 L21.2807641,24.31 C21.3308441,20.7404275 18.4802669,17.8048253 14.9107641,17.75 C11.3412614,17.8048253 8.49068422,20.7404275 8.54076415,24.31 L8.54076415,26.23 C8.54076415,26.6552593 8.19602341,27 7.77076415,27 C7.34550489,27 7.00076415,26.6552593 7.00076415,26.23 L7.00076415,24.31 C6.97140745,22.1847866 7.78895288,20.1352461 9.27297064,18.6137057 C10.7569884,17.0921654 12.7854803,16.2237082 14.9107641,16.2 Z M14.9107641,3 C18.0273251,3.03843692 20.5240999,5.59338032 20.4907641,8.71 C20.5240999,11.8266197 18.0273251,14.3815631 14.9107641,14.42 C11.7942032,14.3815631 9.2974284,11.8266197 9.33076415,8.71 C9.2974284,5.59338032 11.7942032,3.03843692 14.9107641,3 Z M14.9107641,4.55 C12.6620188,4.60461294 10.8771829,6.46084224 10.9107641,8.71 C10.8771829,10.9591578 12.6620188,12.8153871 14.9107641,12.87 C17.1595095,12.8153871 18.9443454,10.9591578 18.9107641,8.71 C18.9443454,6.46084224 17.1595095,4.60461294 14.9107641,4.55 Z" id="path-1"></path>
    </defs>
    <g id="contact" stroke="none" stroke-width="1" fill="none" fill-rule="evenodd">
        <mask id="mask-2" fill="white">
            <use xlink:href="#path-1"></use>
        </mask>
        <use id="Mask" fill="#000000" xlink:href="#path-1"></use>
        <g id="palette/additional/lightblue" mask="url(#mask-2)" fill="#E21B23" fill-rule="nonzero">
            <g transform="translate(-65.000000, -41.000000)" id="color">
                <rect x="0" y="0" width="147" height="106"></rect>
            </g>
        </g>
    </g>
</svg>