<?xml version="1.0" encoding="UTF-8"?>
<svg width="30px" height="30px" viewBox="0 0 30 30" version="1.1" xmlns="http://www.w3.org/2000/svg" xmlns:xlink="http://www.w3.org/1999/xlink">
    <!-- Generator: Sketch 58 (84663) - https://sketch.com -->
    <title>compliance</title>
    <desc>Created with Sketch.</desc>
    <defs>
        <path d="M20.23,5.43 C21.0504573,5.43 21.7255786,6.05554038 21.8026917,6.8568579 L21.81,7 L21.8104312,12.26183 C22.3505429,12.3104769 22.8887598,12.4402287 23.4071353,12.6546681 C25.4486254,13.4991831 26.78,15.4907269 26.78,17.7 C26.7748135,20.547415 24.5942628,22.8848648 21.8103837,23.1374368 L21.81,25.43 C21.8048072,26.2504409 21.1749784,26.9215613 20.3731858,26.993598 L20.23,27 L5.58,27 C4.75954266,27 4.08442137,26.3744596 4.00730834,25.5731421 L4,25.43 L4,7 C4.00519277,6.1795591 4.63502159,5.50843867 5.43681423,5.43640195 L5.58,5.43 L20.23,5.43 Z M20.23,6.47 L5.58,6.47 C5.43943526,6.47 5.30462769,6.52583913 5.20523341,6.62523341 C5.12571798,6.70474883 5.07407786,6.80692876 5.05660242,6.91658927 L5.05,7 L5.05,25.46 C5.04997417,25.5996628 5.10613031,25.7334652 5.20582284,25.8312767 C5.28557687,25.909526 5.38783017,25.9594782 5.49703546,25.974954 L5.58,25.98 L20.23,25.98 C20.369637,25.9826858 20.5044846,25.9290883 20.6041772,25.8312767 C20.6839312,25.7530275 20.7358219,25.6517441 20.7533748,25.5428534 L20.76,25.46 L20.7590339,23.1312464 C18.7825386,22.9276976 17.0529711,21.6589016 16.2784935,19.7963899 C15.5769544,18.1092852 15.773439,16.2100456 16.7452941,14.7190025 L7.6,14.72 L7.6,13.72 L17.6352139,13.6708278 C18.51465,12.8661936 19.614675,12.3871553 20.7594519,12.2688149 L20.76,7 C20.76,6.85943526 20.7041609,6.72462769 20.6047666,6.62523341 C20.5053723,6.52583913 20.3705647,6.47 20.23,6.47 Z M21.33,13.4 C18.9551756,13.4 17.03,15.3251756 17.03,17.7 C17.03,20.0748244 18.9551756,22 21.33,22 C23.7048244,22 25.63,20.0748244 25.63,17.7 C25.6245016,15.3274568 23.7025432,13.4054984 21.33,13.4 Z M12.2,20.22 L12.2,21.27 L7.6,21.27 L7.6,20.22 L12.2,20.22 Z M23.47,15.65 C23.5269611,15.6448526 23.5818924,15.6725448 23.6116299,15.7213992 C23.6413673,15.7702536 23.6407352,15.8317671 23.61,15.88 L21.71,19.67 C21.6881665,19.7274934 21.6313689,19.7640061 21.57,19.76 L20.39,19.76 C20.3373879,19.7610855 20.2880546,19.7345214 20.26,19.69 L19.06,18 C19.020924,17.9512609 19.0137876,17.8842368 19.0417248,17.8283624 C19.0696619,17.772488 19.1275631,17.7379827 19.19,17.74 L20.09,17.74 C20.1388075,17.7289022 20.1900254,17.7398774 20.23,17.77 L20.98,18.82 L22.44,15.74 C22.4677229,15.6829035 22.5265747,15.6475924 22.59,15.65 L23.47,15.65 Z M12.2,16.97 L12.2,18.02 L7.6,18.02 L7.6,16.97 L12.2,16.97 Z M18,10.48 L18,11.53 L7.6,11.53 L7.6,10.48 L18,10.48 Z M17.55,3 C18.1022847,3 18.55,3.44771525 18.55,4 L18.55,4 L18.55,5.41 L17.39,5.41 L17.39,4.15 L8.39,4.15 L8.39,5.41 L7.21,5.41 L7.21,4 C7.21,3.44771525 7.65771525,3 8.21,3 L8.21,3 Z" id="path-1"></path>
    </defs>
    <g id="compliance" stroke="none" stroke-width="1" fill="none" fill-rule="evenodd">
        <mask id="mask-2" fill="white">
            <use xlink:href="#path-1"></use>
        </mask>
        <use id="Mask" fill="#000000" fill-rule="nonzero" xlink:href="#path-1"></use>
        <g id="palette/additional/lightblue" mask="url(#mask-2)" fill="#E21B23" fill-rule="nonzero">
            <g transform="translate(-59.000000, -38.000000)" id="color">
                <rect x="0" y="0" width="147" height="106"></rect>
            </g>
        </g>
    </g>
</svg>