<?xml version="1.0" encoding="UTF-8"?>
<svg width="30px" height="30px" viewBox="0 0 30 30" version="1.1" xmlns="http://www.w3.org/2000/svg" xmlns:xlink="http://www.w3.org/1999/xlink">
    <!-- Generator: Sketch 58 (84663) - https://sketch.com -->
    <title>call intl</title>
    <desc>Created with Sketch.</desc>
    <defs>
        <path d="M17.3743505,3 C17.4502254,3 17.5258498,3.00239106 17.6011921,3.00715689 C17.7175714,3.00931881 17.8342805,3.01436207 17.9512287,3.02153917 C22.0825081,3.27507523 25.5920129,6.13496612 26.6743505,10.13 C26.6860227,10.1762161 26.6932746,10.2229405 26.6962483,10.2696114 C26.8959875,11.0411952 27.003048,11.8493785 27.0044896,12.68 C27.0082752,13.3886753 26.9328873,14.0907829 26.7825648,14.77414 C26.8193493,14.900507 26.8208753,15.0377371 26.7843505,15.17 C25.9728996,18.1940802 23.7496554,20.6098708 20.8589898,21.6889508 L20.8943505,21.72 C21.4650785,22.2409826 21.5349925,23.1149078 21.0543505,23.72 L19.7043505,25.68 C19.2001873,26.1593328 18.5184928,26.4059032 17.8243505,26.36 C16.7839454,26.3074562 15.7642841,26.049142 14.8243505,25.6 C12.4148684,24.48574 10.2316565,22.9364732 8.38435054,21.03 C6.46497656,19.18263 4.89927044,17.0001305 3.76435054,14.59 C2.80281208,12.4265385 2.76582983,10.725355 3.55561419,9.79759843 L3.65435054,9.69 L5.55435054,8.27 C6.15690269,7.78682789 7.03060961,7.85235591 7.55435054,8.42 L8.343,9.289 L8.36090184,9.20496359 C8.37705008,9.13919846 8.39812913,9.07395797 8.42435054,9.01 C9.89211038,5.41020294 13.3624929,3.06607982 17.2018162,3.00454005 C17.2589444,3.0014392 17.3165749,3 17.3743505,3 Z M6.40898905,9.26066501 L6.36435054,9.29 L4.54435054,10.68 C4.20435054,11.06 4.11435054,12.18 4.95435054,14.11 C6.01643328,16.3515884 7.47294308,18.3839276 9.25435054,20.11 C10.9828383,21.8912214 13.0145099,23.3506388 15.2543505,24.42 C17.1843505,25.25 18.3043505,25.16 18.6943505,24.82 L20.0443505,23 C20.0755127,22.9698559 20.0931076,22.928356 20.0931076,22.885 C20.0931076,22.841644 20.0755127,22.8001441 20.0443505,22.77 L17.3543505,20.31 C17.3335958,20.2909361 17.3092857,20.2779564 17.2836897,20.271061 L17.2569996,20.2813279 L17.2143505,20.31 L16.2643505,21.09 C15.9824047,21.3531104 15.6249874,21.5164396 15.2465423,21.5597295 L15.1643505,21.58 L15.1463941,21.5683432 C15.1193922,21.569903 15.092309,21.5708533 15.0651638,21.5711869 C14.5588831,21.6559935 14.0266564,21.564326 13.5643505,21.29 L13.485187,21.2512522 C12.8402684,20.9765335 12.1042023,20.5109196 11.2809602,19.8037713 C11.2526863,19.7804056 11.2252097,19.7566193 11.1978557,19.732687 C10.9332568,19.5010142 10.6582214,19.2438709 10.3743505,18.96 C10.0299584,18.6186256 9.70581879,18.2578487 9.40346947,17.8795446 C9.35560123,17.8202683 9.3084692,17.7602572 9.26200411,17.6997414 C9.21879808,17.6430693 9.17605769,17.5865662 9.13379348,17.5297004 C9.11177842,17.4992651 9.08958409,17.4687612 9.06755565,17.4381378 C9.03707996,17.3979622 9.00774373,17.3572298 8.9786494,17.316319 L8.73435054,16.96 L8.7035384,16.8972269 C8.47013087,16.5258641 8.25988945,16.1394141 8.07435054,15.74 C7.73723652,15.1677945 7.67788619,14.4899356 7.88233885,13.8851201 L7.85435054,13.98 C7.90306115,13.7842509 7.98432758,13.5988444 8.09411458,13.4312746 C8.14817895,13.3447702 8.20808214,13.2605654 8.27435054,13.18 L9.06435054,12.18 C9.09842218,12.1358685 9.10928985,12.0798645 9.09695357,12.0281591 C9.08855977,12.0108962 9.07806513,11.9944863 9.06435054,11.98 L8.49,11.337 L6.60435054,9.29 C6.54968801,9.24110835 6.47261555,9.23133002 6.40898905,9.26066501 Z M21.3941781,16.1411723 L20.8943586,16.1796696 C19.9331307,16.2460575 18.9697798,16.2827084 18.0056865,16.289514 L18.0073204,19.1152877 C18.0354317,19.1325366 18.0630949,19.1508167 18.0902565,19.170128 L18.1376705,19.2070723 C18.2032103,19.2494424 18.2656654,19.2971718 18.3243505,19.35 L19.202,20.173 L19.228,20.197 L19.3804762,20.0561935 C20.2742842,19.1859121 20.9780306,17.7959746 21.3941781,16.1411723 Z M25.2043505,15.68 C24.3898547,15.8130136 23.5722861,15.9243673 22.75251,16.0139933 C22.4095648,17.6293247 21.8186646,19.0545097 21.039462,20.1509701 C22.1467257,19.6050629 23.1258807,18.8217155 23.9043505,17.85 C24.4349779,17.1854238 24.8522257,16.4558539 25.1530166,15.6886032 L25.2043505,15.68 Z M13.4175811,16.1398644 L13.5116413,16.4980128 C13.5982838,16.8082906 13.6958865,17.1158149 13.8043505,17.42 C14.1352546,18.3838947 14.6636027,19.2675609 15.3550418,20.0147842 L16.2743505,19.26 C16.4074155,19.1442034 16.5561126,19.0562573 16.7129223,18.9961618 L16.713,16.287 L16.5548055,16.2865902 C15.5074424,16.2727604 14.4611139,16.2238059 13.4175811,16.1398644 Z M9.63435054,15.68 C9.72435054,15.9 9.82435054,16.13 9.92435054,16.34 C10.3584229,16.9590747 10.8470393,17.5380517 11.3843505,18.07 C11.8880872,18.5713148 12.3589789,18.9752679 12.7890712,19.2942169 C12.988826,19.4300352 13.195787,19.557925 13.407923,19.6771698 L13.4443387,19.7332128 C13.0523069,19.1478027 12.7397306,18.5119598 12.5143505,17.84 C12.30236,17.237793 12.1294128,16.6237537 11.9961384,16.0017042 C11.2060809,15.9158142 10.4187966,15.8079243 9.63435054,15.68 Z M16.714,10.321 L16.5262207,10.3225577 C15.3961649,10.336447 14.2673177,10.3928987 13.1420761,10.4917286 C13.0327749,11.2130595 12.9864031,11.9452626 13.0043505,12.68 C12.9985185,13.3984936 13.048899,14.1149552 13.154403,14.8229338 C14.3094857,14.9293506 15.4670449,14.9884156 16.6260282,15.0000009 L16.713,15 L16.714,10.321 Z M18.0046338,10.3184817 L18.005,15 L18.3216864,15.0001462 C19.4341224,14.9891826 20.5452441,14.9342901 21.652462,14.8357024 C21.7587121,14.1304007 21.8143505,13.393033 21.8143505,12.64 C21.8304261,11.9208856 21.7843077,11.2043664 21.6777941,10.4981602 C20.456476,10.3847395 19.2312597,10.3250174 18.0046338,10.3184817 Z M22.9817223,10.6381183 C23.0702512,11.3135652 23.1076917,11.9956571 23.0943505,12.68 C23.0943505,13.3694211 23.0527617,14.043989 22.9728607,14.6960237 C23.8391573,14.5925346 24.7026389,14.460975 25.5618254,14.3026523 C25.7595706,13.328554 25.78301,12.3244388 25.6271777,11.3372181 L25.574,11.041 L25.0862465,10.9519157 C24.3872173,10.829696 23.6854872,10.7250769 22.9817223,10.6381183 Z M11.7730271,10.6343219 C11.1596506,10.7059145 10.5461156,10.7916184 9.93435054,10.89 L9.809,10.902 L10.0043505,11.12 C10.4887609,11.6683385 10.4887609,12.4916615 10.0043505,13.04 L9.19435054,14.04 C9.16869093,14.065815 9.14831072,14.0963853 9.13435054,14.13 L9.161,14.261 L9.8789939,14.3917274 C10.5087703,14.4997203 11.1407016,14.5934384 11.7743015,14.6728378 C11.692893,14.0120611 11.6563821,13.3467485 11.6643505,12.68 C11.6495731,11.994061 11.686232,11.3103245 11.7730271,10.6343219 Z M25.5747879,11.0402926 L25.574,11.041 L25.7843505,11.08 L25.5747879,11.0402926 Z M20.9569083,5.106605 L21.0819695,5.28322512 C21.2358061,5.50661626 21.383481,5.74565217 21.5243505,6 C22.0696879,7.04450196 22.4773211,8.1500669 22.7407676,9.28911202 C23.5436365,9.37733794 24.3455196,9.4880168 25.1443505,9.62 C24.356795,7.59481803 22.8365806,6.005237 20.9569083,5.106605 Z M13.8328097,5.07316556 L13.75065,5.11109707 C12.9818164,5.47981183 12.2731015,5.96428327 11.6502173,6.54721474 C10.7613802,7.38321544 10.0650036,8.40210347 9.60908757,9.53245513 C9.60992441,9.54658921 9.61498432,9.55952825 9.62435054,9.57 C9.64839033,9.58673916 9.68031074,9.58673916 9.70435054,9.57 C10.4736724,9.44939515 11.2456202,9.34814483 12.0194626,9.26630258 C12.2826873,8.13618864 12.6899327,7.037557 13.2343505,6 C13.4217925,5.66540734 13.6218165,5.3559787 13.8328097,5.07316556 Z M18.0046985,4.37261333 L18.004,9.01 L18.2239687,9.01179618 C19.2841437,9.02407363 20.3432773,9.07323829 21.3994507,9.15913992 C21.1653386,8.27327095 20.8319735,7.41080118 20.4043505,6.59 C19.727373,5.38285934 18.8840801,4.61479121 18.0046985,4.37261333 Z M16.714444,4.39879752 C15.8648114,4.66689135 15.0507035,5.42341176 14.4043505,6.59 C13.9837617,7.40514445 13.6550232,8.26048727 13.4217475,9.14031376 C14.518097,9.0568927 15.6159545,9.0132145 16.7146502,9.00840663 L16.714444,4.39879752 Z" id="path-1"></path>
    </defs>
    <g id="call-intl" stroke="none" stroke-width="1" fill="none" fill-rule="evenodd">
        <mask id="mask-2" fill="white">
            <use xlink:href="#path-1"></use>
        </mask>
        <use id="Mask" fill="#000000" xlink:href="#path-1"></use>
        <g id="palette/additional/lightblue" mask="url(#mask-2)" fill="#E21B23" fill-rule="nonzero">
            <g transform="translate(-59.000000, -38.000000)" id="color">
                <rect x="0" y="0" width="147" height="106"></rect>
            </g>
        </g>
    </g>
</svg>