<?xml version="1.0" encoding="UTF-8"?>
<svg width="30px" height="30px" viewBox="0 0 30 30" version="1.1" xmlns="http://www.w3.org/2000/svg" xmlns:xlink="http://www.w3.org/1999/xlink">
    <!-- Generator: Sketch 58 (84663) - https://sketch.com -->
    <title>calling plans</title>
    <desc>Created with Sketch.</desc>
    <defs>
        <path d="M8.142102,7.05415604 L10.8964639,10.0612695 C11.4180729,10.6309586 11.3995245,11.5072815 10.8875447,12.0996413 L9.87173166,13.3079557 C9.21123922,13.9625777 9.91786854,15.846612 12.1148029,18.0213551 C14.315834,20.1991699 16.2266705,20.9015496 16.9349045,20.2049151 L18.1073472,19.2423361 C18.7090402,18.7328339 19.5846322,18.7146735 20.1563387,19.2276082 L23.1937364,21.953789 C23.80424,22.5007522 23.8341403,23.4387915 23.3101627,24.0617469 L21.5741867,26.3105356 C19.4470859,28.414758 13.5028064,26.0457848 8.76440347,21.3552445 C4.02320237,16.6619343 1.62650452,10.7693504 3.81958706,8.60602288 L6.00978458,6.95542655 C6.65538105,6.42406057 7.5927769,6.45333983 8.142102,7.05415604 Z M6.75228704,7.89778318 L4.6028992,9.51152735 C3.1469751,10.9527451 5.29394003,16.2313292 9.60861349,20.5024201 C13.9263431,24.7765363 19.2670033,26.9049492 20.6765685,25.5182612 L22.3750731,23.3101238 C22.5113064,23.1479307 22.5049283,22.947836 22.3925945,22.8471934 L19.3549221,20.1207663 C19.243378,20.0206891 19.0401281,20.0249046 18.8758268,20.1639415 L17.7374952,21.0953009 C16.4237048,22.3942288 13.8850789,21.4610882 11.2706892,18.8742748 C8.65496956,16.2849766 7.70876125,13.7621703 8.98947221,12.4964476 L9.97367301,11.3219813 C10.1050504,11.1699506 10.1091063,10.9783288 10.0114864,10.8717106 L7.2568369,7.86428282 C7.15267452,7.75035682 6.9403227,7.74372408 6.75228704,7.89778318 Z M24.4679908,6.04237751 C28.5679677,10.1021413 28.5679677,16.6860494 24.4679278,20.7446748 L23.6237178,19.8918504 C27.2493921,16.3027991 27.2493921,10.4852527 23.6236547,6.89507704 C19.9946141,3.30163058 14.107248,3.30163058 10.4770706,6.89513947 L9.63286062,6.04231507 C13.7306833,1.98588457 20.3713171,1.98588457 24.4679908,6.04237751 Z M17.2613656,7.39052121 L17.2613656,13.7150205 L21.4171321,12.1723496 L21.834742,13.2973393 L16.8701705,15.1402484 C16.4782272,15.2857426 16.0613656,14.9958303 16.0613656,14.5777535 L16.0613656,7.39052121 L17.2613656,7.39052121 Z" id="path-1"></path>
    </defs>
    <g id="calling-plans" stroke="none" stroke-width="1" fill="none" fill-rule="evenodd">
        <mask id="mask-2" fill="white">
            <use xlink:href="#path-1"></use>
        </mask>
        <use id="Mask" fill="#2A2825" fill-rule="nonzero" xlink:href="#path-1"></use>
        <g id="palette/secondary/money-green" mask="url(#mask-2)" fill="#E21B23" fill-rule="nonzero">
            <g transform="translate(-56.000000, -36.000000)" id="color">
                <rect x="0.959183673" y="0" width="141" height="102"></rect>
            </g>
        </g>
    </g>
</svg>