<?xml version="1.0" encoding="UTF-8"?>
<svg width="30px" height="30px" viewBox="0 0 30 30" version="1.1" xmlns="http://www.w3.org/2000/svg" xmlns:xlink="http://www.w3.org/1999/xlink">
    <!-- Generator: Sketch 58 (84663) - https://sketch.com -->
    <title>credit cards</title>
    <desc>Created with Sketch.</desc>
    <defs>
        <path d="M24.25,6 L9.74,6 C8.22351036,6.01098934 6.99996018,7.24347054 7,8.76 L7,10.08 L5.75,10.08 C4.23121694,10.08 3,11.3112169 3,12.83 L3,20.28 C3,21.8004092 4.22960079,23.0344913 5.75,23.04 L20.26,23.04 C21.7764896,23.0290107 23.0000398,21.7965295 23,20.28 L23,18.96 L24.24,18.96 C24.9710764,18.9626585 25.6731215,18.6741012 26.1910113,18.1580877 C26.7089012,17.6420743 27,16.9410813 27,16.21 L27,8.76 C27,7.23959081 25.7703992,6.00550873 24.25,6 Z M9.74,7 L24.25,7 C25.2418401,7.00546481 26.0445352,7.80815987 26.05,8.8 L26.05,10.1 L7.94,10.1 L7.94,8.76 C7.94546481,7.76815987 8.74815987,6.96546481 9.74,6.96 L9.74,7 Z M5.74,11.08 L20.31,11.08 C20.4863508,11.080613 20.6616199,11.1075774 20.83,11.16 C21.5620468,11.4043848 22.0568394,12.0882445 22.06,12.86 L22.06,14.17 L4,14.17 L4,12.83 C4.00502031,11.8589758 4.7793372,11.0669603 5.75,11.04 L5.74,11.08 Z M20.25,22.08 L5.75,22.08 C4.77773778,22.0477646 4.00484033,21.2527844 4,20.28 L4,15.09 L22.06,15.09 L22.06,20.28 C22.0545352,21.2718401 21.2518401,22.0745352 20.26,22.08 L20.25,22.08 Z M24.25,18 L23,18 L23,12.8 C22.9977872,12.1406353 22.7561354,11.5045226 22.32,11.01 L26.03,11.01 L26.03,16.21 C26.0246023,17.1924556 25.23241,17.9890985 24.25,18 Z" id="path-1"></path>
    </defs>
    <g id="credit-cards" stroke="none" stroke-width="1" fill="none" fill-rule="evenodd">
        <mask id="mask-2" fill="white">
            <use xlink:href="#path-1"></use>
        </mask>
        <use id="Mask" fill="#000000" fill-rule="nonzero" xlink:href="#path-1"></use>
        <g id="palette/additional/lightblue" mask="url(#mask-2)" fill="#E21B23" fill-rule="nonzero">
            <g transform="translate(-59.000000, -38.000000)" id="color">
                <rect x="0" y="0" width="147" height="106"></rect>
            </g>
        </g>
    </g>
</svg>