<?xml version="1.0" encoding="UTF-8"?>
<svg width="30px" height="30px" viewBox="0 0 30 30" version="1.1" xmlns="http://www.w3.org/2000/svg" xmlns:xlink="http://www.w3.org/1999/xlink">
    <!-- Generator: Sketch 58 (84663) - https://sketch.com -->
    <title>camera</title>
    <desc>Created with Sketch.</desc>
    <defs>
        <path d="M18,5 C18.76,5 19.41,5.86 20.16,6.85 C20.5169828,7.36103448 20.9445647,7.81891746 21.43,8.21 L24.57,8.21 C25.2073163,8.19931054 25.8224986,8.44364218 26.2788109,8.88868754 C26.7351232,9.33373289 26.9947557,9.94261565 27,10.58 L27,23.07 C26.9894797,23.7038961 26.7275303,24.3076397 26.2717973,24.7483692 C25.8160644,25.1890986 25.2038931,25.4306979 24.57,25.42 L5.43,25.42 C4.79610686,25.4306979 4.18393563,25.1890986 3.72820266,24.7483692 C3.27246969,24.3076397 3.01052034,23.7038961 3,23.07 L3,10.58 C3.0052443,9.94261565 3.26487675,9.33373289 3.72118908,8.88868754 C4.17750141,8.44364218 4.79268372,8.19931054 5.43,8.21 L8.57,8.21 C9.04482184,7.81680414 9.46221227,7.35902108 9.81,6.85 C10.56,5.85 11.21,5 11.97,5 L18,5 Z M18,6.21 L12,6.21 C11.5193701,6.60008738 11.098263,7.05825187 10.75,7.57 C10,8.57 9.35,9.42 8.59,9.42 L5.43,9.42 C4.76920326,9.40305558 4.21709741,9.9195417 4.19,10.58 L4.19,23.07 C4.22758432,23.7225425 4.77660464,24.227287 5.43,24.21 L24.57,24.21 C25.2345521,24.2268381 25.7882376,23.7044091 25.81,23.04 L25.81,10.58 C25.7829026,9.9195417 25.2307967,9.40305558 24.57,9.42 L21.41,9.42 C20.65,9.42 20,8.56 19.25,7.57 C18.901737,7.05825187 18.4806299,6.60008738 18,6.21 Z M20.8,15.91 C20.7289603,19.0448823 18.1350854,21.5314244 15,21.47 C11.8666176,21.5313802 9.27560979,19.0432967 9.21,15.91 C9.27938631,12.853416 11.7513617,10.4143694 14.7825597,10.3598175 L15,10.36 C18.1334319,10.2929809 20.7289844,12.7766561 20.8,15.91 Z M15.2113397,11.5396208 L15,11.54 C12.5220339,11.4783962 10.4608422,13.4322808 10.39,15.91 C10.4554377,18.3916639 12.5182366,20.3515466 15,20.29 C17.4817634,20.3515466 19.5445623,18.3916639 19.61,15.91 C19.5411819,13.5030728 17.5941237,11.5904744 15.2113397,11.5396208 Z" id="path-1"></path>
    </defs>
    <g id="camera" stroke="none" stroke-width="1" fill="none" fill-rule="evenodd">
        <mask id="mask-2" fill="white">
            <use xlink:href="#path-1"></use>
        </mask>
        <use id="Mask" fill="#000000" fill-rule="nonzero" xlink:href="#path-1"></use>
        <g id="palette/additional/lightblue" mask="url(#mask-2)" fill="#E21B23" fill-rule="nonzero">
            <g transform="translate(-59.000000, -38.000000)" id="color">
                <rect x="0" y="0" width="147" height="106"></rect>
            </g>
        </g>
    </g>
</svg>