<?xml version="1.0" encoding="UTF-8"?>
<svg width="30px" height="30px" viewBox="0 0 30 30" version="1.1" xmlns="http://www.w3.org/2000/svg" xmlns:xlink="http://www.w3.org/1999/xlink">
    <!-- Generator: Sketch 58 (84663) - https://sketch.com -->
    <title>chat history</title>
    <desc>Created with Sketch.</desc>
    <defs>
        <path d="M22.4,4 C24.9,4 27,6 27,8.6 L27,17.9 C27,20.2 25.3,22.1 23,22.4 L23,25.2 C23,26 22.5,26.7 21.7,26.9 C21.6,26.9 21.4,27 21.3,27 C20.7,27 20.2,26.7 19.9,26.2 L16,22.4 L7.6,22.4 C5.1,22.4 3,20.4 3,17.8 L3,8.6 C3,6.1 5.1,4 7.6,4 L22.4,4 Z M22.3,5.3 L7.6,5.3 C5.8,5.3 4.3,6.8 4.3,8.6 L4.3,17.9 C4.3,19.637931 5.69833532,21.096195 7.41491246,21.1946984 L7.6,21.2 L7.6,21.2 L16.5,21.2 L20.9,25.4 L20.9,25.5 C21,25.7 21.2,25.8 21.4,25.7 C21.6,25.7 21.7,25.5 21.7,25.3 L21.7,21.2 L22.3,21.2 C24.037931,21.2 25.496195,19.8016647 25.5946984,18.0850875 L25.6,17.9 L25.6,17.9 L25.6,8.6 C25.6,6.8 24.1,5.3 22.3,5.3 Z M14.5,8.3 C14.8,8.3 15.1,8.6 15.1,9 L15.1,9 L15.1,15.3 L18.4,12.8 C18.8,12.6 19.1,12.8 19.3,13.1 C19.4,13.4 19.3,13.6 19.2,13.9 L19.2,13.9 L14.9,17.2 L14.9,17.2 L14.5,17.2 C14.1,17.2 13.8,17 13.8,16.6 L13.8,16.6 L13.8,9 C13.8,8.6 14.1,8.3 14.5,8.3 Z" id="path-1"></path>
    </defs>
    <g id="chat-history" stroke="none" stroke-width="1" fill="none" fill-rule="evenodd">
        <mask id="mask-2" fill="white">
            <use xlink:href="#path-1"></use>
        </mask>
        <use id="Mask" fill="#2A2825" fill-rule="nonzero" xlink:href="#path-1"></use>
        <g id="palette/additional/lightblue" mask="url(#mask-2)" fill="#E21B23" fill-rule="nonzero">
            <g transform="translate(-59.000000, -38.000000)" id="color">
                <rect x="0" y="0" width="147" height="106"></rect>
            </g>
        </g>
    </g>
</svg>