<?xml version="1.0" encoding="UTF-8"?>
<svg width="30px" height="30px" viewBox="0 0 30 30" version="1.1" xmlns="http://www.w3.org/2000/svg" xmlns:xlink="http://www.w3.org/1999/xlink">
    <!-- Generator: Sketch 58 (84663) - https://sketch.com -->
    <title>close</title>
    <desc>Created with Sketch.</desc>
    <defs>
        <path d="M4.00155048,3.18291633 L15.001,14.182 L26.0015505,3.18291633 C26.1145054,3.06684349 26.2695884,3.00136585 26.4315505,3.00136585 C26.5935126,3.00136585 26.7485955,3.06684349 26.8615505,3.18291633 C26.9776233,3.29587127 27.043101,3.45095423 27.043101,3.61291633 C27.043101,3.77487844 26.9776233,3.92996139 26.8615505,4.04291633 L15.842,15.023 L26.8215505,26.0029163 C26.9690355,26.1793802 27.0047364,26.4237946 26.9138874,26.6350712 C26.8230385,26.8463478 26.6210838,26.9885703 26.3915505,27.0029182 C26.2298152,27.003324 26.074765,26.9384193 25.9615505,26.8229163 L15.01,15.852 L4.00155048,26.8229163 C3.89821739,26.9289878 3.75930878,26.9930995 3.61155048,27.0029163 C3.3820172,26.9885703 3.18006248,26.8463478 3.08921354,26.6350712 C2.9983646,26.4237946 3.03406546,26.1793802 3.18155048,26.0029163 L14.171,15.012 L3.18155048,4.00291633 C3.06547764,3.88996139 3,3.73487844 3,3.57291633 C3,3.41095423 3.06547764,3.25587127 3.18155048,3.14291633 C3.4226548,2.93789623 3.78154535,2.95540309 4.00155048,3.18291633 Z" id="path-1"></path>
    </defs>
    <g id="close" stroke="none" stroke-width="1" fill="none" fill-rule="evenodd">
        <mask id="mask-2" fill="white">
            <use xlink:href="#path-1"></use>
        </mask>
        <use id="Mask" fill="#000000" xlink:href="#path-1"></use>
        <g id="palette/additional/lightblue" mask="url(#mask-2)" fill="#E21B23" fill-rule="nonzero">
            <g transform="translate(-59.000000, -38.000000)" id="color">
                <rect x="0" y="0" width="147" height="106"></rect>
            </g>
        </g>
    </g>
</svg>