<?xml version="1.0" encoding="UTF-8"?>
<svg width="30px" height="30px" viewBox="0 0 30 30" version="1.1" xmlns="http://www.w3.org/2000/svg" xmlns:xlink="http://www.w3.org/1999/xlink">
    <!-- Generator: Sketch 58 (84663) - https://sketch.com -->
    <title>chat</title>
    <desc>Created with Sketch.</desc>
    <defs>
        <path d="M25.71,25.0028053 C25.5875416,25.0024442 25.4659561,24.9821799 25.35,24.9428053 L20.42,23.0028053 C18.6930038,23.6765094 16.8537051,24.0158634 15,24.0028053 C11.9664966,24.05276 9.00315636,23.0884426 6.58,21.2628053 C4.40376352,19.6903418 3.0810893,17.1964728 3,14.5128053 C3.06258091,11.8078301 4.38726757,9.28796525 6.58,7.70280533 C9.00828283,5.89143245 11.9711634,4.94134011 15,5.00280533 C18.0288366,4.94134011 20.9917172,5.89143245 23.42,7.70280533 C25.6127324,9.28796525 26.9374191,11.8078301 27,14.5128053 C26.9637786,16.6431584 26.1203078,18.6803548 24.64,20.2128053 L26.54,23.6428053 C26.7359253,23.9897366 26.6918476,24.4224991 26.43,24.7228053 C26.2371962,24.9088166 25.9778174,25.0096862 25.71,25.0028053 Z M20.41,21.5528053 L24.83,23.2928053 L23,20.0028053 L23.37,19.6428053 C24.8196296,18.3399322 25.6604128,16.4916586 25.69,14.5428053 C25.66,10.0028053 20.88,6.30280533 15,6.30280533 C9.12,6.30280533 4.34,10.0028053 4.34,14.5128053 C4.34,19.0228053 9.12,22.7228053 15,22.7228053 C16.7667864,22.742918 18.5191291,22.4026573 20.15,21.7228053 L20.41,21.5528053 Z" id="path-1"></path>
    </defs>
    <g id="chat" stroke="none" stroke-width="1" fill="none" fill-rule="evenodd">
        <mask id="mask-2" fill="white">
            <use xlink:href="#path-1"></use>
        </mask>
        <use id="Mask" fill="#000000" fill-rule="nonzero" xlink:href="#path-1"></use>
        <g id="palette/additional/lightblue" mask="url(#mask-2)" fill="#E21B23" fill-rule="nonzero">
            <g transform="translate(-59.000000, -38.000000)" id="color">
                <rect x="0" y="0" width="147" height="106"></rect>
            </g>
        </g>
    </g>
</svg>