<?xml version="1.0" encoding="UTF-8"?>
<svg width="30px" height="30px" viewBox="0 0 30 30" version="1.1" xmlns="http://www.w3.org/2000/svg" xmlns:xlink="http://www.w3.org/1999/xlink">
    <!-- Generator: Sketch 58 (84663) - https://sketch.com -->
    <title>calendar</title>
    <desc>Created with Sketch.</desc>
    <defs>
        <path d="M23.0003563,5.51291562 L20.0003563,5.51291562 L20.0003563,3.77291562 C20.0323713,3.50842674 19.9092582,3.24913732 19.6840655,3.10677314 C19.4588727,2.96440895 19.1718399,2.96440895 18.9466472,3.10677314 C18.7214545,3.24913732 18.5983413,3.50842674 18.6303563,3.77291562 L18.6303563,5.51291562 L10.7603563,5.51291562 L10.7603563,3.77291562 C10.7603563,3.39183914 10.4514328,3.08291562 10.0703563,3.08291562 C9.88826305,3.08289593 9.71376948,3.15590966 9.58595335,3.28560545 C9.45813722,3.41530123 9.38767848,3.59084204 9.39035632,3.77291562 L9.39035632,5.51291562 L6.45035632,5.51291562 C5.72096287,5.53449369 5.04686811,5.90692174 4.64035632,6.51291562 C4.21301963,7.15140289 3.98982366,7.90468928 4.00035632,8.67291562 L4.00035632,23.9229156 C4.00035632,25.6929156 5.07035632,27.0829156 6.45035632,27.0829156 L23.0003563,27.0829156 C23.7275486,27.0631297 24.3993799,26.6898901 24.8003563,26.0829156 C25.2314647,25.4536962 25.4552213,24.7055103 25.4403563,23.9429156 L25.4403563,8.67291562 C25.3903563,6.90291562 24.3203563,5.51291562 23.0003563,5.51291562 Z M6.45035632,6.88291562 L9.39035632,6.88291562 L9.39035632,8.73291562 C9.38767848,8.9149892 9.45813722,9.09053001 9.58595335,9.22022579 C9.71376948,9.34992157 9.88826305,9.42293531 10.0703563,9.42291562 C10.4514328,9.42291562 10.7603563,9.1139921 10.7603563,8.73291562 L10.7603563,6.88291562 L18.6503563,6.88291562 L18.6503563,8.73291562 C18.6183413,8.9974045 18.7414545,9.25669392 18.9666472,9.3990581 C19.1918399,9.54142229 19.4788727,9.54142229 19.7040655,9.3990581 C19.9292582,9.25669392 20.0523713,8.9974045 20.0203563,8.73291562 L20.0203563,6.88291562 L23.0003563,6.88291562 C23.5703563,6.88291562 24.0703563,7.72291562 24.0703563,8.67291562 L24.0703563,11.1829156 L5.37035632,11.1829156 L5.37035632,8.67291562 C5.37035632,7.62291562 5.94035632,6.88291562 6.45035632,6.88291562 Z M23.0003563,25.7129156 L6.45035632,25.7129156 C5.87035632,25.7129156 5.37035632,24.8729156 5.37035632,23.9229156 L5.37035632,12.5529156 L24.0003563,12.5529156 L24.0003563,23.9229156 C24.0003563,24.9729156 23.4603563,25.7129156 23.0003563,25.7129156 Z" id="path-1"></path>
    </defs>
    <g id="calendar" stroke="none" stroke-width="1" fill="none" fill-rule="evenodd">
        <mask id="mask-2" fill="white">
            <use xlink:href="#path-1"></use>
        </mask>
        <use id="Mask" fill="#2A2825" fill-rule="nonzero" xlink:href="#path-1"></use>
        <g id="palette/additional/lightblue" mask="url(#mask-2)" fill="#E21B23" fill-rule="nonzero">
            <g transform="translate(-59.000000, -38.000000)" id="color">
                <rect x="0" y="0" width="147" height="106"></rect>
            </g>
        </g>
    </g>
</svg>