<?xml version="1.0" encoding="UTF-8"?>
<svg width="30px" height="30px" viewBox="0 0 30 30" version="1.1" xmlns="http://www.w3.org/2000/svg" xmlns:xlink="http://www.w3.org/1999/xlink">
    <!-- Generator: Sketch 58 (84663) - https://sketch.com -->
    <title>call_outline</title>
    <desc>Created with Sketch.</desc>
    <defs>
        <path d="M22.4376402,26.9973777 C21.0505756,26.936773 19.6900406,26.5966392 18.4376402,25.9973777 C15.2862342,24.521453 12.427075,22.4888753 9.99764023,19.9973777 C7.50220653,17.556022 5.46941986,14.6830169 3.99764023,11.5173777 C2.73764023,8.61737768 2.66764023,6.39737768 3.80764023,5.24737768 L3.80764023,5.24737768 L6.30764023,3.38737768 C7.02359141,2.80806039 8.0669623,2.88697079 8.68764023,3.56737768 L11.9976402,7.12737768 C12.5678685,7.78801382 12.5678685,8.76674155 11.9976402,9.42737768 L10.9176402,10.7473777 L10.9176402,10.7473777 C10.6076402,11.0573777 10.6276402,11.7473777 10.9176402,12.5373777 C11.5771907,13.9599105 12.5118221,15.2378065 13.6676402,16.2973777 C14.7272114,17.4531958 16.0051074,18.3878272 17.4276402,19.0473777 C18.2576402,19.3773777 18.9076402,19.3973777 19.2176402,19.0473777 L19.2176402,19.0473777 L20.5676402,17.9973777 C21.2282764,17.4271494 22.2070041,17.4271494 22.8676402,17.9973777 L22.8676402,17.9973777 L26.4276402,21.2573777 C27.1080471,21.8780556 27.1869575,22.9214265 26.6076402,23.6373777 L24.7776402,26.1073777 L24.7776402,26.1073777 C24.1527862,26.7125308 23.306713,27.0343279 22.4376402,26.9973777 Z M4.71764023,6.21737768 C4.04764023,6.93737768 4.23764023,8.75737768 5.20764023,10.9873777 C6.62684155,14.0064928 8.58952704,16.7386595 10.9976402,19.0473777 C13.2927649,21.4316248 16.0038747,23.3768461 18.9976402,24.7873777 C21.2276402,25.7873777 22.9976402,25.9473777 23.7676402,25.2773777 L25.5676402,22.8673777 C25.7225614,22.7050796 25.7225614,22.4496758 25.5676402,22.2873777 L21.9976402,18.9973777 C21.8398011,18.8606454 21.6054794,18.8606454 21.4476402,18.9973777 L21.4476402,18.9973777 L20.1776402,19.9973777 C19.1776402,20.9273777 17.7676402,20.5373777 16.9776402,20.2173777 C15.4022989,19.493972 13.9800291,18.4756404 12.7876402,17.2173777 C11.5293775,16.0249888 10.511046,14.602719 9.78764023,13.0273777 C9.46764023,12.2373777 9.07764023,10.7973777 10.0076402,9.82737768 L10.9976402,8.57737768 C11.1525614,8.41507955 11.1525614,8.15967581 10.9976402,7.99737768 L7.70764023,4.45737768 C7.5453421,4.30245655 7.28993836,4.30245655 7.12764023,4.45737768 L7.12764023,4.45737768 L4.71764023,6.21737768 Z" id="path-1"></path>
    </defs>
    <g id="call_outline" stroke="none" stroke-width="1" fill="none" fill-rule="evenodd">
        <mask id="mask-2" fill="white">
            <use xlink:href="#path-1"></use>
        </mask>
        <use id="Mask" fill="#000000" fill-rule="nonzero" xlink:href="#path-1"></use>
        <g id="palette/additional/lightblue" mask="url(#mask-2)" fill="#E21B23" fill-rule="nonzero">
            <g transform="translate(-59.000000, -38.000000)" id="color">
                <rect x="0" y="0" width="147" height="106"></rect>
            </g>
        </g>
    </g>
</svg>