<?xml version="1.0" encoding="UTF-8"?>
<svg width="30px" height="30px" viewBox="0 0 30 30" version="1.1" xmlns="http://www.w3.org/2000/svg" xmlns:xlink="http://www.w3.org/1999/xlink">
    <!-- Generator: Sketch 58 (84663) - https://sketch.com -->
    <title>download</title>
    <desc>Created with Sketch.</desc>
    <defs>
        <path d="M26.2250972,13.138176 C26.6217618,13.138176 26.9552558,13.4358781 27.0001944,13.83 L27.0001944,20.29 C27.0080763,21.5249878 26.5244357,22.7124194 25.6558518,23.5903833 C24.7872679,24.4683472 23.6050995,24.9647139 22.3700972,24.97 L7.63009719,24.97 C6.39509489,24.9647139 5.21292652,24.4683472 4.34434259,23.5903833 C3.47575867,22.7124194 2.99211804,21.5249878 3,20.29 L3,13.83 C3.04493857,13.4358781 3.37843258,13.138176 3.77509719,13.138176 C4.17176179,13.138176 4.5052558,13.4358781 4.55009719,13.83 L4.55009719,20.29 C4.54744072,21.1095203 4.87044844,21.8965299 5.44806141,22.4778936 C6.02567438,23.0592573 6.8105769,23.3873521 7.63009719,23.39 L22.3700972,23.39 C23.1896175,23.3873521 23.97452,23.0592573 24.552133,22.4778936 C25.1297459,21.8965299 25.4527536,21.1095203 25.4500972,20.29 L25.4500972,13.83 C25.4949386,13.4358781 25.8284326,13.138176 26.2250972,13.138176 Z M15.7900972,5 L15.79,17.148 L19.2700972,13.53 C19.5731496,13.2340131 20.0570447,13.2340131 20.3600972,13.53 C20.5073317,13.6730994 20.5904039,13.8696821 20.5904039,14.075 C20.5904039,14.2803179 20.5073317,14.4769006 20.3600972,14.62 L15.0000972,20.16 L9.61009719,14.56 C9.31411033,14.2569476 9.31411033,13.7730524 9.61009719,13.47 C9.91653918,13.1727972 10.4036552,13.1727972 10.7100972,13.47 L14.24,17.172 L14.2400972,5 L15.7900972,5 Z" id="path-1"></path>
    </defs>
    <g id="download" stroke="none" stroke-width="1" fill="none" fill-rule="evenodd">
        <mask id="mask-2" fill="white">
            <use xlink:href="#path-1"></use>
        </mask>
        <use id="Mask" fill="#000000" xlink:href="#path-1"></use>
        <g id="palette/additional/lightblue" mask="url(#mask-2)" fill="#E21B23" fill-rule="nonzero">
            <g transform="translate(-59.000000, -38.000000)" id="color">
                <rect x="0" y="0" width="147" height="106"></rect>
            </g>
        </g>
    </g>
</svg>