<?xml version="1.0" encoding="UTF-8"?>
<svg width="30px" height="30px" viewBox="0 0 30 30" version="1.1" xmlns="http://www.w3.org/2000/svg" xmlns:xlink="http://www.w3.org/1999/xlink">
    <!-- Generator: Sketch 58 (84663) - https://sketch.com -->
    <title>data</title>
    <desc>Created with Sketch.</desc>
    <defs>
        <path d="M21,22.2800152 L8,22.2800152 C5.23857625,22.2800152 3,20.0414389 3,17.2800152 C3,14.5185914 5.23857625,12.2800152 8,12.2800152 C8.51763991,11.0915901 9.35118278,10.0678196 10.41,9.3200152 C11.6294874,8.45823957 13.0867494,7.99694802 14.58,8 C16.7173317,8.00824055 18.7430708,8.95529183 20.12,10.5900152 C20.4108306,10.5418757 20.7052163,10.5184587 21,10.5200152 C23.1007217,10.5200152 25.0418686,11.6407368 26.0922295,13.4600152 C27.1425903,15.2792935 27.1425903,17.5207369 26.0922295,19.3400152 C25.0418686,21.1592936 23.1007217,22.2800152 21,22.2800152 L21,22.2800152 Z M8,13.5300152 C6.62313494,13.4586521 5.31919265,14.1526129 4.6093298,15.3345371 C3.89946694,16.5164613 3.89946694,17.993569 4.6093298,19.1754933 C5.31919265,20.3574175 6.62313494,21.0513783 8,20.9800152 L21,20.9800152 C23.5294642,20.9800152 25.58,18.9294794 25.58,16.4000152 C25.58,13.870551 23.5294642,11.8200152 21,11.8200152 C20.6635574,11.8183287 20.3280314,11.8552365 20,11.9300152 L19.59,12.0200152 L19.34,11.6800152 C18.0441039,9.93891626 15.9005501,9.04489112 13.7515591,9.34920992 C11.6025681,9.65352872 9.79152343,11.1075649 9.03,13.1400152 L8.86,13.6000152 L8.36,13.6000152 L8,13.5300152 Z" id="path-1"></path>
    </defs>
    <g id="data" stroke="none" stroke-width="1" fill="none" fill-rule="evenodd">
        <mask id="mask-2" fill="white">
            <use xlink:href="#path-1"></use>
        </mask>
        <use id="Mask" fill="#111111" fill-rule="nonzero" xlink:href="#path-1"></use>
        <g id="palette/additional/lightblue" mask="url(#mask-2)" fill="#E21B23" fill-rule="nonzero">
            <g transform="translate(-59.000000, -38.000000)" id="color">
                <rect x="0" y="0" width="147" height="106"></rect>
            </g>
        </g>
    </g>
</svg>