<?xml version="1.0" encoding="UTF-8"?>
<svg width="30px" height="30px" viewBox="0 0 30 30" version="1.1" xmlns="http://www.w3.org/2000/svg" xmlns:xlink="http://www.w3.org/1999/xlink">
    <!-- Generator: Sketch 58 (84663) - https://sketch.com -->
    <title>FAQs</title>
    <desc>Created with Sketch.</desc>
    <defs>
        <path d="M22.4,4 C24.9,4 27,6 27,8.6 L27,17.9 C27,20.2 25.3,22.1 23,22.4 L23,25.2 C23,26 22.5,26.7 21.7,26.9 C21.6,26.9 21.4,27 21.3,27 C20.7,27 20.2,26.7 19.9,26.2 L16,22.4 L7.6,22.4 C5.1,22.4 3,20.4 3,17.8 L3,8.6 C3,6.1 5.1,4 7.6,4 L22.4,4 Z M22.3,5.3 L7.6,5.3 C5.8,5.3 4.3,6.8 4.3,8.6 L4.3,17.9 C4.3,19.637931 5.69833532,21.096195 7.41491246,21.1946984 L7.6,21.2 L16.5,21.2 L20.9,25.4 L20.9,25.5 C21,25.7 21.2,25.8 21.4,25.7 C21.6,25.7 21.7,25.5 21.7,25.3 L21.7,21.2 L22.3,21.2 C24.037931,21.2 25.496195,19.8016647 25.5946984,18.0850875 L25.6,17.9 L25.6,8.6 C25.6,6.8 24.1,5.3 22.3,5.3 Z M14.4,16.9 C14.7313708,16.9 15,17.1686292 15,17.5 C15,17.8313708 14.7313708,18.1 14.4,18.1 C14.0686292,18.1 13.8,17.8313708 13.8,17.5 C13.8,17.1686292 14.0686292,16.9 14.4,16.9 Z M15.1,8.8 C16.2,8.8 16.9,9 17.3,9.3 C17.7,9.6 17.9,10.3 17.9,11.3 C17.9,12.7 17.5,13.6 16.6,13.9 L15.7,14 C15.1,14.2 14.8,14.6 14.8,15.1 L14.8,15.4 L13.9,15.4 L13.9,15.2 C13.9,14.6 14,14.1 14.2,13.9 C14.4,13.7 14.8,13.4 15.4,13.2 L16,13 C16.6,12.8 16.9,12.2 16.9,11.4 C16.9,10.6 16.8,10.1 16.6,10 C16.4,9.8 15.9,9.7 15,9.7 C14.1,9.7 13.6,9.8 13.4,10 C13.2,10.2 13,10.7 13,11.5 L13,11.8 L12,11.8 L12,11.5 C12,10.4 12.2,9.7 12.6,9.3 C13,8.9 13.8,8.8 15.1,8.8 Z" id="path-1"></path>
    </defs>
    <g id="FAQs" stroke="none" stroke-width="1" fill="none" fill-rule="evenodd">
        <mask id="mask-2" fill="white">
            <use xlink:href="#path-1"></use>
        </mask>
        <use id="Mask" fill="#2A2825" fill-rule="nonzero" xlink:href="#path-1"></use>
        <g id="palette/additional/lightblue" mask="url(#mask-2)" fill="#E21B23" fill-rule="nonzero">
            <g transform="translate(-59.000000, -38.000000)" id="color">
                <rect x="0" y="0" width="147" height="106"></rect>
            </g>
        </g>
    </g>
</svg>