<?xml version="1.0" encoding="UTF-8"?>
<svg width="30px" height="30px" viewBox="0 0 30 30" version="1.1" xmlns="http://www.w3.org/2000/svg" xmlns:xlink="http://www.w3.org/1999/xlink">
    <!-- Generator: Sketch 58 (84663) - https://sketch.com -->
    <title>finger touch</title>
    <desc>Created with Sketch.</desc>
    <defs>
        <path d="M14.2597474,8.98026706 C15.6570278,8.98026706 16.7897474,10.1129866 16.7897474,11.5102671 L16.7897474,17.8202671 L23.1097474,17.8202671 C23.9326516,17.8202671 24.5997489,18.4873628 24.5997489,19.3102671 L24.5997489,25.5102671 C24.6008907,26.3029155 23.9812533,26.9577095 23.1897474,27.0002671 L12.0797474,27.0002671 L6.52974736,22.1102671 C6.23502618,21.8568386 6.05183438,21.497639 6.01974736,21.1102671 C5.98407089,20.7610992 6.07042845,20.4119775 6.26149933,20.1211624 L6.34974736,20.0002671 C7.65199102,18.5486226 9.8781624,18.4106 11.3497474,19.6902671 L11.7297474,20.0202671 L11.7297474,11.5102671 C11.7297474,10.1129866 12.8624669,8.98026706 14.2597474,8.98026706 Z M14.3347474,10.0462631 C13.5054758,10.0462631 12.8154612,10.6836033 12.7497474,11.5102671 L12.7497474,22.1102671 L10.8097474,20.4002671 C9.76494584,19.4855686 8.20073636,19.5417299 7.22375812,20.5001452 L7.09974736,20.6302671 C6.8889082,20.8475236 6.8889082,21.1930105 7.09974736,21.4102671 L12.4297474,26.0602671 L23.1897474,26.0602671 C23.4895916,26.0548145 23.7297474,25.8101609 23.7297474,25.5102671 L23.7297474,19.3102671 C23.7297474,19.0120333 23.4879811,18.7702671 23.1897474,18.7702671 L15.9197474,18.7702671 L15.9197474,11.5102671 C15.8540336,10.6836033 15.1640189,10.0462631 14.3347474,10.0462631 Z M13.6997474,3.00026706 C17.0220824,2.97268103 19.9854373,5.08458107 21.0435946,8.23402141 C22.101752,11.3834617 21.0147433,14.8562137 18.3497474,16.8402671 L18.3497474,16.8402671 L18.3497474,15.6102671 C20.4596833,13.6215221 21.0587147,10.5049916 19.836406,7.8757526 C18.6140974,5.24651358 15.8452511,3.69567798 12.9647641,4.02693399 C10.084277,4.35819 7.73974733,6.49706384 7.14617863,9.33512875 C6.55260993,12.1731937 7.84344979,15.0723889 10.3497474,16.5302671 L10.3497474,16.5302671 L10.3497474,17.6002671 C7.11775958,16.0445199 5.39310231,12.4587681 6.19528573,8.96268511 C6.99746914,5.46660216 10.1128245,2.99140115 13.6997474,3.00026706 Z" id="path-1"></path>
    </defs>
    <g id="finger-touch" stroke="none" stroke-width="1" fill="none" fill-rule="evenodd">
        <mask id="mask-2" fill="white">
            <use xlink:href="#path-1"></use>
        </mask>
        <use id="Mask" fill="#2A2825" fill-rule="nonzero" xlink:href="#path-1"></use>
        <g id="palette/additional/lightblue" mask="url(#mask-2)" fill="#E21B23" fill-rule="nonzero">
            <g transform="translate(-59.000000, -38.000000)" id="color">
                <rect x="0" y="0" width="147" height="106"></rect>
            </g>
        </g>
    </g>
</svg>