<?xml version="1.0" encoding="UTF-8"?>
<svg width="30px" height="30px" viewBox="0 0 30 30" version="1.1" xmlns="http://www.w3.org/2000/svg" xmlns:xlink="http://www.w3.org/1999/xlink">
    <!-- Generator: Sketch 58 (84663) - https://sketch.com -->
    <title>global</title>
    <desc>Created with Sketch.</desc>
    <defs>
        <path d="M25.9692308,17.0384615 L25.9692308,16.9461538 L25.9692308,16.9461538 C26.0615385,16.3 26.1538462,15.7461538 26.1538462,15.1 C26.1538462,14.4538462 26.0615385,13.8076923 25.9692308,13.2538462 L25.9692308,13.2538462 L25.9692308,13.1615385 C25.6,11.0384615 24.5846154,9.19230769 23.2923077,7.62307692 C23.2923077,7.62307692 23.2923077,7.62307692 23.2923077,7.62307692 C23.1076923,7.43846154 22.9230769,7.25384615 22.7384615,7.06923077 C22.6461538,6.97692308 22.5538462,6.97692308 22.5538462,6.88461538 C22.3692308,6.79230769 22.2769231,6.60769231 22.0923077,6.51538462 C22.0923077,6.51538462 22,6.42307692 22,6.42307692 C21.8153846,6.33076923 21.6307692,6.14615385 21.5384615,6.05384615 C21.4461538,5.96153846 21.4461538,5.96153846 21.3538462,5.86923077 C17.6615385,3.37692308 12.7692308,3.37692308 8.98461538,5.86923077 C8.89230769,5.86923077 8.89230769,5.96153846 8.8,6.05384615 C8.52307692,6.14615385 8.43076923,6.23846154 8.24615385,6.42307692 C8.24615385,6.42307692 8.15384615,6.51538462 8.15384615,6.51538462 C7.96923077,6.60769231 7.87692308,6.7 7.69230769,6.88461538 C7.6,6.88461538 7.50769231,6.97692308 7.50769231,7.06923077 C7.32307692,7.25384615 7.04615385,7.43846154 6.86153846,7.62307692 C6.86153846,7.62307692 6.86153846,7.62307692 6.86153846,7.62307692 C5.47692308,9.1 4.55384615,11.0384615 4.18461538,13.1615385 L4.18461538,13.2538462 L4.18461538,13.2538462 C4.09230769,13.9 4,14.4538462 4,15.1 C4,15.7461538 4.09230769,16.3923077 4.18461538,16.9461538 L4.18461538,16.9461538 L4.18461538,17.0384615 C4.64615385,19.7153846 6.12307692,22.1153846 8.24615385,23.7769231 C8.24615385,23.7769231 8.24615385,23.7769231 8.24615385,23.7769231 C8.24615385,23.7769231 8.24615385,23.7769231 8.24615385,23.7769231 C8.52307692,23.9615385 8.70769231,24.1461538 8.98461538,24.3307692 C9.16923077,24.4230769 9.26153846,24.5153846 9.44615385,24.6076923 C9.63076923,24.7 9.81538462,24.7923077 10,24.8846154 C10.2769231,25.0692308 10.4615385,25.1615385 10.7384615,25.2538462 C10.8307692,25.2538462 10.9230769,25.3461538 11.0153846,25.3461538 C11.2923077,25.4384615 11.4769231,25.5307692 11.7538462,25.6230769 C11.8461538,25.6230769 11.9384615,25.7153846 12.0307692,25.7153846 C12.3076923,25.8076923 12.4923077,25.9 12.7692308,25.9 C12.8615385,25.9 12.9538462,25.9 13.0461538,25.9923077 C13.3230769,26.0846154 13.6,26.0846154 13.8769231,26.0846154 C13.9692308,26.0846154 13.9692308,26.0846154 14.0615385,26.0846154 C14.4307692,26.0846154 14.8,26.1769231 15.1692308,26.1769231 C15.5384615,26.1769231 15.9076923,26.1769231 16.2769231,26.0846154 C16.2769231,26.0846154 16.3692308,26.0846154 16.3692308,26.0846154 C16.7384615,26.0846154 17.0153846,25.9923077 17.3846154,25.9 C17.3846154,25.9 17.3846154,25.9 17.4769231,25.9 C19.1384615,25.5307692 20.7076923,24.8846154 22.0923077,23.7769231 C22.1846154,23.7769231 22.1846154,23.6846154 22.2769231,23.6846154 C22.3692308,23.6846154 22.3692308,23.5923077 22.4615385,23.5923077 C22.6461538,23.4076923 22.8307692,23.3153846 23.0153846,23.1307692 C23.1076923,23.0384615 23.2923077,22.8538462 23.3846154,22.7615385 C23.4769231,22.6692308 23.5692308,22.5769231 23.5692308,22.4846154 C24.6769231,21.0076923 25.6,19.0692308 25.9692308,17.0384615 Z M19.0461538,24.2384615 C18.8615385,24.3307692 18.7692308,24.3307692 18.5846154,24.4230769 C18.9538462,23.9615385 19.3230769,23.4076923 19.6923077,22.8538462 C20.3384615,21.5615385 20.8923077,20.2692308 21.1692308,18.8846154 C22.2769231,18.7923077 23.3846154,18.6076923 24.4923077,18.4230769 C23.8461538,20.1769231 22.7384615,21.8384615 21.2615385,22.9461538 C20.6153846,23.5 19.9692308,23.8692308 19.2307692,24.2384615 C19.1384615,24.1461538 19.0461538,24.2384615 19.0461538,24.2384615 Z M10.9230769,24.1461538 C10.2769231,23.8692308 9.53846154,23.4076923 8.89230769,22.8538462 C7.41538462,21.6538462 6.30769231,20.0846154 5.66153846,18.3307692 C6.76923077,18.5153846 7.87692308,18.7 8.98461538,18.7923077 C9.26153846,20.1769231 9.72307692,21.5615385 10.4615385,22.7615385 C10.8307692,23.4076923 11.2,23.8692308 11.5692308,24.3307692 C11.3846154,24.3307692 11.2923077,24.2384615 11.1076923,24.2384615 C11.1076923,24.2384615 11.0153846,24.1461538 10.9230769,24.1461538 Z M5.10769231,15.1 C5.10769231,14.3615385 5.2,13.7153846 5.29230769,13.0692308 C6.4,12.8846154 7.6,12.7 8.8,12.5153846 C8.70769231,13.3461538 8.61538462,14.2692308 8.61538462,15.1 C8.61538462,16.0230769 8.61538462,16.8538462 8.8,17.6846154 C7.69230769,17.5923077 6.49230769,17.4076923 5.38461538,17.1307692 C5.2,16.4846154 5.10769231,15.7461538 5.10769231,15.1 Z M18.9538462,5.96153846 C19.1384615,6.05384615 19.3230769,6.14615385 19.5076923,6.23846154 C19.6,6.33076923 19.6923077,6.33076923 19.7846154,6.42307692 C19.8769231,6.51538462 20.0615385,6.60769231 20.1538462,6.7 C20.5230769,6.88461538 20.8923077,7.16153846 21.1692308,7.43846154 C22.6461538,8.63846154 23.7538462,10.2076923 24.4,11.9615385 C23.3846154,11.5923077 22.2769231,11.5 21.1692308,11.4076923 C20.8923077,10.0230769 20.4307692,8.63846154 19.6923077,7.43846154 C19.3230769,6.79230769 18.9538462,6.33076923 18.5846154,5.86923077 C18.5846154,5.86923077 18.6769231,5.86923077 18.6769231,5.86923077 C18.7692308,5.86923077 18.8615385,5.86923077 18.9538462,5.96153846 Z M20.4307692,15.1 C20.4307692,16.0230769 20.3384615,16.9461538 20.2461538,17.8692308 C18.6769231,18.0538462 17.2,18.0538462 15.6307692,18.0538462 L15.6307692,12.1461538 C17.2,12.1461538 18.7692308,12.2384615 20.2461538,12.3307692 C20.4307692,13.2538462 20.4307692,14.1769231 20.4307692,15.1 Z M9.72307692,15.1 C9.72307692,14.1769231 9.81538462,13.2538462 9.90769231,12.3307692 C11.4769231,12.1461538 12.9538462,12.1461538 14.5230769,12.1461538 L14.5230769,18.0538462 C12.9538462,18.0538462 11.4769231,17.9615385 9.90769231,17.8692308 C9.72307692,16.9461538 9.72307692,16.0230769 9.72307692,15.1 Z M11.3846154,7.9 C12.2153846,6.33076923 13.3230769,5.40769231 14.5230769,5.22307692 L14.5230769,11.1307692 C13.0461538,11.1307692 11.5692308,11.2230769 10.0923077,11.3153846 C10.3692308,10.1153846 10.8307692,8.91538462 11.3846154,7.9 Z M8.98461538,11.4076923 C7.87692308,11.5 6.76923077,11.5923077 5.66153846,11.7769231 C6.30769231,10.0230769 7.41538462,8.36153846 8.89230769,7.25384615 C9.72307692,6.60769231 10.6461538,6.05384615 11.5692308,5.77692308 C11.2,6.23846154 10.8307692,6.79230769 10.4615385,7.34615385 C9.81538462,8.63846154 9.35384615,10.0230769 8.98461538,11.4076923 Z M14.5230769,19.1615385 L14.5230769,24.9769231 C13.4153846,24.7923077 12.3076923,23.8692308 11.3846154,22.3 C10.8307692,21.2846154 10.3692308,20.0846154 10.0923077,18.9769231 C11.5692308,19.0692308 13.0461538,19.0692308 14.5230769,19.1615385 Z M15.6307692,19.1615385 C17.1076923,19.1615385 18.5846154,19.0692308 20.0615385,18.9769231 C19.7846154,20.0846154 19.3230769,21.2846154 18.7692308,22.3 C17.9384615,23.8692308 16.7384615,24.7923077 15.6307692,24.9769231 L15.6307692,19.1615385 L15.6307692,19.1615385 Z M15.6307692,11.0384615 L15.6307692,5.13076923 C16.8307692,5.31538462 17.9384615,6.33076923 18.7692308,7.9 C19.3230769,8.91538462 19.7846154,10.1153846 20.0615385,11.2230769 C18.5846154,11.1307692 17.1076923,11.0384615 15.6307692,11.0384615 Z M21.3538462,17.6846154 C21.4461538,16.8538462 21.5384615,16.0230769 21.5384615,15.1 C21.5384615,14.2692308 21.5384615,13.3461538 21.3538462,12.5153846 C22.4615385,12.6076923 23.6615385,12.7923077 24.7692308,13.0692308 C25.0461538,14.4538462 25.0461538,15.8384615 24.7692308,17.2230769 C23.6615385,17.4076923 22.5538462,17.5923077 21.3538462,17.6846154 Z" id="path-1"></path>
    </defs>
    <g id="global" stroke="none" stroke-width="1" fill="none" fill-rule="evenodd">
        <mask id="mask-2" fill="white">
            <use xlink:href="#path-1"></use>
        </mask>
        <use id="Mask" fill="#F7931E" fill-rule="nonzero" xlink:href="#path-1"></use>
        <g id="palette/additional/lightblue" mask="url(#mask-2)" fill="#E21B23" fill-rule="nonzero">
            <g transform="translate(-59.000000, -38.000000)" id="color">
                <rect x="0" y="0" width="147" height="106"></rect>
            </g>
        </g>
    </g>
</svg>