<?xml version="1.0" encoding="UTF-8"?>
<svg width="30px" height="30px" viewBox="0 0 30 30" version="1.1" xmlns="http://www.w3.org/2000/svg" xmlns:xlink="http://www.w3.org/1999/xlink">
    <!-- Generator: Sketch 58 (84663) - https://sketch.com -->
    <title>gift</title>
    <desc>Created with Sketch.</desc>
    <defs>
        <path d="M24.9501027,9.9838909 L20.6701027,9.9838909 L20.7901027,9.9838909 C22.1773963,9.40749716 23.2513093,8.26441697 23.7401027,6.8438909 C23.8914915,6.18026729 23.7766003,5.48373945 23.4201027,4.9038909 C22.9799323,4.24131669 22.3634341,3.71486874 21.6401027,3.3838909 C20.7260592,2.89791708 19.636239,2.87196898 18.7001027,3.3138909 C17.4501027,3.8938909 16.3301027,5.3138909 15.3801027,7.4338909 C15.2101027,7.7938909 15.0701027,8.1538909 14.9501027,8.4338909 C14.8301027,8.1138909 14.6901027,7.7538909 14.5201027,7.4338909 C13.5701027,5.2838909 12.4501027,3.8938909 11.2001027,3.3138909 C10.2639664,2.87196898 9.17414623,2.89791708 8.26010271,3.3838909 C7.54056095,3.70665591 6.92445944,4.22238134 6.48010271,4.8738909 C6.12360516,5.45373945 6.00871397,6.15026729 6.16010271,6.8138909 C6.64156552,8.24576738 7.7164924,9.40085831 9.11010271,9.9838909 L9.23010271,9.9838909 L5.00010271,9.9838909 C3.89553321,9.9838909 3,10.8793214 3,11.9838909 L3,15.7638909 C2.99309652,16.4564719 3.34492189,17.1033766 3.93010271,17.4738909 C3.75947588,17.7795575 3.6699661,18.1238258 3.67010271,18.4738909 L3.67010271,24.8438909 C3.67010271,25.9484604 4.56553321,26.8438909 5.67010271,26.8438909 L24.2401027,26.8438909 C25.3446722,26.8438909 26.2401027,25.9484604 26.2401027,24.8438909 L26.2401027,18.5538909 C26.2402393,18.2038258 26.1507295,17.8595575 25.9801027,17.5538909 C26.5836618,17.1912763 26.9520795,16.5379996 26.9501027,15.8338909 L26.9501027,12.0538909 C26.9691004,11.5114363 26.7668036,10.9845574 26.389652,10.5942056 C26.0125005,10.2038537 25.4928897,9.98355834 24.9501027,9.9838909 Z M5.05010271,16.4838909 C4.67289757,16.4839305 4.36556945,16.1810564 4.36010271,15.8038909 L4.36010271,12.0538909 C4.36556945,11.6767254 4.67289757,11.3738909 5.05010271,11.3738909 L14.3201027,11.3738909 L14.3201027,16.5138909 L5.00010271,16.5138909 L5.05010271,16.4838909 Z M15.6301027,11.3738909 L24.9501027,11.3738909 C25.3273079,11.3738909 25.634636,11.6767254 25.6401027,12.0538909 L25.6401027,15.8338909 C25.634636,16.2110564 25.3273079,16.5138909 24.9501027,16.5138909 L15.6301027,16.5138909 L15.6301027,11.3738909 Z M19.2801027,4.5538909 C19.5263275,4.43342157 19.7960265,4.36855725 20.0701027,4.3638909 C20.4182906,4.36871894 20.7606061,4.45429779 21.0701027,4.6138909 C22.4101027,5.2738909 22.5501027,6.0038909 22.4401027,6.5038909 C22.0213692,7.52242985 21.2104967,8.32969841 20.1901027,8.7438909 C18.8653161,9.39548002 17.4238551,9.7762433 15.9501027,9.8638909 C16.4701027,8.1238909 17.6701027,5.3038909 19.2801027,4.5538909 Z M7.49010271,6.5538909 C7.38010271,6.0538909 7.49010271,5.3238909 8.86010271,4.6638909 C9.40292429,4.36180758 10.0579687,4.33947652 10.6201027,4.6038909 C12.2301027,5.3438909 13.4301027,8.1738909 13.9901027,9.9138909 C12.5094637,9.8119396 11.0643048,9.41409585 9.74010271,8.7438909 C8.7197087,8.32969841 7.90883626,7.52242985 7.49010271,6.5038909 L7.49010271,6.5538909 Z M4.95010271,24.9238909 L4.95010271,18.5538909 C4.95547485,18.1805851 5.25679694,17.879263 5.63010271,17.8738909 L14.2401027,17.8738909 L14.2401027,25.6038909 L5.66010271,25.6038909 C5.47538539,25.6092656 5.29623147,25.5403209 5.16277218,25.4125007 C5.02931288,25.2846806 4.95270273,25.1086681 4.95010271,24.9238909 L4.95010271,24.9238909 Z M24.8901027,24.9238909 C24.8847306,25.2971967 24.5834085,25.5985188 24.2101027,25.6038909 L15.6301027,25.6038909 L15.6301027,17.8738909 L24.2401027,17.8738909 C24.6134085,17.879263 24.9147306,18.1805851 24.9201027,18.5538909 L24.8901027,24.9238909 Z" id="path-1"></path>
    </defs>
    <g id="gift" stroke="none" stroke-width="1" fill="none" fill-rule="evenodd">
        <mask id="mask-2" fill="white">
            <use xlink:href="#path-1"></use>
        </mask>
        <use id="Mask" fill="#000000" fill-rule="nonzero" xlink:href="#path-1"></use>
        <g id="palette/additional/lightblue" mask="url(#mask-2)" fill="#E21B23" fill-rule="nonzero">
            <g transform="translate(-59.000000, -38.000000)" id="color">
                <rect x="0" y="0" width="147" height="106"></rect>
            </g>
        </g>
    </g>
</svg>