<?xml version="1.0" encoding="UTF-8"?>
<svg width="30px" height="30px" viewBox="0 0 30 30" version="1.1" xmlns="http://www.w3.org/2000/svg" xmlns:xlink="http://www.w3.org/1999/xlink">
    <!-- Generator: Sketch 58 (84663) - https://sketch.com -->
    <title>gift domestic</title>
    <desc>Created with Sketch.</desc>
    <defs>
        <path d="M16.2600019,3.2483257 C17.0160546,2.89726933 17.8926814,2.91946241 18.6300019,3.3083257 C19.9300019,3.9983257 20.5800019,4.9983257 20.3000019,6.0883257 C19.9768947,7.1040774 19.2550569,7.94501842 18.3000019,8.4183257 L18.3000019,8.4183257 L21.0600019,8.4183257 C21.998886,8.4183257 22.7600019,9.17944163 22.7600019,10.1183257 L22.7600019,10.1183257 L22.761299,11.8384255 C23.312899,12.0976875 23.8225176,12.4495396 24.266113,12.8843429 C25.3078326,13.9054159 25.8994741,15.299676 25.9100019,16.7583257 C25.9100019,18.3483257 25.1600019,20.3383257 23.6900019,22.6783257 C23.1331144,23.5632089 22.5300021,24.4179244 21.8832285,25.238939 L21.3900019,25.8483257 L20.3900019,26.9983257 L19.3900019,25.8483257 C18.550873,24.8461791 17.7823574,23.7869641 17.0900019,22.6783257 C16.8867319,22.354753 16.697229,22.0378727 16.5215727,21.7278169 L6.22000193,21.7283257 C5.28500927,21.7283257 4.52550188,20.9733022 4.52000193,20.0383257 L4.52000193,20.0383257 L4.52000193,15.1083257 C4.51800224,14.8517569 4.57622927,14.5982981 4.69000193,14.3683257 C4.25533382,14.0472787 3.99918955,13.5387023 4,12.9983257 L4,12.9983257 L4,10.1183257 C4,9.17944163 4.76111785,8.4183257 5.70000193,8.4183257 L5.70000193,8.4183257 L8.49000193,8.4183257 C7.53494694,7.94501842 6.81310916,7.1040774 6.49000193,6.0883257 C6.23000193,4.9983257 6.85000193,3.9983257 8.18000193,3.3083257 C8.91732248,2.91946241 9.79394923,2.89726933 10.5500019,3.2483257 C11.7827115,3.98737007 12.714311,5.13858621 13.1800019,6.4983257 L13.1800019,6.4983257 L13.4100019,7.0283257 C13.4700019,6.8583257 13.5500019,6.6783257 13.6300019,6.4983257 C14.0956928,5.13858621 15.0272923,3.98737007 16.2600019,3.2483257 Z M20.3600019,12.5982889 C19.7312501,12.5957132 19.1097155,12.7323142 18.5400019,12.9983257 C17.1274619,13.6397085 16.1946544,15.0103966 16.1067216,16.5477118 L16.1000019,16.7583257 L16.1337503,17.1128668 C16.2439311,18.0552843 16.5150992,18.9718326 16.9354152,19.8224942 L17.1000019,20.1383257 L17.3600019,20.6483257 L17.7400019,21.3183257 L17.9300019,21.6483257 C18.5379888,22.623055 19.2032499,23.5606235 19.9222104,24.4561175 L20.3600019,24.9883257 L20.4300019,24.8983257 L20.4787059,24.8463562 L20.4787059,24.8463562 L20.5200019,24.7883257 L20.5800019,24.7283257 L21.0400019,24.1383257 L21.1600019,23.9783257 L21.3600019,23.6983257 L21.5800019,23.4083257 L21.6300019,23.3383257 L21.7600019,23.1483257 C21.8800019,22.981659 22.0000019,22.8061035 22.1229649,22.624622 L22.3100019,22.3483257 L22.5300019,21.9983257 L22.6100019,21.9283257 C22.7433353,21.701659 22.8766686,21.4838813 23.004076,21.2631405 L23.1900019,20.9283257 L23.3100019,20.7083257 L23.3700019,20.5883257 C23.4400019,20.4683257 23.5000019,20.3483257 23.5600019,20.2183257 L23.6295061,20.0905778 L23.6295061,20.0905778 L23.6900019,19.9583257 L23.8000019,19.7383257 C23.8400019,19.6383257 23.9300019,19.5383257 23.9300019,19.4383257 C24.0951993,19.0544208 24.2354899,18.6602711 24.3500019,18.2583257 C24.4388143,17.9425124 24.5024961,17.6203427 24.5405346,17.2948347 L24.5700063,16.9683257 L24.5700063,16.7883257 L24.5638614,16.558067 C24.5092935,15.5638401 24.0933962,14.6205233 23.3900019,13.9083257 C23.2873193,13.7974693 23.1770535,13.6938862 23.0600019,13.5983257 C22.3041949,12.9602627 21.3490931,12.6065213 20.3600019,12.5982889 Z M21.1426312,9.71665544 L21.0600019,9.7083257 L14,9.7083257 L14,13.4483257 L16,13.4483257 C15.6978652,13.8440358 15.4490664,14.2777525 15.2600019,14.7383257 L15.2600019,14.7383257 L14.0500019,14.7383257 L14.0500019,20.4883257 L15.8755275,20.4874559 C15.2082052,19.0741312 14.8700019,17.8260409 14.8700019,16.7583257 C14.886529,13.7412315 17.3428828,11.3072488 20.3600019,11.3183257 C20.7353891,11.3135204 21.1072826,11.3472845 21.4703746,11.4174898 L21.4700019,10.1183257 C21.4700019,9.89188895 21.2864387,9.7083257 21.0600019,9.7083257 Z M12.7600019,14.7383257 L6.22000193,14.7383257 C6.10954104,14.7356307 6.00266834,14.7776344 5.92360185,14.8548183 C5.84453537,14.9320023 5.80000191,15.0378319 5.80000191,15.1483257 L5.80000191,15.1483257 L5.80000191,20.0783257 C5.8054331,20.3063709 5.99189211,20.4883904 6.22000193,20.4883257 L6.22000193,20.4883257 L12.7400019,20.4883257 L12.7600019,14.7383257 Z M21.442996,14.2337466 C22.5004946,14.6717769 23.1900019,15.7036975 23.1900019,16.8483257 C23.1900019,18.4112915 21.9229678,19.6783257 20.3600019,19.6783257 C19.2153738,19.6783257 18.1834531,18.9888183 17.7454228,17.9313198 C17.3073926,16.8738213 17.5495154,15.6565878 18.3588897,14.8472135 C19.1682641,14.0378392 20.3854975,13.7957164 21.442996,14.2337466 Z M20.3600019,15.2083257 C19.4542549,15.2083257 18.7200019,15.9425787 18.7200019,16.8483257 C18.7200019,17.7540727 19.4542549,18.4883257 20.3600019,18.4883257 C21.2657489,18.4883257 22.0000019,17.7540727 22.0000019,16.8483257 C21.9945427,15.9448497 21.263478,15.2137849 20.3600019,15.2083257 Z M12.7600019,9.7083257 L5.70000193,9.7083257 C5.47356518,9.7083257 5.29000193,9.89188895 5.29000193,10.1183257 L5.29000193,10.1183257 L5.29000193,12.9983257 C5.26575311,13.1200919 5.29798763,13.2462873 5.37766209,13.341508 C5.45733655,13.4367287 5.57586779,13.4907167 5.70000193,13.4883257 L5.70000193,13.4883257 L12.7400019,13.4883257 L12.7600019,9.7083257 Z M10.0100019,4.4083257 C9.60305915,4.22079939 9.13094213,4.23938667 8.74000193,4.4583257 C7.96000193,4.7983257 7.63000193,5.2883257 7.74000193,5.7983257 C8.05172436,6.55430275 8.65853141,7.15027396 9.42000193,7.4483257 C10.3843138,7.92057173 11.4294545,8.20561012 12.5000019,8.2883257 C12.3700019,7.9283257 12.2100019,7.4683257 12.0000019,6.9983257 C11.6398649,5.93946973 10.9403597,5.02905846 10.0100019,4.4083257 Z M17.3700019,4.2583257 C17.171947,4.26196258 16.9772054,4.30979383 16.8000019,4.3983257 C15.864168,5.01998668 15.1608172,5.93434273 14.8000019,6.9983257 C14.6000019,7.4783257 14.4300019,7.9283257 14.3100019,8.2683257 C15.3805493,8.18561012 16.4256901,7.90057173 17.3900019,7.4283257 C18.1514724,7.13027396 18.7582795,6.53430275 19.0700019,5.7783257 C19.1800019,5.2683257 18.8500019,4.8183257 18.0700019,4.4383257 C17.8532015,4.32637561 17.6139133,4.26484436 17.3700019,4.2583257 Z" id="path-1"></path>
    </defs>
    <g id="gift-domestic" stroke="none" stroke-width="1" fill="none" fill-rule="evenodd">
        <mask id="mask-2" fill="white">
            <use xlink:href="#path-1"></use>
        </mask>
        <use id="Mask" fill="#000000" fill-rule="nonzero" xlink:href="#path-1"></use>
        <g id="palette/additional/lightblue" mask="url(#mask-2)" fill="#E21B23" fill-rule="nonzero">
            <g transform="translate(-59.000000, -38.000000)" id="color">
                <rect x="0" y="0" width="147" height="106"></rect>
            </g>
        </g>
    </g>
</svg>