<?xml version="1.0" encoding="UTF-8"?>
<svg width="30px" height="30px" viewBox="0 0 30 30" version="1.1" xmlns="http://www.w3.org/2000/svg" xmlns:xlink="http://www.w3.org/1999/xlink">
    <!-- Generator: Sketch 58 (84663) - https://sketch.com -->
    <title>help</title>
    <desc>Created with Sketch.</desc>
    <defs>
        <path d="M15,3 C21.6,3 27,8.4 27,15 C27,21.6 21.6,27 15,27 C8.4,27 3,21.6 3,15 C3,8.4 8.4,3 15,3 Z M15,4.4 C9.2,4.4 4.4,9.2 4.5,15 C4.5,20.8 9.3,25.6 15.1,25.5 C20.9,25.5 25.6,20.8 25.6,14.9 C25.6,9.1 20.9,4.4 15,4.4 Z M14.6,18.4 C14.9313708,18.4 15.2,18.6686292 15.2,19 C15.2,19.3313708 14.9313708,19.6 14.6,19.6 C14.2686292,19.6 14,19.3313708 14,19 C14,18.6686292 14.2686292,18.4 14.6,18.4 Z M15.4,10.3 C16.5,10.3 17.2,10.5 17.6,10.8 C18,11.1 18.2,11.8 18.2,12.8 C18.2,14.2 17.8,15.1 16.9,15.4 L16,15.5 C15.4,15.7 15.1,16.1 15.1,16.6 L15.1,16.9 L14.1,16.9 L14.1,16.7 C14.1,16.1 14.2,15.6 14.4,15.4 C14.6,15.2 15,14.9 15.6,14.7 L16.2,14.5 C16.8,14.3 17.1,13.7 17.1,12.9 C17.1,12.1 17,11.6 16.8,11.5 C16.6,11.3 16.1,11.2 15.2,11.2 C14.3,11.2 13.8,11.3 13.6,11.5 C13.4,11.7 13.3,12.2 13.3,13 L13.3,13.3 L12.3,13.3 L12.3,13 C12.3,11.9 12.5,11.2 12.9,10.8 C13.3,10.4 14.1,10.3 15.4,10.3 Z" id="path-1"></path>
    </defs>
    <g id="help" stroke="none" stroke-width="1" fill="none" fill-rule="evenodd">
        <mask id="mask-2" fill="white">
            <use xlink:href="#path-1"></use>
        </mask>
        <use id="Mask" fill="#2A2825" fill-rule="nonzero" xlink:href="#path-1"></use>
        <g id="palette/additional/lightblue" mask="url(#mask-2)" fill="#E21B23" fill-rule="nonzero">
            <g transform="translate(-59.000000, -38.000000)" id="color">
                <rect x="0" y="0" width="147" height="106"></rect>
            </g>
        </g>
    </g>
</svg>