<?xml version="1.0" encoding="UTF-8"?>
<svg width="30px" height="30px" viewBox="0 0 30 30" version="1.1" xmlns="http://www.w3.org/2000/svg" xmlns:xlink="http://www.w3.org/1999/xlink">
    <!-- Generator: Sketch 58 (84663) - https://sketch.com -->
    <title>info_2</title>
    <desc>Created with Sketch.</desc>
    <defs>
        <path d="M24.9829061,8.34051344 C28.1604204,13.1023207 27.5319217,19.4455553 23.4817467,23.4912305 C21.2293815,25.7410934 18.1753023,27.0037339 14.9917467,27.0012342 C9.267117,26.996729 4.34278512,22.9491876 3.23005667,17.3337409 C2.11732822,11.7182943 5.12608387,6.09877249 10.4164227,3.91160061 C15.7067615,1.72442873 21.8053918,3.57870618 24.9829061,8.34051344 Z M14.9917467,4.26123053 C9.06020851,4.26123053 4.25174673,9.06969231 4.25174673,15.0012305 C4.25174673,20.9327687 9.06020851,25.7412305 14.9917467,25.7412305 C20.9232849,25.7412305 25.7317467,20.9327687 25.7317467,15.0012305 C25.7262337,9.07197738 20.9209999,4.26674355 14.9917467,4.26123053 Z M15.2617467,12.0012305 C15.6117467,12.0012305 15.7817467,12.2312305 15.7817467,12.7012305 C15.7857831,12.7745083 15.7857831,12.8479527 15.7817467,12.9212305 L15.7817467,19.1612305 L15.7817467,19.1612305 C15.8417467,19.7012305 16.0017467,19.9712305 16.2617467,19.9712305 C16.4140216,19.9540078 16.5645612,19.9238999 16.7117467,19.8812305 C16.801246,19.8678046 16.8922474,19.8678046 16.9817467,19.8812305 C17.4417467,19.8812305 17.6717467,20.0812305 17.6717467,20.4712305 C17.6678489,20.6429907 17.5824517,20.8026463 17.4417467,20.9012305 C17.2785684,21.0258986 17.0769288,21.0895743 16.8717467,21.0812305 L13.0817467,21.0812305 C12.6017467,21.0812305 12.3617467,20.8812305 12.3617467,20.4712305 C12.3617467,20.0612305 12.5717467,19.8812305 12.9817467,19.8812305 C13.126429,19.8828957 13.2705426,19.8996531 13.4117467,19.9312305 C13.5494629,19.9648385 13.6901289,19.9849337 13.8317467,19.9912305 C14.1217467,19.9912305 14.3017467,19.6012305 14.3617467,18.8312305 L14.3617467,14.1412305 C14.3017467,13.3912305 14.1217467,13.0112305 13.8217467,13.0112305 C13.6833086,13.0163028 13.5458331,13.0364212 13.4117467,13.0712305 C13.2851492,13.1106328 13.1541449,13.1341464 13.0217467,13.1412305 C12.5817467,13.1412305 12.3617467,12.9512305 12.3617467,12.5612305 C12.3617467,12.1712305 12.6317467,12.0012305 13.1517467,12.0012305 L15.2617467,12.0012305 Z M14.7717467,9.00123053 C15.0388792,8.99256302 15.2970709,9.09802161 15.4817467,9.29123053 C15.6781629,9.4702772 15.7875516,9.72551769 15.7817467,9.99123053 C15.7806373,10.2584764 15.6726024,10.5141591 15.4817467,10.7012305 C15.2988448,10.8981247 15.0404163,11.0073198 14.7717467,11.0012305 C14.5045008,11.0001211 14.2488182,10.8920862 14.0617467,10.7012305 C13.8770026,10.5149699 13.7728513,10.2635704 13.7717467,10.0012305 C13.7728513,9.73889065 13.8770026,9.48749117 14.0617467,9.30123053 C14.2488182,9.11037488 14.5045008,9.00233995 14.7717467,9.00123053 Z" id="path-1"></path>
    </defs>
    <g id="info_2" stroke="none" stroke-width="1" fill="none" fill-rule="evenodd">
        <mask id="mask-2" fill="white">
            <use xlink:href="#path-1"></use>
        </mask>
        <use id="Mask" fill="#2A2825" fill-rule="nonzero" xlink:href="#path-1"></use>
        <g id="palette/additional/lightblue" mask="url(#mask-2)" fill="#E21B23" fill-rule="nonzero">
            <g transform="translate(-59.000000, -38.000000)" id="color">
                <rect x="0" y="0" width="147" height="106"></rect>
            </g>
        </g>
    </g>
</svg>