<?xml version="1.0" encoding="UTF-8"?>
<svg width="30px" height="30px" viewBox="0 0 30 30" version="1.1" xmlns="http://www.w3.org/2000/svg" xmlns:xlink="http://www.w3.org/1999/xlink">
    <!-- Generator: Sketch 58 (84663) - https://sketch.com -->
    <title>incoming videocall_filled</title>
    <desc>Created with Sketch.</desc>
    <defs>
        <path d="M24.75,6.44764012 C25.1077069,6.02980331 25.6923637,5.88721004 26.202276,6.09344123 C26.7121883,6.29967243 27.0333357,6.80861319 27,7.35764012 L27,7.35764012 L27,23.5376401 C27.0333357,24.086667 26.7121883,24.5956078 26.202276,24.801839 C25.6923637,25.0080702 25.1077069,24.8654769 24.75,24.4476401 L24.75,24.4476401 L20.63,19.5776401 L20.63,11.3176401 L20.8,11.1276401 Z M17.82,7.38760517 L17.82,23.44768 L4.51,23.44768 C3.69683736,23.4535125 3.02708492,22.8103728 3,21.9976401 L3,21.9976401 L3,8.86764012 C3.01097571,8.04312362 3.68542927,7.3820698 4.51,7.38760517 L4.51,7.38760517 L17.82,7.38760517 Z M12.255,10.8217562 C12.1593055,10.8217562 12.0675487,10.8598565 12,10.9276401 L12,10.9276401 L9,13.9276401 L7.45,12.4476401 C7.31494744,12.3089647 7.11091335,12.2627932 6.92931349,12.3298121 C6.74771363,12.3968311 6.62258875,12.5644781 6.61,12.7576401 L6.61,12.7576401 L6.47,18.8876401 C6.46712575,19.0228636 6.52027312,19.1532612 6.61685436,19.2479487 C6.7134356,19.3426362 6.84485992,19.3931912 6.98,19.3876401 L6.98,19.3876401 L13.1,19.2076401 C13.298564,19.2064569 13.4767832,19.0855548 13.5512843,18.9014933 C13.6257853,18.7174317 13.5818375,18.5066048 13.44,18.3676401 L13.44,18.3676401 L11.94,16.8676401 L14.94,13.8676401 C15.0103592,13.8014916 15.0502606,13.7092116 15.0502606,13.6126401 C15.0502606,13.5160687 15.0103592,13.4237886 14.94,13.3576401 L14.94,13.3576401 L12.51,10.9276401 C12.4424513,10.8598565 12.3506945,10.8217562 12.255,10.8217562 Z" id="path-1"></path>
    </defs>
    <g id="incoming-videocall_filled" stroke="none" stroke-width="1" fill="none" fill-rule="evenodd">
        <mask id="mask-2" fill="white">
            <use xlink:href="#path-1"></use>
        </mask>
        <use id="Mask" fill="#000000" xlink:href="#path-1"></use>
        <g id="palette/additional/lightblue" mask="url(#mask-2)" fill="#E21B23" fill-rule="nonzero">
            <g transform="translate(-59.000000, -38.000000)" id="color">
                <rect x="0" y="0" width="147" height="106"></rect>
            </g>
        </g>
    </g>
</svg>