<?xml version="1.0" encoding="UTF-8"?>
<svg width="30px" height="30px" viewBox="0 0 30 30" version="1.1" xmlns="http://www.w3.org/2000/svg" xmlns:xlink="http://www.w3.org/1999/xlink">
    <!-- Generator: Sketch 58 (84663) - https://sketch.com -->
    <title>info_1</title>
    <desc>Created with Sketch.</desc>
    <defs>
        <path d="M24.9829061,8.34051344 C28.1604204,13.1023207 27.5319217,19.4455553 23.4817467,23.4912305 C21.2293815,25.7410934 18.1753023,27.0037339 14.9917467,27.0012342 C9.267117,26.996729 4.34278512,22.9491876 3.23005667,17.3337409 C2.11732822,11.7182943 5.12608387,6.09877249 10.4164227,3.91160061 C15.7067615,1.72442873 21.8053918,3.57870618 24.9829061,8.34051344 Z M14.9917467,4.26123053 C9.06020851,4.26123053 4.25174673,9.06969231 4.25174673,15.0012305 C4.25174673,20.9327687 9.06020851,25.7412305 14.9917467,25.7412305 C20.9232849,25.7412305 25.7317467,20.9327687 25.7317467,15.0012305 C25.7262337,9.07197738 20.9209999,4.26674355 14.9917467,4.26123053 Z M14.9917467,18.8312223 C15.2733193,18.8300876 15.5423259,18.9477065 15.7326792,19.1551916 C15.9230324,19.3626766 16.0170908,19.6407986 15.9917467,19.9212305 C15.9917467,20.4956067 15.5261229,20.9612305 14.9517467,20.9612305 C14.3773706,20.9612305 13.9117467,20.4956067 13.9117467,19.9212305 L13.9917467,19.9212305 C13.9664027,19.6407986 14.060461,19.3626766 14.2508143,19.1551916 C14.4411675,18.9477065 14.7101742,18.8300876 14.9917467,18.8312223 Z M15.8317467,9.00123053 L15.5917467,17.4012305 L14.4317467,17.4012305 L14.1517467,9.00123053 L15.8317467,9.00123053 Z" id="path-1"></path>
    </defs>
    <g id="info_1" stroke="none" stroke-width="1" fill="none" fill-rule="evenodd">
        <mask id="mask-2" fill="white">
            <use xlink:href="#path-1"></use>
        </mask>
        <use id="Mask" fill="#2A2825" fill-rule="nonzero" xlink:href="#path-1"></use>
        <g id="palette/additional/lightblue" mask="url(#mask-2)" fill="#E21B23" fill-rule="nonzero">
            <g transform="translate(-59.000000, -38.000000)" id="color">
                <rect x="0" y="0" width="147" height="106"></rect>
            </g>
        </g>
    </g>
</svg>