<?xml version="1.0" encoding="UTF-8"?>
<svg width="30px" height="30px" viewBox="0 0 30 30" version="1.1" xmlns="http://www.w3.org/2000/svg" xmlns:xlink="http://www.w3.org/1999/xlink">
    <!-- Generator: Sketch 58 (84663) - https://sketch.com -->
    <title>incoming_filled</title>
    <desc>Created with Sketch.</desc>
    <defs>
        <path d="M6.31019062,3.69633348 C6.7493584,3.28515064 7.43861982,3.30752926 7.85019062,3.74633348 L7.85019062,3.74633348 L11.0801906,7.46633348 C11.4514927,7.90875249 11.4514927,8.55391447 11.0801906,8.99633348 L11.0801906,8.99633348 L9.92019062,10.3663335 C8.82019062,11.4963335 9.57019062,14.0863335 12.5701906,17.1463335 C15.5701906,20.2063335 18.1201906,20.9863335 19.2201906,19.8563335 L19.2201906,19.8563335 L20.6201906,18.6763335 C21.041239,18.2887405 21.6891422,18.2887405 22.1101906,18.6763335 L22.1101906,18.6763335 L25.7001906,21.9963335 C26.1282521,22.4311149 26.1542677,23.120528 25.7601906,23.5863335 L25.7601906,23.5863335 L23.7601906,26.2663335 C21.7001906,28.3463335 15.1601906,25.8763335 9.62019062,20.2063335 C4.08019062,14.5363335 1.70019062,7.81633348 3.70019062,5.72633348 L3.70019062,5.72633348 Z M21.9401906,3.15633348 C22.1506465,2.94788884 22.4897347,2.94788884 22.7001906,3.15633348 L22.7001906,3.15633348 L26.2701906,6.84633348 C26.4810298,7.06359006 26.4810298,7.4090769 26.2701906,7.62633348 L26.2701906,7.62633348 L21.8201906,12.1763335 L24.0301906,14.4563335 C24.2334333,14.6663266 24.29619,14.9752524 24.190994,15.2479033 C24.085798,15.5205542 23.8318091,15.707271 23.5401906,15.7263335 L23.5401906,15.7263335 L14.4501906,16.0064097 C14.2468905,16.0092491 14.0513467,15.9283877 13.909481,15.7827389 C13.7676154,15.6370901 13.691927,15.4394865 13.7001906,15.2363335 L13.7001906,15.2363335 L13.9801906,5.93633348 C13.9811404,5.64051822 14.1605197,5.37451976 14.4344166,5.26276982 C14.7083136,5.15101987 15.0225744,5.21561315 15.2301906,5.42633348 L15.2301906,5.42633348 L17.4601906,7.70633348 Z" id="path-1"></path>
    </defs>
    <g id="incoming_filled" stroke="none" stroke-width="1" fill="none" fill-rule="evenodd">
        <mask id="mask-2" fill="white">
            <use xlink:href="#path-1"></use>
        </mask>
        <use id="Mask" fill="#000000" xlink:href="#path-1"></use>
        <g id="palette/additional/lightblue" mask="url(#mask-2)" fill="#E21B23" fill-rule="nonzero">
            <g transform="translate(-59.000000, -38.000000)" id="color">
                <rect x="0" y="0" width="147" height="106"></rect>
            </g>
        </g>
    </g>
</svg>