<?xml version="1.0" encoding="UTF-8"?>
<svg width="30px" height="30px" viewBox="0 0 30 30" version="1.1" xmlns="http://www.w3.org/2000/svg" xmlns:xlink="http://www.w3.org/1999/xlink">
    <!-- Generator: Sketch 58 (84663) - https://sketch.com -->
    <title>keypad</title>
    <desc>Created with Sketch.</desc>
    <defs>
        <path d="M14.8,20.4 C16.5,20.4 17.9,21.8 17.9,23.5 C17.9,25.2 16.5,26.6 14.8,26.6 C13.1,26.6 11.7,25.2 11.7,23.5 C11.7,21.8 13.1,20.4 14.8,20.4 Z M6.1,20.4 C7.8,20.4 9.2,21.8 9.2,23.5 C9.2,25.2 7.8,26.6 6.1,26.6 C4.4,26.6 3,25.2 3,23.5 C3,21.8 4.4,20.4 6.1,20.4 Z M23.5,20.4 C25.2,20.4 26.6,21.8 26.6,23.5 C26.6,25.2 25.2,26.6 23.5,26.6 C21.8,26.6 20.4,25.2 20.4,23.5 C20.4,21.8 21.8,20.4 23.5,20.4 Z M14.8,21.6 C13.8,21.6 12.9,22.4 12.9,23.5 C12.9,24.5 13.7,25.4 14.8,25.4 C15.8,25.4 16.7,24.6 16.7,23.5 C16.7,22.5 15.8,21.6 14.8,21.6 Z M6.1,21.6 C5.1,21.6 4.2,22.4 4.2,23.5 C4.2,24.5 5,25.4 6.1,25.4 C7.2,25.4 8,24.6 8,23.5 C8,22.5 7.1,21.6 6.1,21.6 Z M23.5,21.6 C22.5,21.6 21.6,22.4 21.6,23.5 C21.6,24.5 22.4,25.4 23.5,25.4 C24.5,25.4 25.4,24.6 25.4,23.5 C25.4,22.5 24.6,21.6 23.5,21.6 Z M14.8,11.7 C16.5,11.7 17.9,13.1 17.9,14.8 C17.9,16.5 16.5,17.9 14.8,17.9 C13.1,17.9 11.7,16.5 11.7,14.8 C11.7,13.1 13.1,11.7 14.8,11.7 Z M6.1,11.7 C7.8,11.7 9.2,13.1 9.2,14.8 C9.2,16.5 7.8,17.9 6.1,17.9 C4.4,17.9 3,16.5 3,14.8 C3,13.1 4.4,11.7 6.1,11.7 Z M23.5,11.7 C25.2,11.7 26.6,13.1 26.6,14.8 C26.6,16.5 25.2,17.9 23.5,17.9 C21.8,17.9 20.4,16.5 20.4,14.8 C20.4,13.1 21.8,11.7 23.5,11.7 Z M14.8,12.9 C13.8,12.9 12.9,13.7 12.9,14.8 C12.9,15.8 13.7,16.7 14.8,16.7 C15.8,16.7 16.7,15.9 16.7,14.8 C16.7,13.8 15.8,12.9 14.8,12.9 Z M6.1,12.9 C5.1,12.9 4.2,13.7 4.2,14.8 C4.2,15.8 5,16.7 6.1,16.7 C7.2,16.7 8,15.8 8,14.8 C8,13.8 7.1,12.9 6.1,12.9 Z M23.5,12.9 C22.5,12.9 21.6,13.7 21.6,14.8 C21.6,15.8 22.4,16.7 23.5,16.7 C24.5,16.7 25.4,15.9 25.4,14.8 C25.4,13.8 24.6,12.9 23.5,12.9 Z M14.8,3 C16.5,3 17.9,4.4 17.9,6.1 C17.9,7.8 16.5,9.2 14.8,9.2 C13.1,9.2 11.7,7.8 11.7,6.1 C11.7,4.4 13.1,3 14.8,3 Z M6.1,3 C7.8,3 9.2,4.4 9.2,6.1 C9.2,7.8 7.8,9.2 6.1,9.2 C4.4,9.2 3,7.8 3,6.1 C3,4.4 4.4,3 6.1,3 Z M23.5,3 C25.2,3 26.6,4.4 26.6,6.1 C26.6,7.8 25.2,9.2 23.5,9.2 C21.8,9.2 20.4,7.8 20.4,6.1 C20.4,4.4 21.8,3 23.5,3 Z M14.8,4.2 C13.8,4.2 12.9,5 12.9,6.1 C12.9,7.2 13.8,8 14.8,8 C15.8,8 16.7,7.2 16.7,6.1 C16.7,5 15.8,4.2 14.8,4.2 Z M6.1,4.2 C5.1,4.2 4.2,5 4.2,6.1 C4.2,7.2 5,8 6.1,8 C7.2,8 8,7.2 8,6.1 C8,5 7.1,4.2 6.1,4.2 Z M23.5,4.2 C22.5,4.2 21.6,5 21.6,6.1 C21.6,7.2 22.4,8 23.5,8 C24.5,8 25.4,7.2 25.4,6.1 C25.4,5 24.6,4.2 23.5,4.2 Z" id="path-1"></path>
    </defs>
    <g id="keypad" stroke="none" stroke-width="1" fill="none" fill-rule="evenodd">
        <mask id="mask-2" fill="white">
            <use xlink:href="#path-1"></use>
        </mask>
        <use id="Mask" fill="#2A2825" fill-rule="nonzero" xlink:href="#path-1"></use>
        <g id="palette/additional/lightblue" mask="url(#mask-2)" fill="#E21B23" fill-rule="nonzero">
            <g transform="translate(-59.000000, -38.000000)" id="color">
                <rect x="0" y="0" width="147" height="106"></rect>
            </g>
        </g>
    </g>
</svg>