<?xml version="1.0" encoding="UTF-8"?>
<svg width="30px" height="30px" viewBox="0 0 30 30" version="1.1" xmlns="http://www.w3.org/2000/svg" xmlns:xlink="http://www.w3.org/1999/xlink">
    <!-- Generator: Sketch 58 (84663) - https://sketch.com -->
    <title>location</title>
    <desc>Created with Sketch.</desc>
    <defs>
        <path d="M15.4,3 C20.1,3 23.8,6.7 23.8,11.3 C23.8,13.8 22.7,16.8 20.4,20.4 C19.4,22.1 18.2,23.7 16.9,25.2 L16.9,25.2 L15.4,27 L13.9,25.2 C12.6,23.7 11.5,22.1 10.4,20.4 C8.1,16.8 7,13.7 7,11.3 L7,11.3 L7.00924211,11.0453882 C7.23734568,6.56423182 10.8851852,3 15.4,3 Z M15.4,5 C14.5,5 13.5,5.2 12.6,5.6 C10.4,6.6 9,8.9 9,11.3 L9,11.3 L9.03017751,11.7152936 C9.17928994,13.3757396 9.66923077,15.0230769 10.5,16.5 L10.5,16.5 L10.9,17.3 L11.8,18.8 C12.9,20.6 14.1,22.3 15.4,23.9 L15.4,23.9 L15.5,23.8 L15.6,23.6 L15.7,23.5 L16.4,22.6 L16.6,22.4 L16.9,22 L17.3,21.6 L18.3,20.1 C18.4,20 18.5,19.8 18.6,19.6 L18.6,19.6 L18.7,19.4 L18.7,19.4 L19.6,17.9 L19.8,17.6 C19.8,17.5 19.9,17.5 19.9,17.4 L19.9,17.4 L20.6,16 C20.7,15.8 20.7,15.6 20.8,15.5 C21.1,14.9 21.3,14.3 21.5,13.7 C21.6,13 21.8,12.4 21.8,11.7 L21.8,11.7 L21.8,11.4 L21.7927946,11.1177285 C21.716263,9.61314879 21.0352941,8.12941176 20,7 C19.9,6.8 19.7,6.6 19.5,6.5 C18.4,5.5 16.9,5 15.4,5 Z M15.5,7.1 C17.9,7.1 19.8,9.1 19.8,11.4 C19.8,13.9 17.8,15.8 15.4,15.8 C13,15.8 11.1,13.8 11.1,11.4 C11.1,9 13.1,7.1 15.5,7.1 Z M15.4,9 C14.1,9 12.9,10.1 12.9,11.5 C12.9,12.9 14.1,14 15.4,14 C16.648,14 17.80384,12.98624 17.8943104,11.6665088 L17.9,11.5 C17.9,10.1 16.8,9 15.4,9 Z" id="path-1"></path>
    </defs>
    <g id="location" stroke="none" stroke-width="1" fill="none" fill-rule="evenodd">
        <mask id="mask-2" fill="white">
            <use xlink:href="#path-1"></use>
        </mask>
        <use id="Mask" fill="#000000" fill-rule="nonzero" xlink:href="#path-1"></use>
        <g id="palette/additional/lightblue" mask="url(#mask-2)" fill="#E21B23" fill-rule="nonzero">
            <g transform="translate(-59.000000, -38.000000)" id="color">
                <rect x="0" y="0" width="147" height="106"></rect>
            </g>
        </g>
    </g>
</svg>