<?xml version="1.0" encoding="UTF-8"?>
<svg width="30px" height="30px" viewBox="0 0 30 30" version="1.1" xmlns="http://www.w3.org/2000/svg" xmlns:xlink="http://www.w3.org/1999/xlink">
    <!-- Generator: Sketch 58 (84663) - https://sketch.com -->
    <title>lock 2</title>
    <desc>Created with Sketch.</desc>
    <defs>
        <path d="M25.46,11.15 L25.46,27 L5,27 L5,11.15 L25.46,11.15 Z M24.33,12.28 L6.13,12.28 L6.13,25.87 L24.33,25.87 L24.33,12.28 Z M15.23,3 C18.1239721,3 20.47,5.34602791 20.47,8.24 L20.47,10.06 L19.33,10.06 L19.33,8.23 C19.33,5.96563253 17.4943675,4.13 15.23,4.13 C13.0342497,4.13 11.2416442,5.85606768 11.1350177,8.02536865 L11.13,8.23 L11.13,10.06 L9.99,10.06 L9.99,8.24 C9.99,5.34602791 12.3360279,3 15.23,3 Z" id="path-1"></path>
    </defs>
    <g id="lock-2" stroke="none" stroke-width="1" fill="none" fill-rule="evenodd">
        <mask id="mask-2" fill="white">
            <use xlink:href="#path-1"></use>
        </mask>
        <use id="Mask" fill="#000000" fill-rule="nonzero" xlink:href="#path-1"></use>
        <g id="palette/additional/lightblue" mask="url(#mask-2)" fill="#E21B23" fill-rule="nonzero">
            <g transform="translate(-59.000000, -38.000000)" id="color">
                <rect x="0" y="0" width="147" height="106"></rect>
            </g>
        </g>
    </g>
</svg>