<?xml version="1.0" encoding="UTF-8"?>
<svg width="30px" height="30px" viewBox="0 0 30 30" version="1.1" xmlns="http://www.w3.org/2000/svg" xmlns:xlink="http://www.w3.org/1999/xlink">
    <!-- Generator: Sketch 58 (84663) - https://sketch.com -->
    <title>br mobile activation</title>
    <desc>Created with Sketch.</desc>
    <defs>
        <path d="M21.21,3 C21.8270331,2.99736193 22.4197064,3.24061517 22.856956,3.67598817 C23.2504807,4.06782387 23.4889266,4.58622095 23.5326805,5.13580329 L23.54,5.32002158 L23.54,24.6800216 C23.54,25.2970604 23.2942056,25.888682 22.856956,26.324055 C22.4634314,26.7158907 21.9440135,26.9521094 21.3942481,26.9935116 L21.21,27.0000432 L9.33,27.0000432 C8.71296694,27.0026812 8.12029359,26.759428 7.68304398,26.324055 C7.28951933,25.9322193 7.05107343,25.4138222 7.00731949,24.8642399 L7,24.6800216 L7,5.32002158 C7,4.70298279 7.24579437,4.11136117 7.68304398,3.67598817 C8.07656863,3.28415247 8.59598651,3.04793378 9.14575194,3.00653155 L9.33,3 L21.21,3 Z M22.139,22.66 L8.399,22.66 L8.4,24.6800216 C8.4,25.1569589 8.75901738,25.5500432 9.22154235,25.6037648 L9.33,25.6100216 L21.21,25.6100216 C21.6869373,25.6100216 22.0800217,25.2510042 22.1337432,24.7884792 L22.14,24.6800216 L22.139,22.66 Z M22.139,8.74 L8.399,8.74 L8.399,21.27 L22.139,21.27 L22.139,8.74 Z M19.13,11.2400034 C19.2096568,11.2390221 19.2841586,11.2793135 19.3269277,11.3465221 C19.3696969,11.4137308 19.3746424,11.4982852 19.34,11.5700216 L15.81,18.5700216 C15.7711766,18.6504515 15.6893028,18.7011353 15.6,18.7000216 L14.66,18.7000216 C14.5878782,18.7088462 14.5153542,18.687089 14.46,18.6400216 L12.38,15.3800216 C12.3191425,15.3097462 12.3065741,15.2097453 12.3481487,15.1265959 C12.3897234,15.0434466 12.4772652,14.9935008 12.57,15.0000216 L13.2,15.0000216 C13.2755439,15.0015872 13.3459395,15.0386376 13.39,15.1000216 L15.05,17.5200216 L18.2,11.3700216 C18.2372303,11.2928024 18.314316,11.2426967 18.4,11.2400034 L19.13,11.2400034 Z M21.21,4.39002158 L9.33,4.39002158 C8.85306267,4.39002158 8.45997834,4.74903896 8.40625679,5.21156394 L8.4,5.32002158 L8.399,7.35 L22.139,7.35 L22.14,5.32002158 C22.14,4.84308425 21.7809826,4.44999992 21.3184576,4.39627837 L21.21,4.39002158 Z" id="path-1"></path>
    </defs>
    <g id="br-mobile-activation" stroke="none" stroke-width="1" fill="none" fill-rule="evenodd">
        <mask id="mask-2" fill="white">
            <use xlink:href="#path-1"></use>
        </mask>
        <use id="Mask" fill="#000000" fill-rule="nonzero" xlink:href="#path-1"></use>
        <g id="palette/additional/lightblue" mask="url(#mask-2)" fill="#E21B23" fill-rule="nonzero">
            <g transform="translate(-59.000000, -38.000000)" id="color">
                <rect x="0" y="0" width="147" height="106"></rect>
            </g>
        </g>
    </g>
</svg>