<?xml version="1.0" encoding="UTF-8"?>
<svg width="30px" height="30px" viewBox="0 0 30 30" version="1.1" xmlns="http://www.w3.org/2000/svg" xmlns:xlink="http://www.w3.org/1999/xlink">
    <!-- Generator: Sketch 58 (84663) - https://sketch.com -->
    <title>message</title>
    <desc>Created with Sketch.</desc>
    <defs>
        <path d="M18.7250504,4 C23.3200595,4 27.0450504,7.72517068 27.0450504,12.3201798 C27.0450504,16.9151889 23.3200595,20.6401798 18.7250504,20.6401798 L13.1950504,20.6401798 L7.46505036,25.3401798 C7.1952863,25.5470412 6.86499713,25.6594801 6.52505036,25.6601798 C6.20248055,25.6576536 5.8884125,25.5564539 5.62505036,25.3701798 C5.11347996,25.0101456 4.87434967,24.3801531 5.00763562,23.7784071 L5.04505036,23.6401798 L6.66505036,19.2001798 C3.62708536,17.1518797 2.28913754,13.3555998 3.37151662,9.85513976 C4.45389571,6.35467975 7.7011468,3.97619162 11.3650504,4 L18.7250504,4 Z M4.32848455,10.3563837 C3.46385824,13.4972224 4.88019913,16.8193498 7.74505036,18.3701798 L8.18505036,18.6401798 L6.22505036,24.0201798 C6.19035758,24.1441914 6.23867711,24.2765105 6.34512069,24.3489828 C6.45156427,24.421455 6.59238539,24.4179124 6.69505036,24.3401798 L12.7650504,19.3401798 L18.7650504,19.3401798 C22.6641807,19.3401797 25.8250503,16.1793101 25.8250503,12.2801798 C25.8250503,8.3810495 22.6641807,5.22017986 18.7650504,5.2201798 L11.3650504,5.2201798 C8.11012649,5.08632642 5.19311086,7.21554507 4.32848455,10.3563837 Z M20.3650504,14.6901798 C20.7129898,14.6901798 20.9950504,14.9722404 20.9950504,15.3201798 C20.9950504,15.6681192 20.7129898,15.9501798 20.3650504,15.9501798 L9.72505036,15.9501798 C9.37711097,15.9501798 9.09505036,15.6681192 9.09505036,15.3201798 C9.09505036,14.9722404 9.37711097,14.6901798 9.72505036,14.6901798 L20.3650504,14.6901798 Z M20.3650504,11.5701798 C20.5321367,11.5701798 20.6923797,11.6365546 20.8105276,11.7547025 C20.9286756,11.8728504 20.9950504,12.0330934 20.9950504,12.2001798 C20.9950504,12.5481192 20.7129898,12.8301798 20.3650504,12.8301798 L9.72505036,12.8301798 C9.37711097,12.8301798 9.09505036,12.5481192 9.09505036,12.2001798 C9.09505036,12.0330934 9.16142517,11.8728504 9.27957309,11.7547025 C9.39772101,11.6365546 9.55796397,11.5701798 9.72505036,11.5701798 L20.3650504,11.5701798 Z M20.9761459,8.86753659 C21.1069717,9.07362304 21.1069717,9.33673655 20.9761459,9.542823 C20.8453202,9.74890945 20.6072175,9.86087299 20.3650504,9.8301798 L9.72505036,9.8301798 C9.48288321,9.86087299 9.24478053,9.74890945 9.11395478,9.542823 C8.98312902,9.33673655 8.98312902,9.07362304 9.11395478,8.86753659 C9.24478053,8.66145014 9.48288321,8.5494866 9.72505036,8.5801798 L20.3650504,8.5801798 C20.6072175,8.5494866 20.8453202,8.66145014 20.9761459,8.86753659 Z" id="path-1"></path>
    </defs>
    <g id="message" stroke="none" stroke-width="1" fill="none" fill-rule="evenodd">
        <mask id="mask-2" fill="white">
            <use xlink:href="#path-1"></use>
        </mask>
        <use id="Mask" fill="#000000" fill-rule="nonzero" xlink:href="#path-1"></use>
        <g id="palette/additional/lightblue" mask="url(#mask-2)" fill="#E21B23" fill-rule="nonzero">
            <g transform="translate(-59.000000, -38.000000)" id="color">
                <rect x="0" y="0" width="147" height="106"></rect>
            </g>
        </g>
    </g>
</svg>