<?xml version="1.0" encoding="UTF-8"?>
<svg width="30px" height="30px" viewBox="0 0 30 30" version="1.1" xmlns="http://www.w3.org/2000/svg" xmlns:xlink="http://www.w3.org/1999/xlink">
    <!-- Generator: Sketch 58 (84663) - https://sketch.com -->
    <title>manage store</title>
    <desc>Created with Sketch.</desc>
    <defs>
        <path d="M25.7300302,14.34 L26.5400302,15.15 C27.0065904,15.6176044 27.1448117,16.3205587 26.8900302,16.93 C26.6366755,17.5325555 26.2583432,18.0744909 25.7800302,18.52 L24.8600302,19.43 L24.846,19.415 L21.057,23.203 L21.0336087,23.2611394 C20.9607913,23.4063077 20.8294323,23.5158399 20.6700302,23.56 L17.1400302,24.43 C17.0987098,24.4462009 17.0543094,24.4530317 17.0100302,24.45 L17.0100302,24.45 L16.96,24.445 L16.9600302,24.46 L4.83003015,24.46 L4.83003015,15.26 L22.19,15.259 L22.3500302,15.1 C24.1500302,13.3 25.2400302,13.85 25.7300302,14.34 Z M17.4600302,19.95 L21.048,16.37 L5.94003015,16.37 L5.94003015,23.35 L16.573,23.35 L17.3106606,20.4389193 C17.2800087,20.2673149 17.3297986,20.0841955 17.4600302,19.95 Z M18.186,21.467 L17.7700302,23.13 L19.4100302,22.73 L18.838,22.129 L18.186,21.467 Z M22.2200302,16.8 L18.661,20.36 L20.52,22.219 L24.0700302,18.66 L22.2200302,16.8 Z M24.3400302,15.02 C23.891224,15.2170685 23.4891118,15.5067257 23.1600302,15.87 L23.02,16 L24.875,17.855 L25.0100302,17.73 C25.3736619,17.3989765 25.6662466,16.997523 25.8700302,16.55 C25.980948,16.3412022 25.9401521,16.0841883 25.7700302,15.92 L24.9600302,15.11 C24.8001066,14.9381926 24.5422032,14.900755 24.3400302,15.02 Z M21.3100302,6.95 L23.6100302,11.48 C23.8676311,11.8234529 24.0078763,12.2406825 24.0100302,12.67 C24.0100302,13.7745695 23.1145997,14.6700252 22.0100302,14.6700252 C21.4920422,14.6300412 21.0364745,14.3122924 20.8200302,13.84 C20.7523042,13.7303238 20.6753594,13.6266156 20.5900302,13.53 C20.5047009,13.6266156 20.4277561,13.7303238 20.3600302,13.84 C20.1435858,14.3122924 19.6880182,14.6300412 19.1700302,14.6700252 C18.653515,14.6259433 18.1998113,14.3094946 17.9800302,13.84 C17.9156794,13.7280742 17.8384911,13.6240376 17.7500302,13.53 C17.6647009,13.6266156 17.5877561,13.7303238 17.5200302,13.84 C17.3053042,14.3137243 16.8487683,14.6321486 16.3300302,14.6700252 C15.8149826,14.6286272 15.3630591,14.3107488 15.1500302,13.84 C15.0823042,13.7303238 15.0053594,13.6266156 14.9200302,13.53 C14.8315693,13.6240376 14.7543809,13.7280742 14.6900302,13.84 C14.470249,14.3094946 14.0165453,14.6259433 13.5000302,14.6700252 C12.9820422,14.6300412 12.5264745,14.3122924 12.3100302,13.84 C12.2423042,13.7303238 12.1653594,13.6266156 12.0800302,13.53 C11.9947009,13.6266156 11.9177561,13.7303238 11.8500302,13.84 C11.6335858,14.3122924 11.1780182,14.6300412 10.6600302,14.6700252 C10.143515,14.6259433 9.68981134,14.3094946 9.47003015,13.84 C9.40567944,13.7280742 9.32849106,13.6240376 9.24003015,13.53 C9.15470088,13.6266156 9.0777561,13.7303238 9.01003015,13.84 C8.8004458,14.3048834 8.35767997,14.62169 7.85003015,14.6700252 C7.33351499,14.6259433 6.87981134,14.3094946 6.66003015,13.84 C6.59537626,13.7307732 6.52179168,13.6270859 6.44003015,13.53 C6.35156925,13.6240376 6.27438086,13.7280742 6.21003015,13.84 C5.98850445,14.3124252 5.53023257,14.6293966 5.01003015,14.6700252 C4.25068503,14.6738039 3.55468431,14.2472534 3.2133958,13.568916 C2.89836025,12.9427584 2.93573194,12.2017718 3.30170485,11.6136821 L3.40003015,11.47 L5.65003015,6.95 L21.3100302,6.95 Z M20.6700302,8.06 L6.31003015,8.06 L4.31003015,12.06 L4.31003015,12.11 C4.18471308,12.2656868 4.11753183,12.4601588 4.1199629,12.66 C4.1199629,13.1152404 4.45816745,13.4922318 4.8980721,13.5518467 L5.01003015,13.56 L5.05003015,13.56 C5.11003015,13.54 5.24003015,13.34 5.31003015,13.24 C5.51728175,12.7748021 5.96234219,12.4601904 6.47003015,12.42 C6.97401958,12.4637013 7.41447387,12.7777644 7.62003015,13.24 C7.67836349,13.3233333 7.77836349,13.49 7.84479867,13.5432407 L7.88003015,13.56 L7.91521534,13.5362963 C7.98141904,13.4761111 8.08003015,13.3233333 8.13003015,13.24 C8.33901005,12.7762237 8.78310583,12.4622939 9.29003015,12.42 C9.79695448,12.4622939 10.2410503,12.7762237 10.4500302,13.24 C10.496418,13.3178201 10.5492108,13.3915429 10.6078223,13.4604177 L10.7000302,13.56 L10.7345209,13.5362963 C10.7986413,13.4761111 10.8916968,13.3233333 10.9500302,13.24 C11.1590101,12.7762237 11.6031058,12.4622939 12.1100302,12.42 C12.6021254,12.4759838 13.0280213,12.7878005 13.2300302,13.24 C13.2883635,13.3233333 13.381419,13.49 13.4455394,13.5432407 L13.4800302,13.56 L13.5152616,13.5362963 C13.5816968,13.4761111 13.6816968,13.3233333 13.7400302,13.24 C13.9490101,12.7762237 14.3931058,12.4622939 14.9000302,12.42 C15.4040196,12.4637013 15.8444739,12.7777644 16.0500302,13.24 C16.1083635,13.3233333 16.2083635,13.49 16.2747987,13.5432407 L16.3100302,13.56 L16.3452616,13.5362963 C16.4116968,13.4761111 16.5116968,13.3233333 16.5700302,13.24 C16.7755864,12.7777644 17.2160407,12.4637013 17.7200302,12.42 C18.2269545,12.4622939 18.6710503,12.7762237 18.8800302,13.24 C18.9383635,13.3233333 19.0383635,13.49 19.1047987,13.5432407 L19.1400302,13.56 L19.1745209,13.5362963 C19.2386413,13.4761111 19.3316968,13.3233333 19.3900302,13.24 C19.5990101,12.7762237 20.0431058,12.4622939 20.5500302,12.42 C21.0569545,12.4622939 21.5010503,12.7762237 21.7100302,13.24 C21.7683635,13.3233333 21.861419,13.49 21.9255394,13.5432407 L21.9600302,13.56 L22.0729242,13.5529877 C22.5166935,13.4974518 22.8600302,13.1188212 22.8600302,12.66 C22.8583023,12.500751 22.8152883,12.3453874 22.7361124,12.2087423 L22.6700302,12.11 L22.6700302,12.06 L20.6700302,8.06 Z M21.1100302,5 L21.1100302,6.11 L5.95003015,6.11 L5.95003015,5 L21.1100302,5 Z" id="path-1"></path>
    </defs>
    <g id="manage-store" stroke="none" stroke-width="1" fill="none" fill-rule="evenodd">
        <mask id="mask-2" fill="white">
            <use xlink:href="#path-1"></use>
        </mask>
        <use id="Mask" fill="#000000" xlink:href="#path-1"></use>
        <g id="palette/additional/lightblue" mask="url(#mask-2)" fill="#E21B23" fill-rule="nonzero">
            <g transform="translate(-59.000000, -43.000000)" id="color">
                <rect x="0" y="0" width="147" height="106"></rect>
            </g>
        </g>
    </g>
</svg>