<?xml version="1.0" encoding="UTF-8"?>
<svg width="30px" height="30px" viewBox="0 0 30 30" version="1.1" xmlns="http://www.w3.org/2000/svg" xmlns:xlink="http://www.w3.org/1999/xlink">
    <!-- Generator: Sketch 58 (84663) - https://sketch.com -->
    <title>mtu domestic</title>
    <desc>Created with Sketch.</desc>
    <defs>
        <path d="M17.22,3 C18.4012029,3.01640717 19.35,3.97868314 19.35,5.16 L19.35,5.16 L19.35,11.6 C18.8871144,11.6482547 18.4329479,11.7592732 18,11.93 L18,11.93 L18,8.37 L5.3,8.37 L5.3,19.98 L15.3,19.98 C15.48,20.41 15.69,20.86 15.94,21.33 L15.94,21.33 L5.35,21.33 L5.35,23.17 C5.35,23.6173506 5.71264935,23.98 6.16,23.98 L6.16,23.98 L17.22,23.98 C17.3294919,23.9803147 17.4380593,23.9599583 17.54,23.92 C17.5412245,23.9217143 17.5424485,23.9234277 17.543672,23.9251404 C17.2787811,23.5405075 17.0244864,23.1483796 16.78,22.75 C15.33,20.44 14.59,18.48 14.59,16.92 C14.6120132,13.9510019 17.030941,11.5589014 20,11.57 C21.4329768,11.5540087 22.8133302,12.1093289 23.8359998,13.1132339 C24.8586693,14.1171389 25.4394542,15.4869728 25.45,16.92 C25.45,18.48 24.71,20.44 23.26,22.75 C22.6922683,23.6586144 22.0732731,24.5339636 21.4060772,25.3718195 L21,25.87 L20,27 L19,25.87 C18.7697385,25.5889667 18.5449877,25.3035729 18.3258657,25.0139844 C17.9930226,25.2121737 17.6103728,25.3182422 17.22,25.32 L17.22,25.32 L6.16,25.32 C4.96706494,25.32 4,24.3529351 4,23.16 L4,23.16 L4,5.16 C4,3.96706494 4.96706494,3 6.16,3 L6.16,3 Z M20,12.8299981 C19.3734817,12.8609051 18.7618421,13.0317541 18.21,13.3299981 C16.8513334,13.9782996 15.9611467,15.3141368 15.8765662,16.8058893 L15.87,17.02 L15.9032149,17.3698947 C16.0257743,18.4161219 16.3539131,19.4290611 16.87,20.35 C16.95,20.52 17.01,20.62 17.13,20.85 C17.25,21.08 17.44,21.4 17.5,21.51 C17.56,21.62 17.62,21.73 17.69,21.84 C18.268394,22.7861216 18.9007968,23.6979265 19.5840045,24.5709068 L20,25.09 L20.07,25 L20.16,24.9 L20.21,24.8299981 L20.66,24.25 L20.78,24.1 L20.98,23.8299981 L21.085,23.6837498 L21.19,23.53 L21.25,23.46 L21.37,23.28 C21.49,23.1133333 21.61,22.9422222 21.73,22.7637037 L21.91,22.49 L22.13,22.15 L22.2,22.03 C22.3333333,21.8033333 22.4622222,21.5796296 22.5866667,21.3588889 L22.77,21.03 L22.89,20.81 L22.95,20.69 L23.04875,20.5099998 L23.14,20.3299981 L23.26,20.07 L23.37,19.85 L23.49,19.56 C23.6581371,19.1727394 23.8017538,18.7752884 23.92,18.37 C24.0090419,18.0593457 24.0727917,17.7421756 24.1107109,17.4215981 L24.14,17.1 L24.14,16.92 L24.1335854,16.6931699 C24.0830674,15.7953618 23.7357248,14.9395956 23.1466182,14.2606744 L22.98,14.08 L22.65,13.78 C21.9039115,13.1649909 20.9668937,12.8290789 20,12.8299981 Z M19.9800121,14.2300175 C21.5153491,14.2245098 22.7644673,15.464663 22.77,17 C22.77,18.5330976 21.5330582,19.7790101 20,19.7900183 C18.464663,19.7955129 17.2155555,18.5553489 17.2100177,17.0200119 C17.2045165,15.4846749 18.4446751,14.235562 19.9800121,14.2300175 Z M11.69,9.32 L14.85,12.48 C15.0029031,12.6343685 15.0483943,12.8653427 14.9654469,13.0661628 C14.8824995,13.266983 14.6872713,13.3985297 14.47,13.4 C14.3285775,13.4016926 14.1921356,13.347834 14.09,13.25 L12.23,11.389 L12.23,18.47 C12.2245487,18.7643213 11.9843718,19 11.69,19 C11.3917662,19 11.15,18.7582338 11.15,18.46 L11.15,11.391 L9.3,13.25 C9.08737037,13.4626296 8.74262963,13.4626296 8.53,13.25 C8.31737037,13.0373704 8.31737037,12.6926296 8.53,12.48 L11.69,9.32 Z M20,15.4 C19.3412011,15.3919157 18.7431291,15.7836216 18.4872689,16.3907599 C18.2314087,16.9978982 18.3687327,17.6995148 18.834609,18.165391 C19.3004852,18.6312673 20.0021018,18.7685913 20.6092401,18.5127311 C21.2163784,18.2568709 21.6080843,17.6587989 21.6,17 C21.5945424,16.1186149 20.8813851,15.4054576 20,15.4 Z M17.22,4.35 L6.16,4.35 C5.71264935,4.35 5.35,4.71264935 5.35,5.16 L5.35,5.16 L5.35,7 L18.03,7 L18.03,5.16 C18.03,4.71264935 17.6673506,4.35 17.22,4.35 L17.22,4.35 Z" id="path-1"></path>
    </defs>
    <g id="mtu-domestic" stroke="none" stroke-width="1" fill="none" fill-rule="evenodd">
        <mask id="mask-2" fill="white">
            <use xlink:href="#path-1"></use>
        </mask>
        <use id="Mask" fill="#000000" xlink:href="#path-1"></use>
        <g id="palette/additional/lightblue" mask="url(#mask-2)" fill="#E21B23" fill-rule="nonzero">
            <g transform="translate(-59.000000, -38.000000)" id="color">
                <rect x="0" y="0" width="147" height="106"></rect>
            </g>
        </g>
    </g>
</svg>