<?xml version="1.0" encoding="UTF-8"?>
<svg width="30px" height="30px" viewBox="0 0 30 30" version="1.1" xmlns="http://www.w3.org/2000/svg" xmlns:xlink="http://www.w3.org/1999/xlink">
    <!-- Generator: Sketch 58 (84663) - https://sketch.com -->
    <title>mobile</title>
    <desc>Created with Sketch.</desc>
    <defs>
        <path d="M21.0500804,3 C21.7139494,3 22.3503405,3.26506077 22.8178853,3.73636093 C23.2386756,4.16053107 23.4913406,4.72012611 23.5338371,5.31174826 L23.5401609,5.51 L23.5401609,24.51 C23.5401609,25.1703891 23.2777419,25.8037303 22.8107763,26.2706959 C22.3905073,26.6909649 21.835474,26.945486 21.2472464,26.9921876 L21.0500804,27 L9.49008043,27 C8.8262115,27 8.18982036,26.7349392 7.72227559,26.2636391 C7.30148528,25.8394689 7.04882031,25.2798739 7.00632381,24.6882517 L7,24.49 L7,5.49 C7,4.16981853 8.02748392,3.08960148 9.32636187,3.00529641 L9.49008043,3 L21.0500804,3 Z M22.47,22.44 L8.069,22.44 L8.06993939,24.51 C8.08036542,25.2407508 8.64131187,25.8361091 9.35464241,25.9036227 L9.49008043,25.91 L21.0500804,25.91 C21.4266879,25.91 21.7878704,25.7603933 22.0541721,25.4940916 C22.287186,25.2610777 22.4308554,24.9554205 22.4631319,24.6303496 L22.4700804,24.49 L22.47,22.44 Z M22.47,8.61 L8.069,8.61 L8.069,21.37 L22.47,21.37 L22.47,8.61 Z M21.0500804,4.06999999 L9.49008043,4.06999999 C9.10998205,4.06999999 8.74573517,4.22231132 8.47885106,4.49295436 C8.24532746,4.72976703 8.10340638,5.03984913 8.07506685,5.36828043 L8.06993939,5.51 L8.069,7.54 L22.47,7.54 L22.4700804,5.49 C22.4700804,5.11339258 22.3204737,4.75221003 22.0541721,4.48590837 C21.7878704,4.21960671 21.4266879,4.06999999 21.0500804,4.06999999 Z M16.8700804,5.47 C17.2235427,5.47 17.5100804,5.75653776 17.5100804,6.11 C17.5100804,6.46346224 17.2235427,6.75 16.8700804,6.75 L13.6700804,6.75 C13.3166182,6.75 13.0300804,6.46346224 13.0300804,6.11 C13.0300804,5.75653776 13.3166182,5.47 13.6700804,5.47 L16.8700804,5.47 Z" id="path-1"></path>
    </defs>
    <g id="mobile" stroke="none" stroke-width="1" fill="none" fill-rule="evenodd">
        <mask id="mask-2" fill="white">
            <use xlink:href="#path-1"></use>
        </mask>
        <use id="Mask" fill="#000000" xlink:href="#path-1"></use>
        <g id="palette/additional/lightblue" mask="url(#mask-2)" fill="#E21B23" fill-rule="nonzero">
            <g transform="translate(-59.000000, -38.000000)" id="color">
                <rect x="0" y="0" width="147" height="106"></rect>
            </g>
        </g>
    </g>
</svg>