<?xml version="1.0" encoding="UTF-8"?>
<svg width="30px" height="30px" viewBox="0 0 30 30" version="1.1" xmlns="http://www.w3.org/2000/svg" xmlns:xlink="http://www.w3.org/1999/xlink">
    <!-- Generator: Sketch 58 (84663) - https://sketch.com -->
    <title>mobile app</title>
    <desc>Created with Sketch.</desc>
    <defs>
        <path d="M20.75,3 C22.5134047,3.00551067 23.94,4.43658669 23.94,6.2 L23.94,23.8 C23.94,25.5634133 22.5134047,26.9944893 20.75,27 L10.19,27 C8.4265953,26.9944893 7,25.5634133 7,23.8 L7,6.2 C7,4.43658669 8.4265953,3.00551067 10.19,3 L20.75,3 Z M22.65,22.39 L8.29,22.39 L8.29,23.8 C8.29,24.8509709 9.13904347,25.7044975 10.19,25.71 L20.75,25.71 C21.8009565,25.7044975 22.65,24.8509709 22.65,23.8 L22.65,22.39 Z M22.65,9.34 L8.29,9.34 L8.29,21.1 L22.65,21.1 L22.65,9.34 Z M13.47,10.83 C13.885862,10.83 14.2245281,11.164174 14.23,11.58 L14.23,11.58 L14.23,14.37 C14.23,14.7897364 13.8897364,15.13 13.47,15.13 L13.47,15.13 L10.67,15.13 C10.254174,15.1245281 9.92,14.785862 9.92,14.37 L9.92,14.37 L9.92,11.58 C9.92538581,11.1680379 10.2580379,10.8353858 10.67,10.83 L10.67,10.83 Z M13.23,11.82 L10.9,11.82 L10.9,14.14 L13.24,14.14 L13.23,11.82 Z M20.75,4.29 L10.19,4.29 C9.13904347,4.29550247 8.29,5.14902906 8.29,6.2 L8.29,8.05 L22.65,8.05 L22.65,6.2 C22.65,5.14902906 21.8009565,4.29550247 20.75,4.29 Z M16.88,5.4 C17.2334622,5.4 17.52,5.68653776 17.52,6.04 C17.52,6.39346224 17.2334622,6.68 16.88,6.68 L13.66,6.68 C13.43135,6.68 13.2200687,6.55801669 13.1057437,6.36 C12.9914187,6.16198331 12.9914187,5.91801669 13.1057437,5.72 C13.2200687,5.52198331 13.43135,5.4 13.66,5.4 L16.88,5.4 Z" id="path-1"></path>
    </defs>
    <g id="mobile-app" stroke="none" stroke-width="1" fill="none" fill-rule="evenodd">
        <mask id="mask-2" fill="white">
            <use xlink:href="#path-1"></use>
        </mask>
        <use id="Mask" fill="#000000" fill-rule="nonzero" xlink:href="#path-1"></use>
        <g id="palette/additional/lightblue" mask="url(#mask-2)" fill="#E21B23" fill-rule="nonzero">
            <g transform="translate(-59.000000, -38.000000)" id="color">
                <rect x="0" y="0" width="147" height="106"></rect>
            </g>
        </g>
    </g>
</svg>