<?xml version="1.0" encoding="UTF-8"?>
<svg width="30px" height="30px" viewBox="0 0 30 30" version="1.1" xmlns="http://www.w3.org/2000/svg" xmlns:xlink="http://www.w3.org/1999/xlink">
    <!-- Generator: Sketch 58 (84663) - https://sketch.com -->
    <title>microphone</title>
    <desc>Created with Sketch.</desc>
    <defs>
        <path d="M21.5,12.5 C21.9,12.5 22.2,12.8 22.2,13.2 L22.2,13.2 L22.2,15.2 C22.2,18.5 19.4,21.4 15.8,21.7 L15.8,21.7 L15.8,26.3 L18.3,26.3 C18.7,26.3 19,26.6 19,27 C19,27.4 18.7,27.7 18.3,27.7 L18.3,27.7 L11.8,27.7 C11.4,27.7 11.1,27.4 11.1,27 C11.1,26.6 11.4,26.3 11.8,26.3 L11.8,26.3 L14.4,26.3 L14.4,21.7 C10.8,21.4 8,18.6 8,15.2 L8,15.2 L8,13.2 C8,12.8 8.3,12.5 8.7,12.5 C9.1,12.5 9.4,12.8 9.4,13.2 L9.4,13.2 L9.4,15.2 C9.4,18.1 11.9,20.4 15.1,20.4 C18.2,20.4 20.8,18.1 20.8,15.2 L20.8,15.2 L20.8,13.2 C20.8,12.8 21.1,12.5 21.5,12.5 Z M15.1,3 C17.6,3 19.7,4.9 19.7,7.2 L19.7,7.2 L19.7,15.1 C19.7,17.4 17.6,19.3 15.1,19.3 C12.6,19.3 10.5,17.4 10.5,15.1 L10.5,15.1 L10.5,7.2 C10.5,4.9 12.6,3 15.1,3 Z M15.1,4.3 C13.3,4.3 11.9,5.6 11.9,7.2 L11.9,7.2 L11.9,15.1 C11.9,16.7 13.3,18 15.1,18 C16.9,18 18.3,16.7 18.3,15.1 L18.3,15.1 L18.3,7.2 C18.3,5.6 16.9,4.3 15.1,4.3 Z" id="path-1"></path>
    </defs>
    <g id="microphone" stroke="none" stroke-width="1" fill="none" fill-rule="evenodd">
        <mask id="mask-2" fill="white">
            <use xlink:href="#path-1"></use>
        </mask>
        <use id="Mask" fill="#2A2825" xlink:href="#path-1"></use>
        <g id="palette/additional/lightblue" mask="url(#mask-2)" fill="#E21B23" fill-rule="nonzero">
            <g transform="translate(-59.000000, -38.000000)" id="color">
                <rect x="0" y="0" width="147" height="106"></rect>
            </g>
        </g>
    </g>
</svg>