<?xml version="1.0" encoding="UTF-8"?>
<svg width="30px" height="30px" viewBox="0 0 30 30" version="1.1" xmlns="http://www.w3.org/2000/svg" xmlns:xlink="http://www.w3.org/1999/xlink">
    <!-- Generator: Sketch 58 (84663) - https://sketch.com -->
    <title>mute</title>
    <desc>Created with Sketch.</desc>
    <defs>
        <path d="M6.47234374,3 L6.498,3.034 L6.5,3.03443399 L6.644,3.221 L24.5183948,26.2732151 L24.516,26.274 L25.02,26.924434 L23.678,26.924 L23.5858857,26.9962827 L23.529,26.924 L23.52,26.924434 L23.02,26.274434 L23.01,26.274434 L5,3.03443399 L6.428,3.034 L6.47234374,3 Z M9.61,11.424434 L9.61,15.064434 C9.61551558,18.0262971 12.0181318,20.424434 14.98,20.424434 C15.6818423,20.4234387 16.3759786,20.2873957 17.0248119,20.0247319 L17.3,19.904434 L18.01,20.874434 C17.2544425,21.276332 16.4285727,21.5239398 15.5803728,21.6051394 L15.58,25.724 L20.94,25.724434 L20.94,26.934434 L9.01,26.934434 L9.01,25.724434 L14.37,25.724 L14.3700035,21.6062338 C12.8557166,21.4652528 11.4293642,20.8027726 10.3413719,19.7213642 C9.17007576,18.5571561 8.48192625,16.99785 8.40685693,15.3551285 L8.4,15.064434 L8.4,11.424434 L9.61,11.424434 Z M21.55,11.424434 L21.55,15.064434 C21.5497659,16.5462873 21.0471697,17.9812018 20.1291229,19.1370533 L19.94,19.364434 L19.18,18.384434 C19.8772994,17.5156356 20.2798433,16.4502133 20.3338033,15.3422279 L20.34,15.064434 L20.34,11.424434 L21.55,11.424434 Z M11.39,12.284434 L12.63,13.834434 L12.63,14.544434 C12.6273275,15.1764647 12.8772185,15.783381 13.3241357,16.2302983 C13.7263612,16.6325237 14.258186,16.875158 14.8212791,16.9177144 L15.01,16.924434 L15.85,18.004434 C14.7810853,18.2755056 13.6468919,18.0388307 12.7755925,17.3628899 C11.9623797,16.7320119 11.4628839,15.7841989 11.3973556,14.7640544 L11.39,14.544434 L11.39,12.284434 Z M14.9097036,4.87302329 L15.1,4.87443399 C17.0133994,4.93857029 18.5258871,6.49203544 18.5614107,8.38413761 L18.56,8.57443399 L18.56,14.574434 C18.5606996,15.2671803 18.3621031,15.9438064 17.99031,16.5245233 L17.86,16.714434 L17.07,15.714434 C17.2267799,15.4251994 17.3220831,15.1074569 17.3508006,14.7811131 L17.36,14.584434 L17.36,8.58443399 C17.36,7.26999629 16.2944377,6.20443399 14.98,6.20443399 C13.7203305,6.20443399 12.6892289,7.18304937 12.6054907,8.42148458 L12.6,8.58443399 L12.6,9.89443399 L11.4,8.33443399 C11.4619984,6.48481455 12.9156919,5.00982485 14.7216648,4.881459 L14.9097036,4.87302329 Z" id="path-1"></path>
    </defs>
    <g id="mute" stroke="none" stroke-width="1" fill="none" fill-rule="evenodd">
        <mask id="mask-2" fill="white">
            <use xlink:href="#path-1"></use>
        </mask>
        <use id="Mask" fill="#000000" xlink:href="#path-1"></use>
        <g id="palette/additional/lightblue" mask="url(#mask-2)" fill="#E21B23" fill-rule="nonzero">
            <g transform="translate(-59.000000, -38.000000)" id="color">
                <rect x="0" y="0" width="147" height="106"></rect>
            </g>
        </g>
    </g>
</svg>