<?xml version="1.0" encoding="UTF-8"?>
<svg width="30px" height="30px" viewBox="0 0 30 30" version="1.1" xmlns="http://www.w3.org/2000/svg" xmlns:xlink="http://www.w3.org/1999/xlink">
    <!-- Generator: Sketch 58 (84663) - https://sketch.com -->
    <title>mobile devices</title>
    <desc>Created with Sketch.</desc>
    <defs>
        <path d="M9.27,26.44 C8.06855055,26.44 7.08510491,25.5066148 7.00523695,24.3254181 L7,24.17 L7,23.12 L4.07,23.12 L4.07,24.66 C4.07,25.0194453 4.33710567,25.3165048 4.68365721,25.3635185 L4.78,25.37 L7.32,25.37 C7.70009671,25.9836896 8.34811633,26.3757382 9.06064233,26.4327835 L9.24,26.44 L4.78,26.44 C4.30791465,26.44 3.85516468,26.2524648 3.52134993,25.9186501 C3.22926202,25.6265622 3.04916941,25.2434145 3.00871013,24.8359311 L3,24.66 L3,9.85 C3,8.91608649 3.71923216,8.15015865 4.63401232,8.07590065 L4.78,8.07 L7,8.07 L7,5.27 C7,4.08193927 7.91314512,3.10480914 9.07945108,3.00772157 L9.24,3 L20.85,3 C22.0514494,3 23.0348951,3.93338525 23.114763,5.11458187 L23.12,5.27 L23.12,8.07 L25.22,8.07 C26.2030669,8.07 27,8.86693315 27,9.85 L27,9.85 L27,24.66 C27,25.6430669 26.2030669,26.44 25.22,26.44 L25.22,26.44 L20.85,26.44 L20.85,26.44 L9.27,26.44 Z M21.0464538,26.4313495 L21.0225195,26.4335424 L21.0225195,26.4335424 C21.0304192,26.4327127 21.0384407,26.4320523 21.0464538,26.4313495 Z M21.2201856,26.4092964 L21.1994801,26.4132634 L21.1994801,26.4132634 C21.206137,26.4116024 21.2131655,26.4104658 21.2201856,26.4092964 Z M21.385384,26.375391 L21.3729223,26.3794757 L21.3729223,26.3794757 C21.37671,26.3774982 21.381049,26.3764509 21.385384,26.375391 Z M23.12,24.17 C23.12,24.6110651 22.9942074,25.0227497 22.7765413,25.3711347 L25.22,25.37 C25.4083037,25.37 25.588895,25.2951966 25.7220458,25.1620458 C25.8551966,25.028895 25.93,24.8483037 25.93,24.66 L25.93,24.66 L25.93,23.12 L23.12,23.12 L23.12,24.17 Z M21.75,22.209 L8.33,22.209 L8.33,24.17 C8.33,24.6366806 8.68129657,25.0213115 9.13387478,25.0738778 L9.24,25.08 L20.85,25.08 C21.0904376,25.08 21.3208847,24.9838222 21.4899579,24.8128704 C21.6308522,24.6704106 21.7193627,24.4859063 21.7434386,24.2892285 L21.7500556,24.17 L21.75,22.209 Z M23.12,22.06 L25.93,22.06 L25.93,12.46 L23.12,12.46 L23.12,22.06 Z M7,12.46 L4.07,12.46 L4.07,22.06 L7,22.06 L7,12.46 Z M21.75,8.61 L8.33,8.61 L8.33,20.849 L21.75,20.849 L21.75,8.61 Z M23.12,11.39 L25.93,11.39 L25.93,9.85 C25.9326768,9.65996966 25.8590567,9.4767987 25.7256147,9.34147718 C25.5921726,9.20615566 25.4100492,9.12998115 25.22,9.13 L25.22,9.13 L23.12,9.13 L23.12,11.39 Z M7,9.13 L4.78,9.13 C4.58995081,9.12998115 4.40782737,9.20615566 4.27438531,9.34147718 C4.16763167,9.4497344 4.09916413,9.58861525 4.07741776,9.73713284 L4.07,9.85 L4.07,11.39 L7,11.39 L7,9.13 Z M20.85,4.36 L9.24,4.36 C8.77331939,4.36 8.38868848,4.71129657 8.33612224,5.16387478 L8.33,5.27 L8.33,7.25 L21.75,7.25 L21.7500556,5.27 C21.7522355,5.0696477 21.6875708,4.87549459 21.568112,4.71741181 L21.4899579,4.62712955 C21.3208847,4.4561778 21.0904376,4.36 20.85,4.36 Z" id="path-1"></path>
    </defs>
    <g id="mobile-devices" stroke="none" stroke-width="1" fill="none" fill-rule="evenodd">
        <mask id="mask-2" fill="white">
            <use xlink:href="#path-1"></use>
        </mask>
        <use id="Mask" fill="#000000" fill-rule="nonzero" xlink:href="#path-1"></use>
        <g id="palette/additional/lightblue" mask="url(#mask-2)" fill="#E21B23" fill-rule="nonzero">
            <g transform="translate(-59.000000, -38.000000)" id="color">
                <rect x="0" y="0" width="147" height="106"></rect>
            </g>
        </g>
    </g>
</svg>