<?xml version="1.0" encoding="UTF-8"?>
<svg width="30px" height="30px" viewBox="0 0 30 30" version="1.1" xmlns="http://www.w3.org/2000/svg" xmlns:xlink="http://www.w3.org/1999/xlink">
    <!-- Generator: Sketch 58 (84663) - https://sketch.com -->
    <title>money transfer</title>
    <desc>Created with Sketch.</desc>
    <defs>
        <path d="M26.9366856,7 L26.9366856,23.53 L3.46668561,23.53 C3.19928209,23.493356 3,23.2649026 3,22.995 C3,22.7550866 3.15745745,22.5479231 3.38025404,22.4791125 L3.46668561,22.46 L21.5466856,22.46 C21.769847,20.2254838 23.4524185,18.4237354 25.6456911,18.034209 L25.8666856,18 L25.8666856,12.53 C23.6404204,12.23571 21.8932326,10.4965495 21.5738313,8.29197278 L21.5466856,8.07 L3.46668561,8.07 C3.19928209,8.03335603 3,7.80490262 3,7.535 C3,7.29508656 3.15745745,7.08792312 3.38025404,7.01911246 L3.46668561,7 L26.9366856,7 Z M25.8666856,22.39 L25.8666856,19 C24.2134111,19.2762591 22.9280111,20.5728044 22.6545966,22.211729 L22.6266856,22.41 L25.8666856,22.39 L25.8666856,19 Z M14.9366856,9.47 C18.0714619,9.52478448 20.5712452,12.1050617 20.5266856,15.24 C20.5656871,18.3710587 18.0675079,20.9452112 14.9366856,21 C11.8058634,20.9452112 9.30768409,18.3710587 9.34668561,15.24 C9.30212602,12.1050617 11.8019093,9.52478448 14.9366856,9.47 Z M14.9366856,10.54 C12.3928322,10.5946827 10.3720384,12.6959507 10.4166856,15.24 C10.3720384,17.7840493 12.3928322,19.8853173 14.9366856,19.94 C16.1594096,19.9163621 17.3226359,19.4078474 18.1703498,18.526375 C19.0180638,17.6449025 19.4807895,16.4627149 19.4566856,15.24 C19.4807895,14.0172851 19.0180638,12.8350975 18.1703498,11.953625 C17.3226359,11.0721526 16.1594096,10.5636379 14.9366856,10.54 Z M8.35491922,19.0640558 C8.46836026,19.2414318 8.46836026,19.4685682 8.35491922,19.6459442 C8.25768405,19.7979807 8.0923049,19.8896913 7.91567483,19.89479 L7.82668561,19.89 L3.46668561,19.89 C3.19928209,19.853356 3,19.6249026 3,19.355 C3,19.1150866 3.15745745,18.9079231 3.38025404,18.8391125 L3.46668561,18.82 L7.82668561,18.82 C8.03528562,18.7914142 8.24147818,18.8866799 8.35491922,19.0640558 Z M15.2866856,11.27 L15.2866856,12.05 C15.8985807,12.0936767 16.4707897,12.3690523 16.8866856,12.82 L16.8866856,12.82 L16.4866856,13.34 C16.1737266,12.9930409 15.7491651,12.7666082 15.2866856,12.7 L15.2866856,12.7 L15.2866856,14.53 C16.1266856,14.78 17.0166868,15.11 17.0166868,16.21 C17.017217,16.6618274 16.83244,17.094106 16.5054792,17.4059472 C16.1785184,17.7177884 15.7379819,17.8819071 15.2866856,17.86 L15.2866856,17.86 L15.2866856,18.62 L14.8066856,18.65 L14.8066856,17.89 C14.0861173,17.8687295 13.4076099,17.5458035 12.9366856,17 L12.9366856,17 L13.3266856,16.44 C13.7007007,16.8795153 14.2245197,17.1645869 14.7966856,17.24 L14.7966856,17.24 L14.7966856,15.17 C13.9666856,14.93 13.0966856,14.6 13.0966856,13.6 C13.1121236,13.167446 13.3010757,12.7593264 13.6209175,12.4677059 C13.9407593,12.1760854 14.3645485,12.0255292 14.7966856,12.05 L14.7966856,12.05 L14.7966856,11.27 L15.2866856,11.27 Z M15.3766856,15.35 L15.3766856,16.98 C15.5941631,16.98 15.8027333,16.8936074 15.9565132,16.7398276 C16.110293,16.5860477 16.1966856,16.3774775 16.1966856,16.16 C16.1966856,15.69 15.8366856,15.5 15.3766856,15.35 L15.3766856,15.35 Z M8.35491922,15.0040558 C8.46836026,15.1814318 8.46836026,15.4085682 8.35491922,15.5859442 C8.25768405,15.7379807 8.0923049,15.8296913 7.91567483,15.83479 L7.82668561,15.83 L3.46668561,15.83 C3.19928209,15.793356 3,15.5649026 3,15.295 C3,15.0550866 3.15745745,14.8479231 3.38025404,14.7791125 L3.46668561,14.76 L7.82668561,14.76 C8.03528562,14.7314142 8.24147818,14.8266799 8.35491922,15.0040558 Z M14.5666856,12.9 C14.3465508,12.9026362 14.1364813,12.9926209 13.9826981,13.150155 C13.8289148,13.3076891 13.7440174,13.5198656 13.7466856,13.74 C13.7466856,14.19 14.1066856,14.37 14.5666856,14.53 L14.5666856,14.53 Z M8.35491922,10.8840558 C8.46836026,11.0614318 8.46836026,11.2885682 8.35491922,11.4659442 C8.25768405,11.6179807 8.0923049,11.7096913 7.91567483,11.71479 L7.82668561,11.71 L3.46668561,11.71 C3.19928209,11.673356 3,11.4449026 3,11.175 C3,10.9350866 3.15745745,10.7279231 3.38025404,10.6591125 L3.46668561,10.64 L7.82668561,10.64 C8.03528562,10.6114142 8.24147818,10.7066799 8.35491922,10.8840558 Z M25.8666856,8.07 L22.6266856,8.07 C22.8260859,9.72779749 24.0538524,11.0681422 25.670822,11.42228 L25.8666856,11.46 L25.8666856,8.07 Z" id="path-1"></path>
    </defs>
    <g id="money-transfer" stroke="none" stroke-width="1" fill="none" fill-rule="evenodd">
        <mask id="mask-2" fill="white">
            <use xlink:href="#path-1"></use>
        </mask>
        <use id="Mask" fill="#2A2825" xlink:href="#path-1"></use>
        <g id="palette/additional/lightblue" mask="url(#mask-2)" fill="#E21B23" fill-rule="nonzero">
            <g transform="translate(-59.000000, -38.000000)" id="color">
                <rect x="0" y="0" width="147" height="106"></rect>
            </g>
        </g>
    </g>
</svg>