<?xml version="1.0" encoding="UTF-8"?>
<svg width="30px" height="30px" viewBox="0 0 30 30" version="1.1" xmlns="http://www.w3.org/2000/svg" xmlns:xlink="http://www.w3.org/1999/xlink">
    <!-- Generator: Sketch 58 (84663) - https://sketch.com -->
    <title>notification_filled</title>
    <desc>Created with Sketch.</desc>
    <defs>
        <path d="M23.1,13 L23.1,9 C23.1,5.7 20.4,3 17.1,3 L17.1,3 L13.8,3 C10.5,3 7.8,5.7 7.8,9 L7.8,13 C7.8,14.5 6.8,17.7 5,18.6 L5,23 L11.5,23 L11.5,23 C11.5,25.2 13.3,26.9 15.5,27 C17.7,27 19.5,25.2 19.5,23 L19.5,23 L25.9,23 L25.9,18.6 C24.5,18 23.1,14.5 23.1,13 Z" id="path-1"></path>
    </defs>
    <g id="notification_filled" stroke="none" stroke-width="1" fill="none" fill-rule="evenodd">
        <mask id="mask-2" fill="white">
            <use xlink:href="#path-1"></use>
        </mask>
        <use id="Mask" fill="#000000" xlink:href="#path-1"></use>
        <g id="palette/additional/lightblue" mask="url(#mask-2)" fill="#E21B23" fill-rule="nonzero">
            <g transform="translate(-59.000000, -38.000000)" id="color">
                <rect x="0" y="0" width="147" height="106"></rect>
            </g>
        </g>
    </g>
</svg>