<?xml version="1.0" encoding="UTF-8"?>
<svg width="30px" height="30px" viewBox="0 0 30 30" version="1.1" xmlns="http://www.w3.org/2000/svg" xmlns:xlink="http://www.w3.org/1999/xlink">
    <!-- Generator: Sketch 58 (84663) - https://sketch.com -->
    <title>notification_outline</title>
    <desc>Created with Sketch.</desc>
    <defs>
        <path d="M12.85,23 C12.85,24.4193718 14.0006282,25.57 15.42,25.57 C16.7847806,25.57 17.9010926,24.5061796 17.9849438,23.1625308 L17.99,23 L12.85,23 Z M17.09,4.38 L17.09,4.41 L13.75,4.41 C11.2172946,4.41549992 9.16549992,6.46729464 9.16,9 L9.16,9 L9.16,13 C9.1085883,14.2324549 8.82353599,15.4439272 8.32,16.57 C7.9028028,17.6272373 7.25349236,18.577281 6.42,19.35 L6.42,19.35 L6.42,21.62 L24.42,21.62 L24.42,19.36 C23.6690338,18.6015806 23.0774198,17.7005593 22.68,16.71 C22.1139551,15.5481095 21.7745655,14.2889739 21.68,13 L21.68,13 L21.68,9 C21.6853148,7.77827358 21.2043931,6.60461893 20.3433125,5.73791032 C19.4822319,4.8712017 18.3117351,4.38264439 17.09,4.38 L17.09,4.38 Z M19.42,23.05 C19.392628,25.2395881 17.6097592,27.0001711 15.42,27 C13.2497417,26.9730372 11.4969628,25.2202583 11.47,23.05 L11.47,23 L5,23 L5,18.66 C6.75,17.69 7.75,14.55 7.75,13.03 L7.75,13.03 L7.75,9.03 C7.75,5.7162915 10.4362915,3.03 13.75,3.03 L13.75,3.03 L17.09,3.03 L17.06,3 C20.3737085,3 23.06,5.6862915 23.06,9 L23.06,9 L23.06,13 C23.06,14.53 24.42,18 25.81,18.64 L25.81,18.64 L25.81,23 L19.42,23 L19.42,23.05 Z" id="path-1"></path>
    </defs>
    <g id="notification_outline" stroke="none" stroke-width="1" fill="none" fill-rule="evenodd">
        <mask id="mask-2" fill="white">
            <use xlink:href="#path-1"></use>
        </mask>
        <use id="Mask" fill="#000000" fill-rule="nonzero" xlink:href="#path-1"></use>
        <g id="palette/additional/lightblue" mask="url(#mask-2)" fill="#E21B23" fill-rule="nonzero">
            <g transform="translate(-59.000000, -38.000000)" id="color">
                <rect x="0" y="0" width="147" height="106"></rect>
            </g>
        </g>
    </g>
</svg>