<?xml version="1.0" encoding="UTF-8"?>
<svg width="30px" height="30px" viewBox="0 0 30 30" version="1.1" xmlns="http://www.w3.org/2000/svg" xmlns:xlink="http://www.w3.org/1999/xlink">
    <!-- Generator: Sketch 58 (84663) - https://sketch.com -->
    <title>outgoing videocall_filled</title>
    <desc>Created with Sketch.</desc>
    <defs>
        <path d="M24.75,6.44764012 C25.1077069,6.02980331 25.6923637,5.88721004 26.202276,6.09344123 C26.7121883,6.29967243 27.0333357,6.80861319 27,7.35764012 L27,7.35764012 L27,23.5376401 C27.0333357,24.086667 26.7121883,24.5956078 26.202276,24.801839 C25.6923637,25.0080702 25.1077069,24.8654769 24.75,24.4476401 L24.75,24.4476401 L20.63,19.5776401 L20.63,11.3176401 L20.8,11.1276401 Z M17.82,7.38760517 L17.82,23.44768 L4.51,23.44768 C3.69683736,23.4535125 3.02708492,22.8103728 3,21.9976401 L3,21.9976401 L3,8.86764012 C3.01097571,8.04312362 3.68542927,7.3820698 4.51,7.38760517 L4.51,7.38760517 L17.82,7.38760517 Z M13.64,11.1576401 L7.51,11.3376401 C7.31599252,11.3477338 7.14539381,11.4692906 7.07250516,11.6493684 C6.99961651,11.8294462 7.03763409,12.0354429 7.17,12.1776401 L7.17,12.1776401 L8.68,13.6776401 L5.68,16.6776401 C5.53766524,16.8217535 5.53766524,17.0535268 5.68,17.1976401 L5.68,17.1976401 L8.15,19.6276401 C8.21754867,19.6954237 8.30930547,19.733524 8.405,19.733524 C8.50069453,19.733524 8.59245133,19.6954237 8.66,19.6276401 L8.66,19.6276401 L11.66,16.6276401 L13.16,18.1276401 C13.2976759,18.2682913 13.506147,18.3129165 13.6893358,18.2409494 C13.8725246,18.1689824 13.9948751,17.9943915 14,17.7976401 L14,17.7976401 L14.14,11.6676401 C14.1426872,11.5333078 14.0911975,11.4035466 13.9971364,11.3076044 C13.9030754,11.2116622 13.7743592,11.1576401 13.64,11.1576401 L13.64,11.1576401 Z" id="path-1"></path>
    </defs>
    <g id="outgoing-videocall_filled" stroke="none" stroke-width="1" fill="none" fill-rule="evenodd">
        <mask id="mask-2" fill="white">
            <use xlink:href="#path-1"></use>
        </mask>
        <use id="Mask" fill="#000000" xlink:href="#path-1"></use>
        <g id="palette/additional/lightblue" mask="url(#mask-2)" fill="#E21B23" fill-rule="nonzero">
            <g transform="translate(-59.000000, -38.000000)" id="color">
                <rect x="0" y="0" width="147" height="106"></rect>
            </g>
        </g>
    </g>
</svg>