<?xml version="1.0" encoding="UTF-8"?>
<svg width="30px" height="30px" viewBox="0 0 30 30" version="1.1" xmlns="http://www.w3.org/2000/svg" xmlns:xlink="http://www.w3.org/1999/xlink">
    <!-- Generator: Sketch 58 (84663) - https://sketch.com -->
    <title>outgoing_filled</title>
    <desc>Created with Sketch.</desc>
    <defs>
        <path d="M6.4695129,3.3045152 C6.93018345,2.8797884 7.64608522,2.90202138 8.0795129,3.3545152 L8.0795129,3.3545152 L11.4295129,7.0945152 C11.8208289,7.53708756 11.8208289,8.20194284 11.4295129,8.6445152 L11.4295129,8.6445152 L10.2295129,10.0945152 C9.0795129,11.2445152 9.8695129,13.8745152 12.9895129,16.9845152 C16.1095129,20.0945152 18.7595129,20.8945152 19.9095129,19.7445152 L19.9095129,19.7445152 L21.3595129,18.5345152 C21.8053426,18.1518973 22.4636832,18.1518973 22.9095129,18.5345152 L22.9095129,18.5345152 L26.6495129,21.9245152 C27.1020067,22.3579429 27.1242397,23.0738446 26.6995129,23.5345152 L26.6995129,23.5345152 L24.6295129,26.2545152 C22.5095129,28.3845152 15.6795129,25.8145152 9.9095129,20.0945152 C4.1395129,14.3745152 1.6195129,7.4945152 3.7495129,5.3745152 L3.7495129,5.3745152 Z M26.2095129,3.0045152 C26.4206894,2.99895501 26.6248758,3.08040013 26.7742519,3.22977622 C26.923628,3.37915231 27.0050731,3.58333869 26.9995129,3.7945152 L26.9995129,3.7945152 L26.7195129,13.2545152 C26.7097641,13.558085 26.5202101,13.8267009 26.2374635,13.9376246 C25.9547169,14.0485482 25.633078,13.9804772 25.4195129,13.7645152 L25.4195129,13.7645152 L23.0995129,11.4445152 L18.4795129,16.0745152 C18.2576298,16.2930768 17.901396,16.2930768 17.6795129,16.0745152 L17.6795129,16.0745152 L13.9295129,12.3245152 C13.7109513,12.1026321 13.7109513,11.7463983 13.9295129,11.5245152 L13.9295129,11.5245152 L18.5595129,6.9045152 L16.2395129,4.5845152 C16.0235509,4.37095006 15.9554799,4.04931115 16.0664035,3.7665646 C16.1773272,3.48381805 16.4459431,3.29426401 16.7495129,3.2845152 L16.7495129,3.2845152 Z" id="path-1"></path>
    </defs>
    <g id="outgoing_filled" stroke="none" stroke-width="1" fill="none" fill-rule="evenodd">
        <mask id="mask-2" fill="white">
            <use xlink:href="#path-1"></use>
        </mask>
        <use id="Mask" fill="#2A2825" xlink:href="#path-1"></use>
        <g id="palette/additional/lightblue" mask="url(#mask-2)" fill="#E21B23" fill-rule="nonzero">
            <g transform="translate(-59.000000, -38.000000)" id="color">
                <rect x="0" y="0" width="147" height="106"></rect>
            </g>
        </g>
    </g>
</svg>