<?xml version="1.0" encoding="UTF-8"?>
<svg width="30px" height="30px" viewBox="0 0 30 30" version="1.1" xmlns="http://www.w3.org/2000/svg" xmlns:xlink="http://www.w3.org/1999/xlink">
    <!-- Generator: Sketch 58 (84663) - https://sketch.com -->
    <title>privacy policy</title>
    <desc>Created with Sketch.</desc>
    <defs>
        <path d="M23.1,3 C24.2,3 25,3.9 25,4.9 L25,25 C25,26.05 24.1799587,26.9177686 23.1486946,26.9944872 L23,27 L7,27 C5.9,27 5,26.2 5,25.1 L5,4.9 C5,3.9 5.9,3 6.9,3 L23.1,3 Z M23.1,4.2 L7,4.2 L7,4.3 C6.6,4.3 6.3,4.6 6.3,5 L6.3,25.1 C6.3,25.5 6.6,25.8 7,25.8 L23.1,25.8 C23.5,25.8 23.8,25.5 23.8,25.1 L23.8,4.9 C23.8,4.5 23.5,4.2 23.1,4.2 Z M22.7,18.3 L22.7,23.5 L16,23.5 L16,18.3 L22.7,18.3 Z M21.9,19.2 L16.8,19.2 L16.8,22.7 L21.9,22.7 L21.9,19.2 Z M14.2,19.5 C14.6,19.5 14.8,19.8 14.8,20.1 C14.8,20.4 14.6,20.7 14.2,20.7 L9.1,20.7 C8.7,20.7 8.5,20.4 8.5,20.1 C8.5,19.74 8.743,19.542 9.0103,19.506 L9.1,19.5 L14.2,19.5 Z M19.3,15.8 C20.3,15.8 21.1,16.5 21.2,17.5 L21.2,17.9 L20.4,17.9 L20.4,17.5 C20.4,17 19.9,16.6 19.3,16.6 C18.8,16.6 18.3,17 18.2,17.5 L18.2,17.9 L17.4,17.9 L17.4,17.5 C17.4,16.5 18.3,15.7 19.3,15.8 Z M14.2,15.9 C14.6,15.9 14.8,16.2 14.8,16.5 C14.8,16.8 14.6,17.1 14.2,17.1 L9.1,17.1 C8.7,17.1 8.5,16.8 8.5,16.5 C8.5,16.1 8.8,15.9 9.1,15.9 L14.2,15.9 Z M20.6,12.2 C21,12.2 21.3,12.4 21.3,12.8 C21.3,13.2 21.1,13.5 20.7,13.5 L9.1,13.5 C8.7,13.5 8.5,13.1 8.5,12.8 C8.5,12.5 8.8,12.3 9.1,12.2 L20.6,12.2 Z M20.6,8.6 C21,8.6 21.3,8.8 21.3,9.2 C21.3,9.6 21.1,9.9 20.7,9.9 L9.1,9.9 C8.7,9.9 8.5,9.5 8.5,9.2 C8.5,8.9 8.8,8.7 9.1,8.6 L20.6,8.6 Z" id="path-1"></path>
    </defs>
    <g id="privacy-policy" stroke="none" stroke-width="1" fill="none" fill-rule="evenodd">
        <mask id="mask-2" fill="white">
            <use xlink:href="#path-1"></use>
        </mask>
        <use id="Mask" fill="#000000" fill-rule="nonzero" xlink:href="#path-1"></use>
        <g id="palette/additional/lightblue" mask="url(#mask-2)" fill="#E21B23" fill-rule="nonzero">
            <g transform="translate(-59.000000, -38.000000)" id="color">
                <rect x="0" y="0" width="147" height="106"></rect>
            </g>
        </g>
    </g>
</svg>