<?xml version="1.0" encoding="UTF-8"?>
<svg width="30px" height="30px" viewBox="0 0 30 30" version="1.1" xmlns="http://www.w3.org/2000/svg" xmlns:xlink="http://www.w3.org/1999/xlink">
    <!-- Generator: Sketch 58 (84663) - https://sketch.com -->
    <title>NRS POS</title>
    <desc>Created with Sketch.</desc>
    <defs>
        <path d="M7.92,5 L13.64,5 C14.1309579,5.02950984 14.5214698,5.40974908 14.5739883,5.88800767 L14.58,6 L14.58,8.06 C14.58,8.54206569 14.2171222,8.93937673 13.7496239,8.99367593 L13.64,9 L11.25,9 L11.25,10.59 L16.08,10.59 L16.08,9.35 C16.0850538,8.94067028 16.3930834,8.60534059 16.7892472,8.55620006 L16.89,8.55 L21.29,8.55 C21.697841,8.55 22.0344016,8.85518815 22.0837669,9.2496497 L22.09,9.35 L22.09,10.59 L23.1290893,10.5906206 C23.3426473,10.6063542 23.5459137,10.6947436 23.7038174,10.843173 C23.861721,10.9916025 23.9625026,11.1890182 23.9914033,11.4011958 L24,11.53 L24,17.53 L26,17.53 C26.5128358,17.53 26.9355072,17.9160402 26.9932723,18.4133789 L27,18.53 L27,24 C27,24.5128358 26.6139598,24.9355072 26.1166211,24.9932723 L26,25 L4,25 C3.48716416,25 3.06449284,24.6139598 3.00672773,24.1166211 L3,24 L3,18.53 C3,18.0171642 3.38604019,17.5944928 3.88337887,17.5367277 L4,17.53 L6.07,17.53 L6.07,11.53 C6.06997292,11.0515374 6.42762237,10.6558645 6.89124384,10.597392 L7,10.59 L10.31,10.59 L10.31,9 L7.92,9 C7.46305503,8.96436243 7.09412992,8.6242176 7.01392113,8.18244342 L7,8.07 L7,6 C6.99845435,5.51769812 7.33989026,5.10934274 7.80206857,5.0164982 L7.92,5 L13.64,5 Z M26,18.53 L26,18.53 L4,18.53 L3.97,18.5219615 L3.97,18.5219615 L3.94,18.53 L3.94,24 L3.97,24.0080385 L3.97,24.0080385 L4,24 L26,24 L26.03,24.0080385 L26.03,24.0080385 L26.06,24 L26.06,18.53 L26.03,18.5219615 Z M6.82,20.78 L23.18,20.78 C23.4395738,20.78 23.65,20.9904262 23.65,21.25 C23.65,21.4807323 23.4837373,21.6726319 23.2644831,21.7124277 L23.18,21.72 L6.82,21.72 C6.56042617,21.72 6.35,21.5095738 6.35,21.25 C6.35,21.0192677 6.51626265,20.8273681 6.73551691,20.7875723 L6.82,20.78 L23.18,20.78 Z M23,11.53 L7,11.53 L7,17.53 L23,17.53 L23,11.53 Z M21.55,12.33 C21.8868937,12.33 22.16,12.6031063 22.16,12.94 C22.16,13.2768937 21.8868937,13.55 21.55,13.55 C21.2131063,13.55 20.94,13.2768937 20.94,12.94 C20.94,12.6031063 21.2131063,12.33 21.55,12.33 Z M21.14,9.53 L17,9.53 L17,10.53 L21.14,10.53 L21.14,9.53 Z M13.64,6 L7.92,6 L7.92,8.07 L13.64,8.07 L13.64,6 Z" id="path-1"></path>
    </defs>
    <g id="NRS-POS" stroke="none" stroke-width="1" fill="none" fill-rule="evenodd">
        <mask id="mask-2" fill="white">
            <use xlink:href="#path-1"></use>
        </mask>
        <use id="Mask" fill="#F7931E" fill-rule="nonzero" xlink:href="#path-1"></use>
        <g id="palette/additional/lightblue" mask="url(#mask-2)" fill="#E21B23" fill-rule="nonzero">
            <g transform="translate(-59.000000, -38.000000)" id="color">
                <rect x="0" y="0" width="147" height="106"></rect>
            </g>
        </g>
    </g>
</svg>