<?xml version="1.0" encoding="UTF-8"?>
<svg width="30px" height="30px" viewBox="0 0 30 30" version="1.1" xmlns="http://www.w3.org/2000/svg" xmlns:xlink="http://www.w3.org/1999/xlink">
    <!-- Generator: Sketch 58 (84663) - https://sketch.com -->
    <title>print</title>
    <desc>Created with Sketch.</desc>
    <defs>
        <path d="M21.94,3 C22.9943618,3 23.8581651,3.81587779 23.9345143,4.85073766 L23.94,5 L23.939,12.329 L24.9,12.33 C25.2137132,12.33 25.5164131,12.4368189 25.7594727,12.6303149 L25.8758074,12.7341926 C26.0976361,12.9560214 26.2361449,13.2455949 26.2711917,13.5542863 L26.28,13.71 L26.28,18.54 C26.28,19.2573204 25.732703,19.8468128 25.0329032,19.9136827 L24.9,19.92 L23.94,19.92 L23.9400332,25.47 C23.9426609,25.8731317 23.7850649,26.2608082 23.5018831,26.5477408 C23.2187013,26.8346734 22.8331318,26.9973565 22.43,27 L6.85,27 C6.01831955,26.9945462 5.34545382,26.3216805 5.34,25.49 L5.339,19.92 L4.38,19.92 C4.01400124,19.92 3.66299284,19.7746076 3.40419264,19.5158074 C3.1823639,19.2939786 3.04385514,19.0044051 3.00880833,18.6957137 L3,18.54 L3,13.71 C3,13.3440012 3.14539244,12.9929928 3.40419264,12.7341926 C3.62602139,12.5123639 3.91559493,12.3738551 4.22428629,12.3388083 L4.38,12.33 L5.319,12.329 L5.32,5 C5.32,3.9456382 6.13587779,3.08183488 7.17073766,3.00548574 L7.32,3 L21.94,3 Z M22.43,17.67 L6.85,17.69 C6.76336936,17.6899577 6.68042315,17.7250411 6.62011558,17.7872333 C6.55980802,17.8494255 6.52729278,17.9334117 6.52984352,18.02 L6.52984352,25.49 C6.52729278,25.5765883 6.55980802,25.6605745 6.62011558,25.7227667 C6.68042315,25.7849589 6.76336936,25.82 6.85,25.82 L22.43,25.82 C22.5166306,25.82 22.5995768,25.7849589 22.6598844,25.7227667 C22.720192,25.6605745 22.7527072,25.5765883 22.7501565,25.49 L22.7501565,18 C22.7527072,17.9134117 22.720192,17.8294255 22.6598844,17.7672333 C22.5995768,17.7050411 22.5166306,17.67 22.43,17.67 Z M16.64,22.41 C16.9389769,22.4488409 17.1627019,22.7035107 17.1627019,23.005 C17.1627019,23.3064893 16.9389769,23.5611591 16.64,23.6 L8.64,23.6 C8.34102312,23.5611591 8.11729812,23.3064893 8.11729812,23.005 C8.11729812,22.7035107 8.34102312,22.4488409 8.64,22.41 L16.64,22.41 Z M20.21,19.91 C20.535848,19.91 20.8,20.174152 20.8,20.5 C20.8,20.825848 20.535848,21.09 20.21,21.09 L8.64,21.09 C8.31415201,21.09 8.05000004,20.825848 8.05000004,20.5 C8.05000004,20.174152 8.31415201,19.91 8.64,19.91 L20.21,19.91 Z M23.6192991,13.1392991 C23.4254876,13.3369478 23.3085337,13.6145206 23.31,13.91 C23.312848,14.2888164 23.5117693,14.6356881 23.8297153,14.8307619 L23.94,14.89 L23.9391071,14.902418 C24.0809662,14.9669176 24.2376921,15.0014824 24.4,15 C24.6864338,15 24.961136,14.8862146 25.1636753,14.6836753 C25.3662146,14.481136 25.48,14.2064338 25.48,13.92 C25.4840428,13.4773422 25.2199662,13.0762027 24.8117645,12.904932 C24.4035628,12.7336614 23.9323184,12.8262797 23.6192991,13.1392991 Z M21.96,4.21 L7.32,4.21 C6.92005379,4.21 6.58952285,4.50720209 6.53721177,4.89280168 L6.53,5 L6.529,12.329 L22.749,12.329 L22.75,5 C22.75,4.60005379 22.4527979,4.26952285 22.0671983,4.21721177 L21.96,4.21 Z" id="path-1"></path>
    </defs>
    <g id="print" stroke="none" stroke-width="1" fill="none" fill-rule="evenodd">
        <mask id="mask-2" fill="white">
            <use xlink:href="#path-1"></use>
        </mask>
        <use id="Mask" fill="#F7931E" xlink:href="#path-1"></use>
        <g id="palette/additional/lightblue" mask="url(#mask-2)" fill="#E21B23" fill-rule="nonzero">
            <g transform="translate(-59.000000, -38.000000)" id="color">
                <rect x="0" y="0" width="147" height="106"></rect>
            </g>
        </g>
    </g>
</svg>