<?xml version="1.0" encoding="UTF-8"?>
<svg width="30px" height="30px" viewBox="0 0 30 30" version="1.1" xmlns="http://www.w3.org/2000/svg" xmlns:xlink="http://www.w3.org/1999/xlink">
    <!-- Generator: Sketch 58 (84663) - https://sketch.com -->
    <title>pinless</title>
    <desc>Created with Sketch.</desc>
    <defs>
        <path d="M8.23813743,5.8171269 L11.1581374,8.9771269 C11.7327817,9.59065757 11.754315,10.538123 11.2081374,11.1771269 L10.2081374,12.3571269 C9.71813743,12.8471269 10.2081374,14.6871269 12.7181374,17.2271269 C15.1543139,19.692421 16.9875838,20.1982688 17.5413396,19.777868 L17.5881374,19.7371269 L18.7681374,18.7371269 C19.3452543,18.2321063 20.1880439,18.1984383 20.8005838,18.6361228 L20.9281374,18.7371269 L24.1381374,21.6671269 C24.8310042,22.2499175 24.9205286,23.2839244 24.3381374,23.9771269 L22.6881374,26.1971269 C22.1067832,26.7443177 21.324968,27.0266398 20.5281374,26.9771269 C19.303365,26.914617 18.1033292,26.6086589 16.9981374,26.0771269 C14.1437012,24.7540749 11.5572539,22.9167821 9.36813743,20.6571269 C7.09621947,18.4712223 5.24249155,15.8888811 3.89813743,13.0371269 C2.79885172,10.4914126 2.70380069,8.52220343 3.63988351,7.44332269 L3.74813743,7.3271269 L5.99813743,5.6471269 C6.67088861,5.09808659 7.65595082,5.17284578 8.23813743,5.8171269 Z M6.88201141,6.67512339 L6.82813743,6.7171269 L4.65813743,8.2971269 C4.20813743,8.7971269 4.09813743,10.1571269 5.11813743,12.5071269 C6.38526994,15.199231 8.12632586,17.6414514 10.2581374,19.7171269 C12.3327593,21.8546214 14.7793506,23.5963776 17.4781374,24.8571269 C19.8281374,25.8571269 21.1781374,25.7671269 21.6781374,25.3171269 L23.2881374,23.1471269 C23.4024803,23.0304738 23.4024803,22.8437799 23.2881374,22.7271269 L20.0781374,19.7971269 C19.9832372,19.7122456 19.8478098,19.6980987 19.7394005,19.7546862 L19.6781374,19.7971269 L18.5381374,20.7271269 C17.6806833,21.3583594 16.5366048,21.4400793 15.5981374,20.9371269 C14.1691589,20.2780641 12.8819451,19.3474662 11.8081374,18.1971269 C10.6332092,17.1291911 9.67860679,15.8416668 8.99813743,14.4071269 C8.49518498,13.4686595 8.57690488,12.324581 9.20813743,11.4671269 L10.1481374,10.3171269 C10.249995,10.2032466 10.249995,10.0310072 10.1481374,9.9171269 L7.24813743,6.7171269 C7.1481491,6.61911873 6.99670219,6.60511756 6.88201141,6.67512339 Z M23.6415158,6.26436942 C26.5704087,9.1620374 27.6882726,13.4250962 26.5581374,17.3871269 L25.5581374,17.0871269 C26.5894664,13.4914891 25.5760854,9.61964345 22.9154865,6.99029669 C20.2548876,4.36094993 16.3713388,3.39338648 12.7881374,4.4671269 L12.4881374,3.4671269 C16.437828,2.29459236 20.712623,3.36670143 23.6415158,6.26436942 Z M20.6956146,9.21487008 C22.5684827,11.0603201 23.249242,13.7996433 22.4581374,16.3071269 L21.4581374,15.9971269 C22.0954445,13.8674092 21.5029948,11.5598709 19.9185513,10.0005773 C18.3341078,8.44128374 16.0173862,7.88582811 13.8981374,8.5571269 L13.5781374,7.5571269 C16.0736822,6.72913104 18.8227465,7.36942009 20.6956146,9.21487008 Z M17.8081374,12.1471269 C18.6145913,12.9618471 18.8862536,14.1649231 18.5081374,15.2471269 L17.5081374,14.8871269 C17.7538573,14.1893137 17.5790619,13.4124451 17.0581374,12.8871269 C16.5144335,12.3507623 15.7002771,12.1966259 14.9981374,12.4971269 L14.5981374,11.4971269 C15.7024529,11.0590911 16.961226,11.3139829 17.8081374,12.1471269 Z" id="path-1"></path>
    </defs>
    <g id="pinless" stroke="none" stroke-width="1" fill="none" fill-rule="evenodd">
        <mask id="mask-2" fill="white">
            <use xlink:href="#path-1"></use>
        </mask>
        <use id="Mask" fill="#000000" xlink:href="#path-1"></use>
        <g id="palette/additional/lightblue" mask="url(#mask-2)" fill="#E21B23" fill-rule="nonzero">
            <g transform="translate(-59.000000, -38.000000)" id="color">
                <rect x="0" y="0" width="147" height="106"></rect>
            </g>
        </g>
    </g>
</svg>