<?xml version="1.0" encoding="UTF-8"?>
<svg width="30px" height="30px" viewBox="0 0 30 30" version="1.1" xmlns="http://www.w3.org/2000/svg" xmlns:xlink="http://www.w3.org/1999/xlink">
    <!-- Generator: Sketch 58 (84663) - https://sketch.com -->
    <title>report_transactions</title>
    <desc>Created with Sketch.</desc>
    <defs>
        <path d="M11.12,4 C15.6045522,4 19.24,7.63544783 19.24,12.12 C19.2390629,12.882335 19.1332176,13.6200812 18.9361248,14.319578 L19.75,14.32 C19.8319071,14.3098204 19.9144444,14.3064272 19.9967717,14.3098204 L20.12,14.32 L20.12,12.58 C20.12521,11.7151615 20.7910744,11.0080779 21.6373636,10.9360438 L21.78,10.93 L25.35,10.93 C26.2133083,10.93 26.921761,11.5930154 26.9939435,12.4376317 L27,12.58 L27,24.99 C27,25.8533083 26.3369846,26.561761 25.4923683,26.6339435 L25.35,26.64 L21.78,26.64 C21.4173847,26.6356944 21.0661549,26.5127639 20.78,26.29 C20.535663,26.4826562 20.2421949,26.6006755 19.9347339,26.6317595 L19.78,26.64 L16.21,26.64 C15.850606,26.6458011 15.4992592,26.5333701 15.21,26.32 C14.9603842,26.4995798 14.6675573,26.6075276 14.3630696,26.6337475 L14.21,26.64 L10.64,26.64 C10.2416765,26.6416392 9.8568862,26.4955614 9.56,26.23 C9.29667616,26.4622334 8.96684946,26.6029448 8.61969701,26.6336363 L8.47,26.64 L4.9,26.64 C4.03669173,26.64 3.32821179,25.9769846 3.25602638,25.1323683 L3.24996966,24.99 L3.24996966,21.49 C3.24733983,21.0497382 3.41968605,20.6264525 3.7291228,20.313265 C3.99987995,20.039226 4.35618945,19.8691237 4.7359773,19.8291086 L4.9,19.82 L8.48,19.82 C8.50182548,19.819881 8.52363228,19.8202385 8.54540515,19.8210698 C5.32285825,18.7468453 3,15.7046889 3,12.12 C3,7.63544783 6.63544783,4 11.12,4 Z M14.4910818,19.5057566 C13.4643673,19.9758892 12.3227889,20.2385215 11.12,20.24 C10.8056558,20.24 10.4954835,20.222138 10.1904428,20.1873735 L10.19,25.03 C10.19,25.2509139 10.3491876,25.4346475 10.5591119,25.4727499 L10.64,25.48 L14.15,25.48 C14.2818729,25.4816285 14.4071998,25.4226511 14.49,25.32 L14.4822481,25.175 L14.49,25.03 L14.4910818,19.5057566 Z M19.75,15.52 L18.4923869,15.5201279 C17.8913431,16.8191472 16.9575403,17.9326992 15.8003384,18.7514243 C15.8168693,18.8356638 15.828955,18.919617 15.8351963,19.0037077 L15.84,19.13 L15.84,25.03 C15.8503358,25.1263904 15.8503358,25.2236096 15.84,25.32 C15.9062401,25.4021209 15.9996974,25.4562906 16.1019496,25.4738398 L16.18,25.48 L19.73,25.48 C19.890264,25.4733131 20.036596,25.3870147 20.12,25.25 L20.1166357,25.14 L20.12,25.03 L20.12,15.73 C20.0567631,15.6268506 19.9546911,15.5554662 19.8389631,15.5301376 L19.75,15.52 Z M8.47,21.04 L4.9,21.04 C4.6790861,21.04 4.49535247,21.1991876 4.4572501,21.4091119 L4.45,21.49 L4.45,24.99 C4.45,25.2109139 4.60918764,25.3946475 4.81911193,25.4327499 L4.9,25.44 L8.47,25.44 C8.6909139,25.44 8.87464753,25.2808124 8.9127499,25.0708881 L8.92,24.99 L8.92,21.49 C8.92,21.2414719 8.71852814,21.04 8.47,21.04 Z M25.33,12.13 L21.76,12.13 C21.5390861,12.13 21.3553525,12.2891876 21.3172501,12.4991119 L21.31,12.58 L21.31,15.45 C21.339533,15.5541561 21.3598375,15.6606024 21.370734,15.7681059 L21.38,15.93 L21.38,24.99 C21.3844857,25.0632647 21.3844857,25.1367353 21.38,25.21 C21.4482598,25.3219412 21.5584367,25.3998312 21.6836708,25.4282258 L21.78,25.44 L25.35,25.44 C25.5709139,25.44 25.7546475,25.2808124 25.7927499,25.0708881 L25.8,24.99 L25.78,12.58 C25.78,12.3314719 25.5785281,12.13 25.33,12.13 Z M11.12,5.2 L11.12,5.24 C8.31390704,5.22382615 5.77585687,6.90387273 4.69452683,9.49330213 C3.6131968,12.0827315 4.2026957,15.0688237 6.18693602,17.053064 C8.17117634,19.0373043 11.1572685,19.6268032 13.7466979,18.5454732 C16.3361273,17.4641431 18.0161738,14.926093 18.0001158,12.12 C18.0001158,8.31375616 14.9261802,5.22200141 11.12,5.2 Z M13.28,12.59 L13.27,12.58 C13.4909139,12.58 13.67,12.7590861 13.67,12.98 C13.67,13.1732997 13.5328872,13.3345749 13.350614,13.3718734 L13.27,13.38 L11.6,13.38 L12.3,14.08 C12.3757611,14.1534551 12.4185226,14.2544756 12.4185226,14.36 C12.4185226,14.4655244 12.3757611,14.5665449 12.3,14.64 C12.2265449,14.7157611 12.1255244,14.7585226 12.02,14.7585226 C11.9408567,14.7585226 11.8642469,14.7344692 11.7998995,14.6904809 L11.74,14.64 L9.69,12.59 L13.28,12.59 L13.27,12.58 Z M10.2,9.47 C10.3077169,9.46499813 10.4126975,9.50481834 10.49,9.58 L10.49,9.58 L11.88,10.97 L12.54,11.64 L9,11.64 C8.80588181,11.609016 8.6630476,11.4415754 8.6630476,11.245 C8.6630476,11.0484246 8.80588181,10.880984 9,10.85 L9,10.85 L10.63,10.85 L9.92,10.14 C9.76754285,9.9844626 9.76754285,9.7355374 9.92,9.58 C9.99422766,9.50637721 10.0955088,9.46658821 10.2,9.47 Z" id="path-1"></path>
    </defs>
    <g id="report_transactions" stroke="none" stroke-width="1" fill="none" fill-rule="evenodd">
        <mask id="mask-2" fill="white">
            <use xlink:href="#path-1"></use>
        </mask>
        <use id="Mask" fill="#000000" fill-rule="nonzero" xlink:href="#path-1"></use>
        <g id="palette/additional/lightblue" mask="url(#mask-2)" fill="#E21B23" fill-rule="nonzero">
            <g transform="translate(-59.000000, -38.000000)" id="color">
                <rect x="0" y="0" width="147" height="106"></rect>
            </g>
        </g>
    </g>
</svg>