<?xml version="1.0" encoding="UTF-8"?>
<svg width="30px" height="30px" viewBox="0 0 30 30" version="1.1" xmlns="http://www.w3.org/2000/svg" xmlns:xlink="http://www.w3.org/1999/xlink">
    <!-- Generator: Sketch 58 (84663) - https://sketch.com -->
    <title>report_login history 1</title>
    <desc>Created with Sketch.</desc>
    <defs>
        <path d="M19.3071237,7.23922651 C19.3977704,7.30902449 19.4642094,7.39860616 19.5050448,7.49722965 L19.5171237,7.50922651 L19.3371237,6.11922651 C19.3144493,5.9700211 19.354082,5.81805358 19.446737,5.69892576 C19.5393919,5.57979794 19.6769278,5.50397729 19.8271237,5.48922651 C20.1118265,5.4667813 20.3692236,5.64415629 20.4550626,5.9081688 L20.4771237,5.99922651 L20.9171237,9.30922651 L17.5771237,9.64922651 C17.2651017,9.67320852 16.9886362,9.44940314 16.9471237,9.13922651 C16.926283,8.99327394 16.9660245,8.84514643 17.0571237,8.72922651 C17.1283705,8.63073616 17.2317821,8.56176425 17.3479291,8.533048 L17.4371237,8.51922651 L18.8271237,8.36922651 L18.8168264,8.3615571 C18.7181286,8.34494529 18.6219591,8.30454984 18.5371237,8.23922651 C17.0109791,6.9876886 15.1007917,6.29917375 13.1271237,6.28922651 C8.31672349,6.28922651 4.41712366,10.1888263 4.41712366,14.9992265 C4.41712366,19.8096267 8.31672349,23.7092265 13.1271237,23.7092265 C14.4211094,23.714161 15.6995281,23.4270295 16.8671237,22.8692265 C17.0747497,22.7440552 17.3362859,22.7513853 17.536575,22.8879894 C17.7368642,23.0245935 17.8391566,23.2654071 17.7984119,23.5043972 C17.7576673,23.7433874 17.5813614,23.9367035 17.3471237,23.9992265 C16.0327911,24.6435339 14.5908197,24.9852333 13.1271237,24.9992265 C8.7131448,25.0550002 4.78476516,22.2099813 3.46100249,17.9988089 C2.13723981,13.7876366 3.73129376,9.20666603 7.38331144,6.72693078 C11.0353291,4.24719552 15.8812503,4.45539611 19.3071237,7.23922651 Z M26.5071237,15.2892265 C26.8495402,15.2892265 27.1271237,15.56681 27.1271237,15.9092265 L27.1271237,20.9992265 C27.1325417,21.167098 27.0696202,21.3299848 26.9527553,21.4506196 C26.8358903,21.5712544 26.6750825,21.6393139 26.5071237,21.6392266 L19.0571237,21.6392266 C18.7147071,21.6392266 18.4371237,21.3616431 18.4371237,21.0192265 L18.4371237,15.9092265 C18.4371237,15.56681 18.7147071,15.2892265 19.0571237,15.2892265 L26.5071237,15.2892265 Z M25.8871237,16.5292265 L19.6771237,16.5292265 L19.6771237,20.3992265 L25.8871237,20.3992265 L25.8871237,16.5292265 Z M22.7821237,17.3139319 C23.147003,17.3139319 23.4541969,17.5868811 23.4971237,17.9492265 C23.4926101,18.1074312 23.4278784,18.2566393 23.3182012,18.367527 L23.2471237,18.4292265 L23.5071237,19.4292265 C23.5160959,19.4792352 23.5022303,19.5306357 23.4693251,19.5693477 C23.4473883,19.5951557 23.4185226,19.6135208 23.386664,19.6226599 L23.3371237,19.6292265 L22.2371237,19.6292265 C22.1846131,19.6331774 22.133236,19.6125708 22.098009,19.5734297 C22.0745244,19.5473356 22.0599852,19.5149681 22.0556993,19.4809392 L22.0571237,19.4292265 L22.3271237,18.4292265 C22.1684749,18.320199 22.0717721,18.1416708 22.0671237,17.9492265 C22.1100504,17.5868811 22.4172443,17.3139319 22.7821237,17.3139319 Z M12.0971237,8.1792265 C12.4395402,8.1792265 12.7171237,8.45680996 12.7171237,8.79922651 L12.7671237,15.3792265 L16.1271237,17.5192265 C16.3578068,17.669006 16.4622388,17.9528599 16.3836302,18.2164302 C16.3050215,18.4800005 16.0621646,18.660277 15.7871237,18.6592311 L15.7571237,18.6592311 C15.6397086,18.6589005 15.5249695,18.6241311 15.4271237,18.5592265 L11.7771237,16.2492265 C11.5994814,16.1353892 11.4906175,15.940185 11.4871237,15.7292265 L11.4871237,8.79922651 C11.4844428,8.63571881 11.5475251,8.47798149 11.6622141,8.36141229 C11.7539654,8.26815694 11.8725977,8.20751125 12.0001078,8.18698318 L12.0971237,8.1792265 Z M22.7671237,11.1792265 C23.5230075,11.150562 24.253647,11.4537774 24.7671237,12.0092265 C25.3152899,12.7285486 25.5691394,13.6295357 25.4771237,14.5292265 C25.4450427,14.8224234 25.2108509,15.0524332 24.9171237,15.0792265 L24.8471237,15.0792265 C24.5064376,15.0374547 24.2618831,14.7306499 24.2971237,14.3892265 C24.3560416,13.8365686 24.210158,13.2814995 23.8871237,12.8292265 C23.5997618,12.5356421 23.1965392,12.38535 22.7871237,12.4192265 C22.3773144,12.3824594 21.9728913,12.5331989 21.6871237,12.8292265 C21.3590257,13.2832026 21.20952,13.8420691 21.2671237,14.3992265 C21.3021238,14.7386155 21.0563307,15.0425051 20.7171237,15.0792265 C20.3777347,15.1142267 20.073845,14.8684336 20.0371237,14.5292265 C19.950208,13.6237779 20.2112139,12.7191959 20.7671237,11.9992265 C21.2816339,11.4463338 22.0125709,11.1466497 22.7671237,11.1792265 Z" id="path-1"></path>
    </defs>
    <g id="report_login-history-1" stroke="none" stroke-width="1" fill="none" fill-rule="evenodd">
        <mask id="mask-2" fill="white">
            <use xlink:href="#path-1"></use>
        </mask>
        <use id="Mask" fill="#000000" xlink:href="#path-1"></use>
        <g id="palette/additional/lightblue" mask="url(#mask-2)" fill="#E21B23" fill-rule="nonzero">
            <g transform="translate(-59.000000, -38.000000)" id="color">
                <rect x="0" y="0" width="147" height="106"></rect>
            </g>
        </g>
    </g>
</svg>