<?xml version="1.0" encoding="UTF-8"?>
<svg width="30px" height="30px" viewBox="0 0 30 30" version="1.1" xmlns="http://www.w3.org/2000/svg" xmlns:xlink="http://www.w3.org/1999/xlink">
    <!-- Generator: Sketch 58 (84663) - https://sketch.com -->
    <title>report_money transfer</title>
    <desc>Created with Sketch.</desc>
    <defs>
        <path d="M19.8,15.0208815 L4.536,15.0208815 C4.384125,15.0233745 4.23758035,14.9648389 4.12927433,14.858338 C4.0209683,14.751837 3.95999999,14.6062968 3.95999999,14.4544 C3.95999999,14.1680956 4.16888603,13.9305791 4.44256981,13.8859389 L4.536,13.8784 L15.9216,13.8784 C16.1333862,12.5159393 17.1409901,11.4210152 18.4661786,11.0886411 L18.6576,11.0464 L18.6576,7.9744 C17.3032499,7.71577222 16.2437112,6.67102238 15.9572173,5.33516382 L15.9216,5.1424 L4.536,5.1424 C4.22159562,5.14244367 3.96524007,4.89036072 3.95999999,4.576 C3.95999999,4.28969559 4.16888603,4.05217912 4.44256981,4.00753887 L4.536,4 L19.8,4 L19.8,12.64 L20.0112,12.64 C20.1668973,12.6343121 20.3224935,12.6537617 20.472,12.6976 L20.472,12.6976 L20.472,11.0176 C20.4694437,10.6009284 20.6331769,10.2004447 20.9269113,9.9049082 C21.2206458,9.6093717 21.6201206,9.44317033 22.0368,9.44317033 L22.0368,9.44317033 L25.4256,9.44317033 C25.8439408,9.44062552 26.2458931,9.60567248 26.5417103,9.90148968 C26.8375275,10.1973069 27.0025745,10.5992592 27.0000297,11.0176 L27.0000297,11.0176 L27.0000297,22.7968 C27.0006525,23.2297669 26.8229717,23.6438936 26.5087533,23.9417654 C26.1945349,24.2396371 25.7715149,24.3949609 25.3392,24.3712 L21.9504,24.3712 C21.5971521,24.3591169 21.258557,24.2270649 20.9904,23.9968 C20.7053895,24.2367073 20.3453351,24.3691801 19.9728,24.3712 L19.9728,24.3712 L16.584,24.3712 C16.2313167,24.3649255 15.8918473,24.2359271 15.624,24.0064 C15.3414305,24.2428869 14.9844709,24.3720723 14.616,24.3712 L14.616,24.3712 L11.2272,24.3712 C10.8573714,24.3702221 10.4999955,24.2374825 10.2192,23.9968 C9.93418948,24.2367073 9.57413512,24.3691801 9.2016,24.3712 L9.2016,24.3712 L5.8128,24.3712 C4.94703426,24.3659208 4.248,23.6625818 4.248,22.7968 L4.248,22.7968 L4.248,19.4752 C4.27382184,18.6281961 4.96541607,17.9535735 5.8128,17.9488 L5.8128,17.9488 L9.2016,17.9488 C9.35432742,17.9509339 9.5060793,17.9735353 9.6528,18.016 L9.6528,18.016 L9.6528,17.248 C9.65804085,16.380663 10.359863,15.6788409 11.2272,15.6736 L11.2272,15.6736 L14.616,15.6736 C14.7658816,15.6717411 14.9150559,15.6944415 15.0576,15.7408 L15.0576,15.7408 L15.0576,15.0688 L16.2,15.0688 L16.2,22.8448 C16.199942,23.0796877 16.3875703,23.2715803 16.6224,23.2768 L16.6224,23.2768 L20.0112,23.2768 C20.249787,23.2768 20.4432,23.083387 20.4432,22.8448 L20.4432,22.8448 L20.4432,14.2048 C20.4379803,13.9699703 20.2460877,13.782342 20.0112,13.7824 L20.0112,13.7824 L19.8,13.7824 L19.8,15.0208815 Z M9.2016,19.0432 L5.8128,19.0432 C5.57797029,19.0484197 5.390342,19.2403123 5.39039999,19.4752 L5.39039999,19.4752 L5.39039999,22.7968 C5.390342,23.0316877 5.57797029,23.2235803 5.8128,23.2288 L5.8128,23.2288 L9.2016,23.2288 C9.44018701,23.2288 9.6336,23.035387 9.6336,22.7968 L9.6336,22.7968 L9.6336,19.4752 C9.6336,19.236613 9.44018701,19.0432 9.2016,19.0432 L9.2016,19.0432 Z M14.616,16.768 L11.2272,16.768 C10.988613,16.768 10.7952,16.961413 10.7952,17.2 L10.7952,17.2 L10.7952,22.7968 C10.7952,23.035387 10.988613,23.2288 11.2272,23.2288 L11.2272,23.2288 L14.616,23.2288 C14.8508297,23.2235803 15.038458,23.0316877 15.0384,22.7968 L15.0384,22.7968 L15.0384,17.2 C15.038458,16.9651123 14.8508297,16.7732197 14.616,16.768 L14.616,16.768 Z M25.4256,10.5856 L22.0368,10.5856 C21.8019703,10.5908197 21.614342,10.7827123 21.6144,11.0176 L21.6144,11.0176 L21.6144,22.7968 C21.614342,23.0316877 21.8019703,23.2235803 22.0368,23.2288 L22.0368,23.2288 L25.4256,23.2288 C25.664187,23.2288 25.8576,23.035387 25.8576,22.7968 L25.8576,22.7968 L25.8576,11.0176 C25.8576,10.779013 25.664187,10.5856 25.4256,10.5856 L25.4256,10.5856 Z M18.6576,12.2176 C17.9304065,12.4346011 17.3613695,12.9955729 17.1304141,13.7107165 L17.0832,13.8784 L18.6576,13.8784 L18.6576,12.2176 Z M11.8512,5.58399988 C12.8847794,5.58373834 13.8748238,6.00014728 14.5974995,6.73908316 C15.3201751,7.47801904 15.7144556,8.47708226 15.6912,9.5104 C15.7144556,10.5437177 15.3201751,11.542781 14.5974995,12.2817168 C13.8748238,13.0206527 12.8847794,13.4370617 11.8512,13.4368001 C10.8176206,13.4370617 9.82757621,13.0206527 9.10490053,12.2817168 C8.38222485,11.542781 7.98794443,10.5437177 8.0112,9.5104 C7.98794443,8.47708226 8.38222485,7.47801904 9.10490053,6.73908316 C9.82757621,6.00014728 10.8176206,5.58373834 11.8512,5.58399988 Z M7.3296,11.5744 C7.64396072,11.5796401 7.89604367,11.8359956 7.896,12.1504 C7.896,12.4319327 7.69059541,12.6654905 7.42147302,12.7093868 L7.3296,12.7168 L4.536,12.7168 C4.384125,12.7193745 4.23758035,12.6608389 4.12927433,12.554338 C4.0209683,12.447837 3.95999999,12.3022968 3.95999999,12.1504 C3.95999999,11.8640956 4.16888603,11.6265791 4.44256981,11.5819389 L4.536,11.5744 L7.3296,11.5744 Z M11.88,6.7264 C10.3764034,6.76310204 9.18436538,8.00659498 9.2112,9.5104 C9.18409343,11.0033121 10.3589526,12.2422545 11.8512,12.2944 C12.5743391,12.2792839 13.2618359,11.977438 13.7623673,11.455301 C14.2628986,10.933164 14.5354389,10.2335323 14.52,9.5104 C14.5523305,8.0154648 13.3745448,6.77343622 11.88,6.7264 Z M12.1104,6.9664 L12.1104,7.4272 C12.4536758,7.45675624 12.7767414,7.59660144 13.0323307,7.82376509 L13.1376,7.9264 L12.8784,8.2528 C12.7099922,8.06920491 12.4939615,7.93757572 12.2557703,7.87159856 L12.1104,7.84 L12.1104,9.0688 C12.648,9.184 13.2144006,9.4336 13.2144006,10.144 C13.2146983,10.432587 13.0968768,10.7087233 12.8883317,10.9082013 C12.7095787,11.0791824 12.4775218,11.1810733 12.2333215,11.1984348 L12.1104,11.2 L12.1104,11.68 L11.7456,11.68 L11.7456,11.1904 C11.335037,11.1801618 10.9452047,11.0165551 10.6512092,10.7350301 L10.5456,10.624 L10.8048,10.2784 C11.0159258,10.530791 11.3061144,10.7021527 11.6260214,10.7663327 L11.7648,10.7872 L11.7648,9.424 C11.2272,9.3184 10.68,9.1264 10.68,8.464 C10.6896661,8.18191047 10.8139227,7.91595467 11.0240812,7.72753669 C11.204217,7.56603557 11.434117,7.47346777 11.673377,7.46358645 L11.7936,7.4656 L11.7936,6.9664 L12.1104,6.9664 Z M12.168,9.5872 L12.168,10.6336 C12.4543044,10.6336 12.6864,10.4015044 12.6864,10.1152 C12.6864,9.808 12.456,9.6832 12.168,9.5872 Z M7.3296,8.9728 C7.64396072,8.97804007 7.89604367,9.23439562 7.896,9.5488 C7.896,9.83033267 7.69059541,10.0638905 7.42147302,10.1077868 L7.3296,10.1152 L4.536,10.1152 C4.384125,10.1177745 4.23758035,10.0592389 4.12927433,9.95273797 C4.0209683,9.84623705 3.95999999,9.70069682 3.95999999,9.5488 C3.95999999,9.26249559 4.16888603,9.02497912 4.44256981,8.98033887 L4.536,8.9728 L7.3296,8.9728 Z M11.64,9.0592 L11.64,8.01279988 C11.4991196,8.01270334 11.3642672,8.06994801 11.266477,8.17136 C11.1686869,8.27277199 11.1163822,8.4096162 11.1216,8.5504 C11.1216,8.8064 11.3036444,8.92586667 11.5463704,9.02342058 L11.64,9.0592 L11.64,8.01279988 Z M7.3296,6.304 C7.64396072,6.30924007 7.89604367,6.56559562 7.896,6.88 C7.903899,7.03514349 7.84773054,7.18672192 7.74064177,7.29925588 C7.65497076,7.38928305 7.54272699,7.4479996 7.42172004,7.46778224 L7.3296,7.4752 L4.536,7.4752 C4.37899601,7.47806599 4.22784839,7.41562324 4.11864626,7.30278104 C4.00944413,7.18993884 3.95198926,7.03682568 3.96,6.88 C3.96,6.59369559 4.16888603,6.35617912 4.44256981,6.31153887 L4.536,6.304 L7.3296,6.304 Z M18.6576,5.1424 L17.0832,5.1424 C17.2594071,5.88104578 17.7897163,6.47994077 18.4924521,6.74743952 L18.6576,6.8032 L18.6576,5.1424 Z" id="path-1"></path>
    </defs>
    <g id="report_money-transfer" stroke="none" stroke-width="1" fill="none" fill-rule="evenodd">
        <mask id="mask-2" fill="white">
            <use xlink:href="#path-1"></use>
        </mask>
        <use id="Mask" fill="#2A2825" xlink:href="#path-1"></use>
        <g id="palette/additional/lightblue" mask="url(#mask-2)" fill="#E21B23" fill-rule="nonzero">
            <g transform="translate(-55.560000, -36.320000)" id="color">
                <rect x="0" y="0" width="141" height="102"></rect>
            </g>
        </g>
    </g>
</svg>