<?xml version="1.0" encoding="UTF-8"?>
<svg width="30px" height="30px" viewBox="0 0 30 30" version="1.1" xmlns="http://www.w3.org/2000/svg" xmlns:xlink="http://www.w3.org/1999/xlink">
    <!-- Generator: Sketch 58 (84663) - https://sketch.com -->
    <title>report_files</title>
    <desc>Created with Sketch.</desc>
    <defs>
        <path d="M20.9000288,3 C21.3632433,3 21.8073414,3.18468533 22.1339436,3.51316464 C22.4605459,3.84164395 22.6426909,4.28679311 22.6400576,4.75 L22.64,5.799 L23.7000288,5.8 C24.1053415,5.8 24.4960182,5.94139971 24.8061523,6.19680511 L24.9339436,6.31316464 C25.2197206,6.60058404 25.3948975,6.97732879 25.4324623,7.37733647 L25.4400576,7.55 L25.4400576,25.25 C25.4426909,25.7132069 25.2605459,26.158356 24.9339436,26.4868354 C24.6481666,26.7742548 24.272432,26.9515819 23.872646,26.9914227 L23.7000288,27 L9.54002878,27 C9.07681424,27 8.63271619,26.8153147 8.3061139,26.4868354 C8.0203369,26.199416 7.84516002,25.8226712 7.80759522,25.4226635 L7.8,25.25 L7.8,24.2 L6.74002878,24.2 C5.77743799,24.1944994 5,23.4126065 5,22.45 L5,4.75 C4.99736662,4.28679311 5.17951162,3.84164395 5.5061139,3.51316464 C5.83271619,3.18468533 6.27681424,3 6.74002878,3 L20.9000288,3 Z M23.7000288,7 L22.64,6.999 L22.6400576,22.45 C22.6400576,23.4126065 21.8626196,24.1944994 20.9000288,24.2 L9.01,24.2 L9.01002878,25.23 C9.01002878,25.3424518 9.04576582,25.451219 9.1109505,25.5411177 L9.16526218,25.6047666 C9.24477761,25.684282 9.34695754,25.7359221 9.45661804,25.7533976 L9.54002878,25.76 L23.7000288,25.76 C23.9602163,25.76 24.1766136,25.5725123 24.2214898,25.3252682 L24.2300288,25.23 L24.2300288,7.53 C24.2300288,7.26981252 24.0425411,7.05341513 23.7952969,7.00853901 L23.7000288,7 Z M20.9000288,4.22 L6.74002878,4.22 C6.45123046,4.22544999 6.22002877,4.46115027 6.22002877,4.75 L6.22002877,22.45 C6.22002877,22.7427109 6.45731786,22.98 6.75002878,22.98 L20.9000288,22.98 C21.1927397,22.98 21.4300288,22.7427109 21.4300288,22.45 L21.4300288,4.75 C21.4300288,4.60943526 21.3741897,4.47462769 21.2747954,4.37523341 C21.1754011,4.27583913 21.0405935,4.22 20.9000288,4.22 Z M19.0800288,17.38 C19.4169225,17.38 19.6900288,17.6531063 19.6900288,17.99 C19.6900288,18.3268937 19.4169225,18.6 19.0800288,18.6 L8.64002878,18.6 C8.47915102,18.6000223 8.32500342,18.5354374 8.21218966,18.4207434 C8.09937591,18.3060494 8.03734748,18.1508554 8.03994533,17.99 C8.03994533,17.6569732 8.30704675,17.3854595 8.64002878,17.38 L19.0800288,17.38 Z M19.0800288,14.22 C19.4169225,14.22 19.6900288,14.4931063 19.6900288,14.83 C19.6900288,15.1668937 19.4169225,15.44 19.0800288,15.44 L8.64002878,15.44 C8.30704675,15.4345405 8.03994533,15.1630268 8.03994533,14.83 C8.03734748,14.6691446 8.09937591,14.5139506 8.21218966,14.3992566 C8.32500342,14.2845626 8.47915102,14.2199777 8.64002878,14.22 L19.0800288,14.22 Z M19.3627428,11.3677233 C19.4897138,11.5674353 19.4897138,11.8225647 19.3627428,12.0222767 C19.2357718,12.2219887 19.0047459,12.3302387 18.7700288,12.3 L8.64002878,12.3 C8.33578183,12.2608038 8.10797106,12.0017614 8.10797106,11.695 C8.10797106,11.3882386 8.33578183,11.1291962 8.64002878,11.09 L18.7700288,11.09 C19.0047459,11.0597613 19.2357718,11.1680113 19.3627428,11.3677233 Z M18.7700288,7.92 C19.1069225,7.92 19.3800288,8.1931063 19.3800288,8.53 C19.3800288,8.8668937 19.1069225,9.14000001 18.7700288,9.14000001 L8.64002878,9.14000001 C8.47915102,9.14002235 8.32500342,9.07543737 8.21218966,8.96074339 C8.09937591,8.84604941 8.03734748,8.69085541 8.03994533,8.53 C8.03994533,8.19697322 8.30704675,7.92545945 8.64002878,7.92 L18.7700288,7.92 Z" id="path-1"></path>
    </defs>
    <g id="report_files" stroke="none" stroke-width="1" fill="none" fill-rule="evenodd">
        <mask id="mask-2" fill="white">
            <use xlink:href="#path-1"></use>
        </mask>
        <use id="Mask" fill="#000000" fill-rule="nonzero" xlink:href="#path-1"></use>
        <g id="palette/additional/lightblue" mask="url(#mask-2)" fill="#E21B23" fill-rule="nonzero">
            <g transform="translate(-59.000000, -38.000000)" id="color">
                <rect x="0" y="0" width="147" height="106"></rect>
            </g>
        </g>
    </g>
</svg>