<?xml version="1.0" encoding="UTF-8"?>
<svg width="30px" height="30px" viewBox="0 0 30 30" version="1.1" xmlns="http://www.w3.org/2000/svg" xmlns:xlink="http://www.w3.org/1999/xlink">
    <!-- Generator: Sketch 58 (84663) - https://sketch.com -->
    <title>receipt</title>
    <desc>Created with Sketch.</desc>
    <defs>
        <path d="M26.5170124,3 L26.5170124,5.3 L25.9670124,5.3 C25.3096394,5.24062257 24.6572843,5.45807429 24.1670124,5.9 C23.4909842,6.783606 23.1828286,7.89439972 23.3070124,9 L23.3070124,26.8 L21.7670124,26.87 L19.7670124,25.14 L17.6370124,27 L15.4270124,25.13 L13.1270124,27 L10.7670124,25.12 L8.36701238,27 L6.17701238,25.15 L4.31701238,26.87 L3.01701238,26.79 L3.01701238,9.12 C2.90545394,7.58787585 3.34524579,6.0663379 4.25701238,4.83 C5.28701238,3.6 6.90701238,3 9.20701238,3 L26.5170124,3 Z M25.3470124,4.1 L9.20701238,4.1 C7.25701238,4.1 5.91701238,4.57 5.10701238,5.54 C4.36368242,6.57890665 4.00967063,7.84626885 4.10701238,9.12 L4.10701238,25.55 L6.10701238,23.68 L8.36701238,25.57 L10.7870124,23.71 L13.0970124,25.56 L15.4170124,23.7 L17.5970124,25.55 L19.7670124,23.68 L22.1570124,25.74 L22.1570124,9 C22.0191522,7.6026652 22.4478611,6.20846046 23.3470124,5.13 C23.8897603,4.60957835 24.5970735,4.29482401 25.3470124,4.24 L25.3470124,4.1 Z M13.3570124,19.35 C13.660769,19.35 13.9070124,19.5962434 13.9070124,19.9 C13.9070124,20.0458691 13.8490661,20.1857637 13.7459211,20.2889087 C13.6427761,20.3920537 13.5028815,20.45 13.3570124,20.45 L7.09701238,20.45 C6.79159645,20.4500487 6.54246624,20.2053672 6.53701238,19.9 C6.53701238,19.7523817 6.59630494,19.6109499 6.70162297,19.5075126 C6.80694099,19.4040752 6.94941846,19.347316 7.09701238,19.35 L13.3570124,19.35 Z M18.9970124,15.63 C19.300769,15.63 19.5471069,15.8762434 19.5471069,16.18 C19.549755,16.3266927 19.4926899,16.4681865 19.3889444,16.571932 C19.2851989,16.6756775 19.1437051,16.7327426 18.9970124,16.73 L7.09701238,16.73 C6.94941846,16.732684 6.80694099,16.6759248 6.70162297,16.5724874 C6.59630494,16.4690501 6.53701238,16.3276183 6.53701238,16.18 C6.54246624,15.8746328 6.79159645,15.6299513 7.09701238,15.63 L18.9970124,15.63 Z M7.09701238,11.89 L18.9970124,11.89 C19.274931,11.9273893 19.4823465,12.1645776 19.4823465,12.445 C19.4823465,12.7254224 19.274931,12.9626107 18.9970124,13 L7.09701238,13 C6.88094324,13.0290685 6.66764455,12.9300953 6.55033135,12.7463333 C6.43301816,12.5625713 6.43301816,12.3274287 6.55033135,12.1436667 C6.66764455,11.9599047 6.88094324,11.8609315 7.09701238,11.89 Z M18.9970124,8.2 C19.300769,8.2 19.5471069,8.44624339 19.5471069,8.75 C19.549755,8.89669267 19.4926899,9.03818651 19.3889444,9.14193202 C19.2851989,9.24567753 19.1437051,9.30274264 18.9970124,9.3 L7.09701238,9.3 C6.94941846,9.30268397 6.80694099,9.24592475 6.70162297,9.14248741 C6.59630494,9.03905006 6.53701238,8.89761833 6.53701238,8.75 C6.54246624,8.44463276 6.79159645,8.1999513 7.09701238,8.2 L18.9970124,8.2 Z" id="path-1"></path>
    </defs>
    <g id="receipt" stroke="none" stroke-width="1" fill="none" fill-rule="evenodd">
        <mask id="mask-2" fill="white">
            <use xlink:href="#path-1"></use>
        </mask>
        <use id="Mask" fill="#000000" fill-rule="nonzero" xlink:href="#path-1"></use>
        <g id="palette/additional/lightblue" mask="url(#mask-2)" fill="#E21B23" fill-rule="nonzero">
            <g transform="translate(-59.000000, -38.000000)" id="color">
                <rect x="0" y="0" width="147" height="106"></rect>
            </g>
        </g>
    </g>
</svg>