<?xml version="1.0" encoding="UTF-8"?>
<svg width="30px" height="30px" viewBox="0 0 30 30" version="1.1" xmlns="http://www.w3.org/2000/svg" xmlns:xlink="http://www.w3.org/1999/xlink">
    <!-- Generator: Sketch 58 (84663) - https://sketch.com -->
    <title>report_commisions</title>
    <desc>Created with Sketch.</desc>
    <defs>
        <path d="M14.5687663,3.62806179 C17.6363106,4.90196521 19.6340457,7.89869683 19.6300061,11.2202389 C19.6289965,12.0482501 19.505438,12.8475097 19.2765013,13.6008679 L19.67,13.6002389 C19.7962054,13.5849513 19.9237946,13.5849513 20.05,13.6002389 L20.05,13.6002389 L20.05,11.8402389 C20.05,10.9179233 20.7976845,10.1702389 21.72,10.1702389 L21.72,10.1702389 L25.33,10.1702389 C26.2523155,10.1702389 27,10.9179233 27,11.8402389 L27,11.8402389 L27,24.3802389 C27,24.8301688 26.8187029,25.261116 26.4968119,25.5754774 C26.1749209,25.8898388 25.7398008,26.0610157 25.29,26.0502389 L25.29,26.0502389 L21.68,26.0502389 C21.3162211,26.043075 20.9648718,25.9165892 20.68,25.6902389 C20.3940561,25.914659 20.0433746,26.0409043 19.68,26.0502389 L19.68,26.0502389 L16.08,26.0502389 C15.7202525,26.0481686 15.3703214,25.9326913 15.08,25.7202389 C14.7899963,25.933308 14.4398593,26.0488532 14.08,26.0502389 L14.08,26.0502389 L10.47,26.0502389 C10.0672564,26.0497063 9.67896907,25.900091 9.38,25.6302389 C9.0764849,25.8991443 8.68549753,26.0484303 8.28,26.0502389 L8.28,26.0502389 L4.67,26.0502389 C3.74768447,26.0502389 3,25.3025544 3,24.3802389 L3,24.3802389 L3,20.8402389 C3.01636033,19.9296601 3.7592743,19.2000919 4.67,19.2002389 L4.67,19.2002389 L8.28,19.2002389 C8.45635081,19.2008518 8.63161989,19.2278163 8.8,19.2802389 L8.8,19.2802389 L8.80010277,18.9913667 C6.59143577,18.2473309 4.75724694,16.5806029 3.83399702,14.3497558 C2.56383318,11.2806612 3.26808072,7.74861056 5.61819818,5.4013556 C7.96831565,3.05410064 11.501222,2.35415837 14.5687663,3.62806179 Z M15.7615345,18.1796899 L15.6609226,18.2408425 C15.6672101,18.300304 15.6702542,18.3601905 15.67,18.4202389 L15.67,18.4202389 L15.67,24.4202389 C15.6798276,24.5199974 15.6798276,24.6204803 15.67,24.7202389 C15.7616731,24.81538 15.8878819,24.8694695 16.02,24.8702389 L16.02,24.8702389 L19.62,24.8702389 C19.7849236,24.8708221 19.9375387,24.7830684 20.02,24.6402389 C20.0155143,24.5669741 20.0155143,24.4935036 20.02,24.4202389 L20.02,24.4202389 L20.02,15.0202389 C19.9364131,14.8911055 19.7938114,14.8122993 19.64,14.8102389 L19.64,14.8102389 L18.8005134,14.8106109 C18.1222422,16.1984366 17.0640833,17.3665738 15.7615345,18.1796899 Z M11.42,19.4202389 C10.9385412,19.4202389 10.463958,19.3781885 10.0005048,19.2969314 L10,24.3802389 C9.99424879,24.5065661 10.041917,24.6294832 10.1313363,24.7189026 C10.2207557,24.8083219 10.3436728,24.8559901 10.47,24.8502389 L10.47,24.8502389 L13.97,24.8502389 C14.0996505,24.8515553 14.2235685,24.7968856 14.31,24.7002389 C14.3001724,24.6004803 14.3001724,24.4999974 14.31,24.4002389 L14.31,24.4002389 L14.3107327,18.8968588 C13.4115694,19.2351749 12.4373749,19.4202389 11.42,19.4202389 Z M8.28,20.3802389 L4.67,20.3802389 C4.41986269,20.3856779 4.21994087,20.5900424 4.21999999,20.8402389 L4.21999999,20.8402389 L4.21999999,24.3802389 C4.21999999,24.628767 4.42147186,24.8302389 4.67,24.8302389 L4.67,24.8302389 L8.28,24.8302389 C8.52852814,24.8302389 8.73000001,24.628767 8.73000001,24.3802389 L8.73000001,24.3802389 L8.73000001,20.8402389 C8.73005913,20.5900424 8.53013731,20.3856779 8.28,20.3802389 L8.28,20.3802389 Z M25.32,11.3802389 L21.71,11.3802389 C21.4598627,11.3856779 21.2599409,11.5900424 21.26,11.8402389 L21.26,11.8402389 L21.26,14.7402389 C21.3090956,14.8988435 21.3327225,15.0642317 21.33,15.2302389 L21.33,15.2302389 L21.33,24.3802389 C21.3347501,24.4534953 21.3347501,24.5269825 21.33,24.6002389 C21.4058425,24.7446814 21.5568947,24.8337635 21.72,24.8303398 L21.72,24.8303398 L25.33,24.8303398 C25.5785281,24.8303398 25.78,24.628767 25.78,24.3802389 L25.78,24.3802389 L25.77,11.8402389 C25.7700591,11.5900424 25.5701373,11.3856779 25.32,11.3802389 L25.32,11.3802389 Z M11.42,4.23023888 C7.55400675,4.23023888 4.42,7.36424563 4.42,11.2302389 C4.42,15.0962321 7.55400675,18.2302389 11.42,18.2302389 C15.2859932,18.2302389 18.42,15.0962321 18.42,11.2302389 C18.42,7.36424563 15.2859932,4.23023888 11.42,4.23023888 Z M11.74,7.96023888 L11.74,8.53023888 C12.2392933,8.48231561 12.7413827,8.58691757 13.18,8.83023888 C13.4758039,9.12342639 13.6197235,9.53673379 13.57,9.95023888 L13.57,10.0802389 L12.66,10.0802389 L12.66,9.98023888 C12.66,9.57023888 12.4,9.36023888 11.88,9.36023888 L11.74,9.34023888 L11.74,10.7402389 L12,10.7402389 C12.4959905,10.7237421 12.9860166,10.8523305 13.41,11.1102389 C13.6938874,11.4139416 13.8292824,11.8274452 13.78,12.2402389 C13.8299153,12.6917338 13.6843392,13.1430196 13.38,13.4802389 C12.9706408,13.7621348 12.4745646,13.8896973 11.98,13.8402389 L11.74,13.8402389 L11.74,14.4702389 L11.1,14.4702389 L11.1,13.8402389 L10.92,13.8402389 C10.4317683,13.896938 9.9386568,13.787749 9.52,13.5302389 C9.21547273,13.2128688 9.06558625,12.7778324 9.11,12.3402389 L9.11,12.1202389 L10.05,12.1202389 L10.05,12.2202389 C10.0200833,12.4538897 10.0809292,12.6901151 10.22,12.8802389 C10.4545541,13.0196639 10.7304633,13.0727234 11,13.0302389 L11.1,13.0302389 L11.1,11.5302389 C10.5723486,11.5849146 10.0408197,11.4730138 9.58,11.2102389 C9.26639459,10.8943701 9.11523985,10.4519659 9.17,10.0102389 C9.11702459,9.57468658 9.26837026,9.13910634 9.58,8.83023888 C10.04505,8.57988428 10.574704,8.47534731 11.1,8.53023888 L11.1,7.96023888 L11.74,7.96023888 Z M11.74,11.5302389 L11.74,13.0402389 L11.87,13.0402389 C12.48,13.0402389 12.78,12.7802389 12.78,12.2602389 C12.8076264,12.0492599 12.7333954,11.8377014 12.58,11.6902389 C12.3174106,11.5686627 12.0288956,11.5137075 11.74,11.5302389 Z M11.1,9.34023888 L11,9.34023888 C10.45,9.34023888 10.17,9.56023888 10.17,10.0002389 C10.17,10.4402389 10.44,10.7002389 11,10.7002389 L11.1,10.7002389 L11.1,9.34023888 Z" id="path-1"></path>
    </defs>
    <g id="report_commisions" stroke="none" stroke-width="1" fill="none" fill-rule="evenodd">
        <mask id="mask-2" fill="white">
            <use xlink:href="#path-1"></use>
        </mask>
        <use id="Mask" fill="#000000" fill-rule="nonzero" xlink:href="#path-1"></use>
        <g id="palette/additional/lightblue" mask="url(#mask-2)" fill="#E21B23" fill-rule="nonzero">
            <g transform="translate(-59.000000, -38.000000)" id="color">
                <rect x="0" y="0" width="147" height="106"></rect>
            </g>
        </g>
    </g>
</svg>