<?xml version="1.0" encoding="UTF-8"?>
<svg width="30px" height="30px" viewBox="0 0 30 30" version="1.1" xmlns="http://www.w3.org/2000/svg" xmlns:xlink="http://www.w3.org/1999/xlink">
    <!-- Generator: Sketch 58 (84663) - https://sketch.com -->
    <title>refresh</title>
    <desc>Created with Sketch.</desc>
    <defs>
        <path d="M5.8607629,14.7291196 L6.1902015,15.0577788 C6.21460202,15.0729986 6.23801589,15.0900409 6.26023139,15.1088387 C6.30962399,15.1506324 6.35143971,15.1997045 6.38456373,15.2538825 L8.5407629,17.4091196 C8.68824792,17.5855835 8.72394879,17.8299979 8.63309985,18.0412745 C8.54225091,18.2525511 8.34029618,18.3947736 8.1107629,18.4091196 L8.1407629,18.4391196 C7.98203028,18.4391196 7.83023368,18.3740639 7.7207629,18.2591196 L6.8065837,17.3520389 C7.89581056,21.0496444 11.3119821,23.7073631 15.3107629,23.7091196 C19.0095852,23.725156 22.3264072,21.434114 23.6207629,17.9691196 C23.7418417,17.659294 24.0888229,17.5035973 24.4007629,17.6191196 C24.5506766,17.672991 24.6724358,17.7851938 24.7383543,17.9302144 C24.8042728,18.0752351 24.8087482,18.2407487 24.7507629,18.3891196 C23.2953674,22.3450926 19.5259601,24.9724973 15.3107629,24.9691229 C10.4651358,24.9496197 6.38333801,21.4969778 5.470943,16.8483779 L4.0307629,18.2591196 C3.91954477,18.3746216 3.76610688,18.4398825 3.6057629,18.4398825 C3.44541893,18.4398825 3.29198104,18.3746216 3.1807629,18.2591196 C3.06526089,18.1479015 3,17.9944636 3,17.8341196 C3,17.6737756 3.06526089,17.5203377 3.1807629,17.4091196 L5.8607629,14.7291196 Z M16.1451833,5.09879018 C20.4108237,5.69847488 23.7747152,8.92598273 24.6178966,13.0603433 L26.0307629,11.6691196 C26.2674623,11.4392244 26.6440635,11.4392244 26.8807629,11.6691196 C26.9968357,11.7820745 27.0623134,11.9371575 27.0623134,12.0991196 C27.0623134,12.2610817 26.9968357,12.4161647 26.8807629,12.5291196 L24.1707629,15.2091196 L21.4907629,12.5291196 C21.2596352,12.2890402 21.2596352,11.9091991 21.4907629,11.6691196 C21.7274623,11.4392244 22.1040635,11.4392244 22.3407629,11.6691196 L23.2658852,12.5942214 C22.3128001,9.29636933 19.5021205,6.77754203 15.9933734,6.27862928 C11.8644379,5.69153122 7.88416284,8.06010169 6.4307629,11.9691196 C6.31395004,12.2776194 5.97000275,12.4339591 5.6607629,12.3191196 C5.5107415,12.2649816 5.38844808,12.1533412 5.320899,12.0088612 C5.25334992,11.8643812 5.24610434,11.6989521 5.3007629,11.5491196 C6.95650087,7.12267925 11.4652293,4.44085925 16.1451833,5.09879018 Z" id="path-1"></path>
    </defs>
    <g id="refresh" stroke="none" stroke-width="1" fill="none" fill-rule="evenodd">
        <mask id="mask-2" fill="white">
            <use xlink:href="#path-1"></use>
        </mask>
        <use id="Mask" fill="#000000" xlink:href="#path-1"></use>
        <g id="palette/additional/lightblue" mask="url(#mask-2)" fill="#E21B23" fill-rule="nonzero">
            <g transform="translate(-59.000000, -38.000000)" id="color">
                <rect x="0" y="0" width="147" height="106"></rect>
            </g>
        </g>
    </g>
</svg>