<?xml version="1.0" encoding="UTF-8"?>
<svg width="30px" height="30px" viewBox="0 0 30 30" version="1.1" xmlns="http://www.w3.org/2000/svg" xmlns:xlink="http://www.w3.org/1999/xlink">
    <!-- Generator: Sketch 58 (84663) - https://sketch.com -->
    <title>report_br rewards</title>
    <desc>Created with Sketch.</desc>
    <defs>
        <path d="M11.4599542,4 C15.0735016,4.00549935 18,6.93637993 18,10.5499315 C17.9981439,11.7712422 17.6557698,12.9568842 17.0257086,13.9799948 L19.67,13.9799315 C19.7962054,13.9646439 19.9237946,13.9646439 20.05,13.9799315 L20.05,13.9799315 L20.05,12.2199315 C20.0554995,11.3015236 20.8015756,10.5599315 21.72,10.5599315 L21.72,10.5599315 L25.33,10.5599315 C26.2484244,10.5599315 26.9945005,11.3015236 27,12.2199315 L27,12.2199315 L27,24.7599315 C26.9973986,25.2090056 26.8151111,25.6383448 26.4938269,25.9521135 C26.1725428,26.2658823 25.7390099,26.4379583 25.29,26.4299315 L25.29,26.4299315 L21.68,26.4299315 C21.3162211,26.4227675 20.9648718,26.2962818 20.68,26.0699315 C20.3940561,26.2943515 20.0433746,26.4205969 19.68,26.4299315 L19.68,26.4299315 L16.08,26.4299315 C15.7202525,26.4278612 15.3703214,26.3123839 15.08,26.0999315 C14.7899963,26.3130006 14.4398593,26.4285458 14.08,26.4299315 L14.08,26.4299315 L10.47,26.4299315 C10.0672564,26.4293989 9.67896907,26.2797836 9.38,26.0099315 C9.0764849,26.2788368 8.68549753,26.4281229 8.28,26.4299315 L8.28,26.4299315 L4.67,26.4299315 C3.74606924,26.4244318 3,25.6738786 3,24.7499315 L3,24.7499315 L3,21.2199315 C3,20.7770199 3.17594592,20.3522489 3.48913168,20.0390631 C3.80231743,19.7258774 4.22708846,19.5499315 4.67,19.5499315 L4.67,19.5499315 L6.759,19.549 L7.17,16.0799315 C7.18650581,15.9206065 7.23865447,15.7689445 7.32060891,15.6352299 C5.83866829,14.4300546 4.8937359,12.589453 4.89999934,10.530023 C4.9110516,6.9164883 7.84640687,3.99451611 11.4599542,4 Z M11.438,21.617 L10,22.708 L10,24.7599315 C9.9930448,24.8623407 10.0213265,24.9632291 10.0788778,25.0464263 L10.1274361,25.1052545 C10.2172024,25.1969307 10.3418338,25.2459289 10.47,25.2399315 L10.47,25.2399315 L14,25.2399315 C14.1318729,25.2415599 14.2571998,25.1825825 14.34,25.0799315 C14.329177,24.9802243 14.329177,24.8796386 14.34,24.7799315 L14.34,24.7799315 L14.34,23.842 L11.438,21.617 Z M6.616,20.759 L4.67,20.7599315 C4.41986269,20.7653705 4.21994087,20.969735 4.22,21.2199315 L4.22,21.2199315 L4.22,24.7699315 C4.21730888,24.891002 4.26352875,25.0080471 4.34821356,25.0946138 C4.43289837,25.1811805 4.54889959,25.2299614 4.67,25.2299315 L4.67,25.2299315 L8.26,25.2299315 C8.38110041,25.2299614 8.49710163,25.1811805 8.58178644,25.0946138 C8.66647125,25.0080471 8.71269112,24.891002 8.71,24.7699315 L8.71,24.7699315 L8.71,23.687 L7.93,24.2799315 C7.75274585,24.4175066 7.53437375,24.4914713 7.31,24.4899676 C7.02064282,24.4923884 6.74440801,24.3693831 6.55263921,24.1526844 C6.36087041,23.9359856 6.27237178,23.6468421 6.31,23.3599315 L6.616,20.759 Z M25.32,11.7599315 L21.71,11.7599315 C21.4598627,11.7653705 21.2599409,11.969735 21.26,12.2199315 L21.26,12.2199315 L21.26,15.1299315 C21.3090956,15.288536 21.3327225,15.4539243 21.33,15.6199315 L21.33,15.6199315 L21.33,24.7599315 C21.3349864,24.836517 21.3349864,24.9133459 21.33,24.9899315 C21.4058425,25.134374 21.5568947,25.2234561 21.72,25.2200323 L21.72,25.2200323 L25.33,25.2200323 C25.4511004,25.2200323 25.5671016,25.1711805 25.6517864,25.0846138 C25.7364712,24.9980471 25.7826911,24.881002 25.78,24.7599315 L25.78,24.7599315 L25.77,12.2199315 C25.7700591,11.969735 25.5701373,11.7653705 25.32,11.7599315 L25.32,11.7599315 Z M19.67,15.1599315 L16.0974427,15.1596914 C16.0876686,15.1695451 16.0778602,15.179371 16.0680175,15.1891688 C15.922206,15.3343155 15.7702832,15.4719088 15.6128566,15.6016991 L15.61,15.6199315 L15.6115161,15.8129978 C15.6431001,15.8976939 15.6628946,15.9875728 15.67,16.0799315 L16.54,23.3599315 C16.5907682,23.7662424 16.3887021,24.1624504 16.03,24.3599315 C15.9276043,24.4179683 15.8161722,24.4572484 15.7009393,24.4764176 L15.7,24.7599315 C15.710823,24.8596386 15.710823,24.9602243 15.7,25.0599315 C15.7876796,25.1618489 15.9155577,25.2203075 16.05,25.2199315 L16.05,25.2199315 L19.65,25.2199315 C19.8149236,25.2205147 19.9675387,25.132761 20.05,24.9899315 C20.0450694,24.9133441 20.0450694,24.8365189 20.05,24.7599315 L20.05,24.7599315 L20.05,15.3699315 C19.9690925,15.2379605 19.8247883,15.1582134 19.67,15.1599315 L19.67,15.1599315 Z M8.31,16.4299315 L7.53,23.0299315 L10.77,20.5399315 L10.77,17.0699315 C10.6931725,17.0622292 10.6167395,17.0514129 10.5408879,17.0375214 C9.98750228,16.9605969 9.4558755,16.8145136 8.95547347,16.6082609 L8.31,16.4299315 Z M14.46,16.4299315 L14.1325742,16.521913 C13.4616371,16.823905 12.7407849,17.0126673 11.999449,17.0761031 L12,20.5399315 L15.24,23.0299315 L14.46,16.4299315 Z M11.42,5.21992205 C9.25835693,5.21588722 7.3075007,6.51545183 6.47840643,8.5117784 C5.64931216,10.508105 6.10554399,12.8073572 7.63405913,14.3358723 C8.11178688,14.8136001 8.66480295,15.1865834 9.26032803,15.448318 L10.55,15.8099315 L10.75519,15.8596482 C10.9162977,15.8795759 11.0784283,15.8921831 11.2410652,15.8973672 L11.433,15.899 L11.6402146,15.8924761 C11.859912,15.8774523 12.07767,15.8397771 12.29,15.7799315 L13.7016697,15.3832288 C15.5595058,14.5010789 16.7538778,12.6223805 16.7500094,10.5499315 C16.7500094,9.13632757 16.188448,7.78062122 15.1888791,6.78105232 C14.1893102,5.78148342 12.8336039,5.21992205 11.42,5.21992205 Z M10.7370043,8.90311813 C10.9378666,9.08293765 11.051853,9.34034425 11.05,9.60993146 C11.0623056,10.0082627 10.7962157,10.3616633 10.41,10.4599315 C10.8340839,10.5472829 11.1337677,10.9271637 11.12,11.3599315 C11.1206815,11.6377339 11.005771,11.9033003 10.8028077,12.0929857 C10.5998443,12.2826711 10.3271218,12.3793785 10.05,12.3599315 L8.2,12.3599315 L8.2,8.66993146 L10,8.66993146 C10.2677406,8.63837691 10.5361421,8.7232986 10.7370043,8.90311813 Z M14.2759316,8.97775278 C14.507249,9.19951161 14.6325005,9.50973081 14.62,9.82993146 C14.6669256,10.3686502 14.2770937,10.8470803 13.74,10.9099315 L14.64,12.3599315 L13.89,12.3599315 L13.08,10.9799315 L12.43,10.9799315 L12.43,12.3599315 L11.79,12.3599315 L11.79,8.66993146 L13.41,8.66993146 C13.7293885,8.64393754 14.0446142,8.75599395 14.2759316,8.97775278 Z M9.91,10.7599315 L8.84,10.7599315 L8.84,11.7599315 L9.91,11.7599315 C10.0509287,11.7769777 10.1924603,11.7333164 10.299293,11.6398378 C10.4061257,11.5463592 10.4681881,11.4118758 10.4700059,11.2699315 C10.4706957,11.125545 10.4101563,10.9876302 10.3034041,10.8904094 C10.1966518,10.7931886 10.0536924,10.7457741 9.91,10.7599315 Z M13.32,9.21993146 L12.43,9.21993146 L12.43,10.4099315 L13.32,10.4099315 C13.4920191,10.4401348 13.6684902,10.3912151 13.8004077,10.2767573 C13.9323252,10.1622995 14.0056427,9.99449083 14,9.81993146 C14.0087672,9.64365844 13.9367962,9.47298419 13.8044566,9.35621398 C13.672117,9.23944378 13.4938096,9.1892841 13.32,9.21993146 Z M9.88,9.21993146 L8.88,9.21993146 L8.88,10.2199315 L9.88,10.2199315 C10.019294,10.2389192 10.1596237,10.1931685 10.2609599,10.0957298 C10.3622962,9.99829106 10.4135127,9.85986268 10.4,9.71993146 C10.4097176,9.5809865 10.3573072,9.44488803 10.2569064,9.34834882 C10.1565056,9.25180962 10.0184572,9.20477457 9.88,9.21993146 Z" id="path-1"></path>
    </defs>
    <g id="report_br-rewards" stroke="none" stroke-width="1" fill="none" fill-rule="evenodd">
        <mask id="mask-2" fill="white">
            <use xlink:href="#path-1"></use>
        </mask>
        <use id="Mask" fill="#000000" fill-rule="nonzero" xlink:href="#path-1"></use>
        <g id="palette/additional/lightblue" mask="url(#mask-2)" fill="#E21B23" fill-rule="nonzero">
            <g transform="translate(-59.000000, -38.000000)" id="color">
                <rect x="0" y="0" width="147" height="106"></rect>
            </g>
        </g>
    </g>
</svg>