<?xml version="1.0" encoding="UTF-8"?>
<svg width="30px" height="30px" viewBox="0 0 30 30" version="1.1" xmlns="http://www.w3.org/2000/svg" xmlns:xlink="http://www.w3.org/1999/xlink">
    <!-- Generator: Sketch 58 (84663) - https://sketch.com -->
    <title>report_billpay</title>
    <desc>Created with Sketch.</desc>
    <defs>
        <path d="M17.68,4 C18.5266107,4.00549759 19.21,4.69337147 19.21,5.54 L19.209,12.99 L19.67,12.99 C19.7541369,12.9798083 19.8388889,12.9764111 19.9234358,12.9798083 L20.05,12.99 L20.05,11.23 C20.05,10.3562274 20.721052,9.63918737 21.575906,9.5661299 L21.72,9.56 L25.33,9.56 C26.2037726,9.56 26.9208126,10.231052 26.9938701,11.085906 L27,11.23 L27,23.77 C27,24.2199299 26.8187029,24.6508771 26.4968119,24.9652385 C26.2151573,25.2403048 25.8468116,25.4057453 25.4577947,25.4355879 L25.29,25.44 L21.68,25.44 C21.3162211,25.4328361 20.9648718,25.3063503 20.68,25.08 C20.4349053,25.2723601 20.1422482,25.3925918 19.8348031,25.4288963 L19.68,25.44 L16.08,25.44 C15.7194538,25.4429169 15.3679949,25.3269355 15.08,25.11 C14.8331473,25.2959447 14.5396678,25.4077191 14.2338049,25.4340229 L14.08,25.44 L10.47,25.44 C10.0672564,25.4394674 9.67896907,25.2898521 9.38,25.02 C9.11442429,25.2552922 8.78187762,25.3990009 8.43123891,25.4324632 L8.28,25.44 L4.67,25.44 C3.79622739,25.44 3.07918737,24.768948 3.0061299,23.914094 L3,23.77 L3,20.23 C3,19.3076845 3.74768447,18.56 4.67,18.56 L4.639,18.561 L4.64,5.54 C4.64,4.69337147 5.32338932,4.00549759 6.17,4 L17.68,4 Z M19.67,14.2 L19.209,14.2 L19.21,19.93 C19.2045453,20.7727259 18.5227259,21.4545453 17.68,21.46 L15.7,21.46 L15.7,23.81 C15.7049138,23.8598793 15.7073707,23.9099396 15.7073707,23.96 L15.7,24.11 C15.7733385,24.1861129 15.8687798,24.2359527 15.9716673,24.2532381 L16.05,24.26 L19.65,24.26 C19.8149236,24.2605832 19.9675387,24.1728295 20.05,24.03 L20.0463068,23.92 L20.05,23.81 L20.05,14.41 C19.9831305,14.3066933 19.8784915,14.235596 19.7605592,14.2102344 L19.67,14.2 Z M4.63875554,19.771727 C4.4328369,19.7900685 4.2666228,19.9436674 4.2283247,20.142352 L4.22,20.23 L4.22,23.77 C4.22,23.9909139 4.37918764,24.1746475 4.58911193,24.2127499 L4.67,24.22 L8.28,24.22 C8.5009139,24.22 8.68464753,24.0608124 8.7227499,23.8508881 L8.73,23.77 L8.73,21.46 L6.17,21.46 C5.37409219,21.4548483 4.72170904,20.8463961 4.64708337,20.0688761 L4.64,19.93 L4.63875554,19.771727 Z M14.39,21.46 L10,21.46 L10,23.77 C9.99990892,23.8621711 10.0280933,23.9513627 10.0796402,24.0260532 L10.1387926,24.0954833 C10.2053686,24.1592262 10.2893247,24.2004678 10.3789368,24.2148004 L10.47,24.22 L14.05,24.22 C14.1796505,24.2213165 14.3035685,24.1666467 14.39,24.07 L14.3826293,23.92 L14.39,23.77 L14.39,21.46 Z M25.32,10.77 L21.71,10.77 C21.4876557,10.7748347 21.3049879,10.9368451 21.2671815,11.1485087 L21.26,11.23 L21.26,14.13 C21.2927304,14.2357364 21.3141414,14.3444877 21.323972,14.4544275 L21.33,14.62 L21.33,23.77 C21.3349852,23.8432486 21.3349852,23.9167514 21.33,23.99 C21.3932021,24.1103688 21.5086332,24.1922928 21.6397442,24.2142759 L21.72,24.2201009 L25.33,24.2201009 C25.5509139,24.2201009 25.7346475,24.0608335 25.7727499,23.8508915 L25.78,23.77 L25.77,11.23 C25.7700591,10.9798036 25.5701373,10.775439 25.32,10.77 Z M17.68,5.21999996 L6.17,5.21999996 C6.08602058,5.21999996 6.00561668,5.25398604 5.9471842,5.31430344 C5.88875171,5.37462085 5.85729097,5.45606428 5.86,5.54 L5.86,19.93 C5.85983847,20.1028984 5.99718602,20.2445969 6.17,20.25 L17.68,20.25 C17.8545261,20.2447868 17.9947868,20.1045261 18,19.93 L18,5.54 C18,5.36326888 17.8567311,5.21999996 17.68,5.21999996 Z M15,12.32 L15,12.86 C15.4992933,12.8120767 16.0013827,12.9166787 16.44,13.16 C16.7374456,13.4562803 16.8813824,13.8733278 16.83,14.29 L16.83,14.42 L15.92,14.42 L15.92,14.32 C15.92,13.9 15.66,13.69 15.14,13.69 L15,13.72 L15,15.12 L15.2,15.12 C15.6981745,15.1002775 16.1913927,15.2253187 16.62,15.48 C16.9023516,15.7810064 17.0408876,16.1893231 17,16.6 C17.0473424,17.0512306 16.9020969,17.5014917 16.6,17.84 C16.1869273,18.1129648 15.6929299,18.2364642 15.2,18.19 L15,18.19 L15,18.81 L14.36,18.81 L14.36,18.19 L14.18,18.19 C13.6883435,18.2378016 13.1949664,18.1179814 12.78,17.85 C12.4896318,17.5482944 12.3406575,17.1377068 12.37,16.72 L12.37,16.53 L13.31,16.53 L13.31,16.62 C13.2766339,16.8555333 13.3338098,17.0949577 13.47,17.29 C13.6943528,17.4176511 13.9536481,17.470211 14.21,17.44 L14.35,17.44 L14.35,15.88 C13.8225989,15.9300686 13.2924482,15.8184579 12.83,15.56 C12.5185787,15.2386913 12.3680459,14.7944359 12.42,14.35 C12.3686826,13.9176144 12.5200113,13.485774 12.83,13.18 C13.2924482,12.9215421 13.8225989,12.8099314 14.35,12.86 L14.35,12.32 L15,12.32 Z M15,15.94 L15,17.42 L15.13,17.42 C15.74,17.42 16.04,17.16 16.04,16.64 C16.0676312,16.4319936 15.9931485,16.2234422 15.84,16.08 C15.5760391,15.9640713 15.2872913,15.9159466 15,15.94 Z M11.942714,15.9977233 C12.069685,16.1974353 12.069685,16.4525647 11.942714,16.6522767 C11.815743,16.8519887 11.5847171,16.9602387 11.35,16.93 L7.72,16.93 C7.48528286,16.9602387 7.25425695,16.8519887 7.12728596,16.6522767 C7.00031497,16.4525647 7.00031497,16.1974353 7.12728596,15.9977233 C7.25425695,15.7980113 7.48528286,15.6897613 7.72,15.72 L11.35,15.72 C11.5847171,15.6897613 11.815743,15.7980113 11.942714,15.9977233 Z M14.36,13.72 L14.22,13.72 C13.67,13.72 13.39,13.95 13.39,14.39 C13.39,14.83 13.66,15.08 14.22,15.08 L14.36,15.08 L14.36,13.72 Z M11.942714,13.4277233 C12.069685,13.6274353 12.069685,13.8825647 11.942714,14.0822767 C11.815743,14.2819887 11.5847171,14.3902387 11.35,14.36 L7.72,14.36 C7.48528286,14.3902387 7.25425695,14.2819887 7.12728596,14.0822767 C7.00031497,13.8825647 7.00031497,13.6274353 7.12728596,13.4277233 C7.25425695,13.2280113 7.48528286,13.1197613 7.72,13.15 L11.35,13.15 C11.5847171,13.1197613 11.815743,13.2280113 11.942714,13.4277233 Z M16.592714,10.8577233 C16.719685,11.0574353 16.719685,11.3125647 16.592714,11.5122767 C16.465743,11.7119887 16.2347171,11.8202387 16,11.79 L7.72,11.79 C7.48528286,11.8202387 7.25425695,11.7119887 7.12728596,11.5122767 C7.00031497,11.3125647 7.00031497,11.0574353 7.12728596,10.8577233 C7.25425695,10.6580113 7.48528286,10.5497613 7.72,10.58 L16,10.58 C16.2347171,10.5497613 16.465743,10.6580113 16.592714,10.8577233 Z M16,8 C16.3368937,8 16.61,8.2731063 16.61,8.61 C16.61,8.9468937 16.3368937,9.22 16,9.22 L7.72,9.22 C7.3831063,9.22 7.11,8.9468937 7.11,8.61 C7.11,8.2731063 7.3831063,8 7.72,8 L16,8 Z" id="path-1"></path>
    </defs>
    <g id="report_billpay" stroke="none" stroke-width="1" fill="none" fill-rule="evenodd">
        <mask id="mask-2" fill="white">
            <use xlink:href="#path-1"></use>
        </mask>
        <use id="Mask" fill="#000000" fill-rule="nonzero" xlink:href="#path-1"></use>
        <g id="palette/additional/lightblue" mask="url(#mask-2)" fill="#E21B23" fill-rule="nonzero">
            <g transform="translate(-59.000000, -38.000000)" id="color">
                <rect x="0" y="0" width="147" height="106"></rect>
            </g>
        </g>
    </g>
</svg>