<?xml version="1.0" encoding="UTF-8"?>
<svg width="30px" height="30px" viewBox="0 0 30 30" version="1.1" xmlns="http://www.w3.org/2000/svg" xmlns:xlink="http://www.w3.org/1999/xlink">
    <!-- Generator: Sketch 58 (84663) - https://sketch.com -->
    <title>security</title>
    <desc>Created with Sketch.</desc>
    <defs>
        <path d="M14.9,3 L25.8,6.36 L25.8,14.75 C25.7422389,16.489027 25.1367844,18.165401 24.07,19.54 C23.0257202,20.9567813 21.7868547,22.2192122 20.39,23.29 C18.7423628,24.5968406 16.9705522,25.7389718 15.1,26.7 L14.9,26.8 L14.7,26.7 C12.8294478,25.7389718 11.0576372,24.5968406 9.41,23.29 C8.01314532,22.2192122 6.77427979,20.9567813 5.73,19.54 C4.66321556,18.165401 4.05776107,16.489027 4,14.75 L4,6.36 L14.9,3 Z M14.92,4.19 L5,7.19 L5,14.75 C5,17.75 7.71,20.58 10,22.39 C11.5325856,23.6035079 13.1727208,24.6746166 14.9,25.59 C16.6341922,24.6756682 18.2810612,23.6045339 19.82,22.39 C22.09,20.58 24.82,17.78 24.82,14.75 L24.82,7.19 L14.92,4.19 Z M19.36,12.13 L19.36,19 L10.44,19 L10.44,12.13 L19.36,12.13 Z M18.27,13.23 L11.53,13.23 L11.53,17.9 L18.27,17.9 L18.27,13.23 Z M17.41,11.1 L17.41,11.57 L16.31,11.57 L16.31,11.1 C16.246362,10.3821732 15.6187672,9.84804996 14.9,9.9 C14.1812328,9.84804996 13.553638,10.3821732 13.49,11.1 L13.49,11.57 L12.39,11.57 L12.39,11.1 C12.4548061,9.77494449 13.5743383,8.74907834 14.9,8.8 C16.2256617,8.74907834 17.3451939,9.77494449 17.41,11.1 Z" id="path-1"></path>
    </defs>
    <g id="security" stroke="none" stroke-width="1" fill="none" fill-rule="evenodd">
        <mask id="mask-2" fill="white">
            <use xlink:href="#path-1"></use>
        </mask>
        <use id="Mask" fill="#000000" fill-rule="nonzero" xlink:href="#path-1"></use>
        <g id="palette/additional/lightblue" mask="url(#mask-2)" fill="#E21B23" fill-rule="nonzero">
            <g transform="translate(-59.000000, -38.000000)" id="color">
                <rect x="0" y="0" width="147" height="106"></rect>
            </g>
        </g>
    </g>
</svg>