<?xml version="1.0" encoding="UTF-8"?>
<svg width="30px" height="30px" viewBox="0 0 30 30" version="1.1" xmlns="http://www.w3.org/2000/svg" xmlns:xlink="http://www.w3.org/1999/xlink">
    <!-- Generator: Sketch 58 (84663) - https://sketch.com -->
    <title>star_filled</title>
    <desc>Created with Sketch.</desc>
    <defs>
        <path d="M26.8499501,12.64 C26.6177599,11.9837625 26.014868,11.5306085 25.3199501,11.49 L19.1299501,10.99 C19.0471885,10.9859063 18.9737474,10.935657 18.9399501,10.86 L16.5599501,5.08 C16.2863713,4.42689531 15.6480386,4.00134023 14.9399501,4 L14.9399501,4 C14.2318616,4.00134023 13.593529,4.42689531 13.3199501,5.08 L10.9399501,10.86 C10.9061529,10.935657 10.8327117,10.9859063 10.7499501,10.99 L4.55995014,11.49 C3.88242418,11.56051 3.30835186,12.0198919 3.09100646,12.6654723 C2.87366106,13.3110527 3.0530191,14.0240895 3.54995014,14.49 L8.27995014,18.59 C8.34127746,18.6410216 8.36839903,18.7223863 8.34995014,18.8 L6.93995014,24.82 C6.77873544,25.5060941 7.04235793,26.222203 7.60995014,26.64 C7.90149749,26.8513366 8.25000627,26.9698296 8.60995014,26.9800573 C8.9305903,26.98261 9.2456468,26.896056 9.51995014,26.73 L14.8299501,23.49 C14.8980184,23.4507008 14.9818819,23.4507008 15.0499501,23.49 L20.3699501,26.7 C20.9683349,27.0260422 21.7011594,26.9773587 22.2511562,26.5750264 C22.8011531,26.1726941 23.069473,25.4890229 22.9399501,24.82 L21.4899501,18.82 C21.4715012,18.7423863 21.4986228,18.6610216 21.5599501,18.61 L26.3299501,14.49 C26.8589759,14.0336544 27.0637478,13.3051392 26.8499501,12.64 L26.8499501,12.64 Z" id="path-1"></path>
    </defs>
    <g id="star_filled" stroke="none" stroke-width="1" fill="none" fill-rule="evenodd">
        <mask id="mask-2" fill="white">
            <use xlink:href="#path-1"></use>
        </mask>
        <use id="Mask" fill="#000000" xlink:href="#path-1"></use>
        <g id="palette/additional/lightblue" mask="url(#mask-2)" fill="#E21B23" fill-rule="nonzero">
            <g transform="translate(-59.000000, -38.000000)" id="color">
                <rect x="0" y="0" width="147" height="106"></rect>
            </g>
        </g>
    </g>
</svg>