<?xml version="1.0" encoding="UTF-8"?>
<svg width="30px" height="30px" viewBox="0 0 30 30" version="1.1" xmlns="http://www.w3.org/2000/svg" xmlns:xlink="http://www.w3.org/1999/xlink">
    <!-- Generator: Sketch 58 (84663) - https://sketch.com -->
    <title>setting</title>
    <desc>Created with Sketch.</desc>
    <defs>
        <path d="M14.91,26.9800823 C14.2628701,26.9773533 13.6432969,26.7177408 13.1875824,26.2582755 C12.7318678,25.7988101 12.4773424,25.1771299 12.48,24.53 L12.48,24.31 C12.4768343,23.883765 12.2038376,23.5063872 11.8,23.37 C11.59,23.29 11.39,23.21 11.21,23.12 C10.8076622,22.9351138 10.3316415,23.0368277 10.04,23.37 L9.94,23.46 C9.48680983,23.9217526 8.86699057,24.1818946 8.22,24.1818946 C7.57300943,24.1818946 6.95319017,23.9217526 6.5,23.46 C5.55846103,22.5027164 5.55846103,20.9672836 6.5,20.01 L6.6,19.91 C6.91666034,19.596449 7.01510416,19.1239186 6.85,18.71 C6.76,18.52 6.68,18.32 6.6,18.12 C6.46948254,17.7190343 6.101472,17.4430263 5.68,17.43 L5.45,17.43 C4.09690236,17.43 3,16.3330976 3,14.98 C3,13.6269024 4.09690236,12.53 5.45,12.53 L5.68,12.53 C6.101472,12.5169737 6.46948254,12.2409657 6.6,11.84 C6.67,11.64 6.76,11.44 6.84,11.25 C7.01620546,10.8388937 6.92076899,10.3617114 6.6,10.05 L6.5,9.98 C5.55846103,9.02271644 5.55846103,7.48728356 6.5,6.53 C6.94804017,6.07350363 7.55917484,5.81384258 8.19878195,5.80821554 C8.83838907,5.8025885 9.45399761,6.05145709 9.91,6.5 L10,6.59 C10.2931481,6.9278712 10.7750225,7.02996323 11.18,6.84 C11.36,6.75 11.56,6.67 11.77,6.59 C12.1738376,6.45361279 12.4468343,6.07623503 12.45,5.65 L12.45,5.43 C12.45,4.08794806 13.5379481,3 14.88,3 C16.2220519,3 17.31,4.08794806 17.31,5.43 L17.31,5.65 C17.3131657,6.07623503 17.5861624,6.45361279 17.99,6.59 C18.21,6.67 18.4,6.76 18.58,6.84 C18.9823378,7.02488615 19.4583585,6.92317233 19.75,6.59 L19.85,6.5 C20.3031902,6.03824739 20.9230094,5.77810545 21.57,5.77810545 C22.2169906,5.77810545 22.8368098,6.03824739 23.29,6.5 C24.231539,7.45728356 24.231539,8.99271644 23.29,9.95 L23.19,10.05 C22.8733397,10.363551 22.7748958,10.8360814 22.94,11.25 C23.0335458,11.4421812 23.1169927,11.639116 23.19,11.84 C23.3205175,12.2409657 23.688528,12.5169737 24.11,12.53 L24.34,12.53 C25.6930976,12.53 26.79,13.6269024 26.79,14.98 C26.79,16.3330976 25.6930976,17.43 24.34,17.43 L24.11,17.43 C23.688528,17.4430263 23.3205175,17.7190343 23.19,18.12 C23.11,18.32 23.03,18.52 22.94,18.71 C22.7759267,19.1272151 22.8740166,19.6019702 23.19,19.92 L23.29,20.01 C24.231539,20.9672836 24.231539,22.5027164 23.29,23.46 C22.8384576,23.9239484 22.2173973,24.1839271 21.57,24.18 L21.57,24.18 C20.9434561,24.1679007 20.3469659,23.909182 19.91,23.46 L19.81,23.37 C19.5183585,23.0368277 19.0423378,22.9351138 18.64,23.12 C18.46,23.2 18.27,23.29 18.05,23.37 C17.6461624,23.5063872 17.3731657,23.883765 17.37,24.31 L17.37,24.53 C17.3726955,25.18234 17.1140603,25.8085955 16.6518439,26.268933 C16.1896274,26.7292706 15.5623236,26.9853527 14.91,26.9800823 Z M10.81,21.62 C11.1542664,21.6201175 11.4947681,21.6916229 11.81,21.83 C11.9679344,21.9119809 12.1317142,21.9821722 12.3,22.04 C13.2597214,22.3840066 13.9026627,23.2905139 13.91,24.31 L13.91,24.53 C13.91,25.0822847 14.3577153,25.53 14.91,25.53 C15.4622847,25.53 15.91,25.0822847 15.91,24.53 L15.91,24.31 C15.9158048,23.293082 16.5542193,22.3873315 17.51,22.04 C17.6773312,21.9797231 17.8409503,21.9096006 18,21.83 C18.9477442,21.405075 20.0602507,21.6211734 20.78,22.37 L20.88,22.46 C21.0670714,22.6508556 21.3227541,22.7588906 21.59,22.76 C21.8572459,22.7588906 22.1129286,22.6508556 22.3,22.46 C22.4987308,22.271206 22.6112511,22.0091115 22.6112511,21.735 C22.6112511,21.4608885 22.4987308,21.198794 22.3,21.01 L22.21,20.91 C21.4727841,20.179857 21.2584539,19.0724841 21.67,18.12 C21.7502142,17.9578098 21.8203474,17.7908261 21.88,17.62 C22.2076319,16.6481388 23.1144489,15.9900945 24.14,15.98 L24.37,15.98 C24.9388533,15.98 25.4,15.5188533 25.4,14.95 C25.4,14.3811467 24.9388533,13.92 24.37,13.92 L24.14,13.92 C23.141028,13.9064666 22.2539842,13.2779782 21.91,12.34 C21.848589,12.1665889 21.7785006,11.9963742 21.7,11.83 C21.2871884,10.8808932 21.5018959,9.77554758 22.24,9.05 L22.31,8.98 C22.5087308,8.79120604 22.6212511,8.52911147 22.6212511,8.255 C22.6212511,7.98088853 22.5087308,7.71879396 22.31,7.53 C22.1229286,7.33914435 21.8672459,7.23110942 21.6,7.23 C21.334197,7.22846324 21.0787188,7.33281349 20.89,7.52 L20.79,7.62 C20.0702507,8.3688266 18.9577442,8.58492499 18.01,8.16 C17.86,8.08 17.7,8.02 17.51,7.94 C16.5435249,7.59514484 15.9014126,6.67612152 15.91,5.65 L15.91,5.43 C15.91,4.87771525 15.4622847,4.43 14.91,4.43 C14.3577153,4.43 13.91,4.87771525 13.91,5.43 L13.91,5.65 C13.9041952,6.66691802 13.2657807,7.57266854 12.31,7.92 C12.1417142,7.97782778 11.9779344,8.04801912 11.82,8.13 C10.8722558,8.55492499 9.75974928,8.3388266 9.04,7.59 L8.91,7.5 C8.72185952,7.30758727 8.46410871,7.19912445 8.195,7.19912445 C7.92589129,7.19912445 7.66814048,7.30758727 7.48,7.5 C7.27526856,7.69371916 7.16179476,7.96484155 7.16750686,8.24663837 C7.17321896,8.52843519 7.29758648,8.79473648 7.51,8.98 L7.6,9.08 C8.33982424,9.80874715 8.55448694,10.9178378 8.14,11.87 C8.0597858,12.0321902 7.98965262,12.1991739 7.93,12.37 C7.59342357,13.3265956 6.69403258,13.9701599 5.68,13.98 L5.45,13.98 C4.88114671,13.98 4.42,14.4411467 4.42,15.01 C4.42,15.5788533 4.88114671,16.04 5.45,16.04 L5.68,16.04 C6.678972,16.0535334 7.5660158,16.6820218 7.91,17.62 C7.96965262,17.7908261 8.0397858,17.9578098 8.12,18.12 C8.53448694,19.0721622 8.31982424,20.1812528 7.58,20.91 L7.51,20.98 C7.31126918,21.168794 7.19874887,21.4308885 7.19874887,21.705 C7.19874887,21.9791115 7.31126918,22.241206 7.51,22.43 C7.69707144,22.6208556 7.9527541,22.7288906 8.22,22.73 C8.4872459,22.7288906 8.74292856,22.6208556 8.93,22.43 L9.03,22.34 C9.50567183,21.8754264 10.1451075,21.6167782 10.81,21.62 L10.81,21.62 Z M14.91,19.81 C12.9528889,19.8262085 11.1794564,18.6597491 10.4192446,16.8562456 C9.65903279,15.0527422 10.0623353,12.9687466 11.440503,11.5790702 C12.8186706,10.1893938 14.8992403,9.76877506 16.7090033,10.5139629 C18.5187662,11.2591507 19.6999329,13.0228218 19.7000418,14.98 C19.7053154,16.2556947 19.2036396,17.4812505 18.305338,18.3870536 C17.4070363,19.2928567 16.1856947,19.8047067 14.91,19.81 Z M14.91,11.56 C13.5223692,11.5397108 12.2600497,12.3599801 11.7149087,13.6362058 C11.1697677,14.9124315 11.4498976,16.3915594 12.423953,17.3800668 C13.3980085,18.3685741 14.8728506,18.6704563 16.1569661,18.1441691 C17.4410816,17.6178818 18.2798517,16.3677791 18.2800609,14.98 C18.2910958,13.1060941 16.783866,11.5765019 14.91,11.56 L14.91,11.56 Z" id="path-1"></path>
    </defs>
    <g id="setting" stroke="none" stroke-width="1" fill="none" fill-rule="evenodd">
        <mask id="mask-2" fill="white">
            <use xlink:href="#path-1"></use>
        </mask>
        <use id="Mask" fill="#000000" fill-rule="nonzero" xlink:href="#path-1"></use>
        <g id="palette/additional/lightblue" mask="url(#mask-2)" fill="#E21B23" fill-rule="nonzero">
            <g transform="translate(-59.000000, -38.000000)" id="color">
                <rect x="0" y="0" width="147" height="106"></rect>
            </g>
        </g>
    </g>
</svg>