<?xml version="1.0" encoding="UTF-8"?>
<svg width="30px" height="30px" viewBox="0 0 30 30" version="1.1" xmlns="http://www.w3.org/2000/svg" xmlns:xlink="http://www.w3.org/1999/xlink">
    <!-- Generator: Sketch 58 (84663) - https://sketch.com -->
    <title>star_outline</title>
    <desc>Created with Sketch.</desc>
    <defs>
        <path d="M8.66396908,26.8203801 C8.30334305,26.8140609 7.95370975,26.6951856 7.66396908,26.4803801 C7.11220464,26.078951 6.86228757,25.38077 7.03396908,24.7203801 L8.48396908,18.7203801 C8.50368865,18.6237817 8.4691886,18.5241149 8.39396908,18.4603801 L3.62396908,14.4103801 C3.07837713,13.9667987 2.86445371,13.2317382 3.08681267,12.5646613 C3.30917162,11.8975844 3.92134667,11.4378901 4.62396908,11.4103801 L10.8339691,10.9803801 C10.9239334,10.9588544 10.9982311,10.8957014 11.0339691,10.8103801 L13.4339691,5.05038011 C13.6986645,4.40303154 14.3347514,3.98559954 15.0339691,4.00038011 L15.0339691,4.00038011 C15.7102619,3.98950303 16.3279013,4.38290389 16.6039691,5.00038011 L16.6039691,5.00038011 L19.0339691,10.8103801 C19.0733781,10.9094694 19.1674173,10.9760805 19.2739691,10.9803801 L25.4539691,11.4103801 C26.1565915,11.4378901 26.7687665,11.8975844 26.9911255,12.5646613 C27.2134844,13.2317382 26.999561,13.9667987 26.4539691,14.4103801 L21.6939691,18.4903801 C21.6257871,18.5583881 21.5958123,18.6558063 21.6139691,18.7503801 L23.0639691,24.7503801 C23.2290262,25.4097277 22.9754562,26.103083 22.4239691,26.5003801 C21.8713798,26.9132982 21.1232946,26.9489213 20.5339691,26.5903801 L15.1739691,23.4103801 C15.0873368,23.3603629 14.9806014,23.3603629 14.8939691,23.4103801 L9.54396908,26.5703801 C9.28051429,26.7360079 8.97515283,26.8227583 8.66396908,26.8203801 Z M15.0339691,21.9103801 C15.3402956,21.9105354 15.6408887,21.9934577 15.9039691,22.1503801 L21.2539691,25.3503801 C21.3460037,25.4187184 21.4719344,25.4187184 21.5639691,25.3503801 C21.6564796,25.2949544 21.6980574,25.1826943 21.6639691,25.0803801 L20.2139691,19.0803801 C20.0657007,18.4644527 20.2787155,17.8176625 20.7639691,17.4103801 L25.5139691,13.3303801 C25.600681,13.2657351 25.6334403,13.1510774 25.5939691,13.0503801 C25.566625,12.9397481 25.4679236,12.8616094 25.3539691,12.8603801 L19.1339691,12.4103801 C18.5036785,12.3685938 17.9470072,11.9846825 17.6839691,11.4103801 L15.2839691,5.65038011 C15.2785988,5.51622913 15.1682275,5.41027266 15.0339691,5.41038011 L15.0339691,5.41038011 C14.9192549,5.40335401 14.8135373,5.4724771 14.7739691,5.58038011 L12.3839691,11.4103801 C12.1209309,11.9846825 11.5642597,12.3685938 10.9339691,12.4103801 L4.71396908,12.8603801 C4.60001459,12.8616094 4.50131312,12.9397481 4.47396908,13.0503801 C4.43449785,13.1510774 4.46725719,13.2657351 4.55396908,13.3303801 L9.30396908,17.4103801 C9.79092205,17.8208592 10.0038962,18.4713986 9.85396908,19.0903801 L8.40396908,25.0903801 C8.36988077,25.1926943 8.41145858,25.3049544 8.50396908,25.3603801 C8.59600372,25.4287184 8.72193444,25.4287184 8.81396908,25.3603801 L14.1539691,22.1603801 C14.4197528,22.0000467 14.7235878,21.9137299 15.0339691,21.9103801 L15.0339691,21.9103801 Z" id="path-1"></path>
    </defs>
    <g id="star_outline" stroke="none" stroke-width="1" fill="none" fill-rule="evenodd">
        <mask id="mask-2" fill="white">
            <use xlink:href="#path-1"></use>
        </mask>
        <use id="Mask" fill="#000000" fill-rule="nonzero" xlink:href="#path-1"></use>
        <g id="palette/additional/lightblue" mask="url(#mask-2)" fill="#E21B23" fill-rule="nonzero">
            <g transform="translate(-59.000000, -38.000000)" id="color">
                <rect x="0" y="0" width="147" height="106"></rect>
            </g>
        </g>
    </g>
</svg>