<?xml version="1.0" encoding="UTF-8"?>
<svg width="30px" height="30px" viewBox="0 0 30 30" version="1.1" xmlns="http://www.w3.org/2000/svg" xmlns:xlink="http://www.w3.org/1999/xlink">
    <!-- Generator: Sketch 58 (84663) - https://sketch.com -->
    <title>send message</title>
    <desc>Created with Sketch.</desc>
    <defs>
        <path d="M6.85047288,3.24 L25.3504729,12.14 C26.2504729,12.64 26.8504729,13.64 26.8504729,14.64 C26.8504729,15.64 26.2504729,16.64 25.3504729,17.04 L6.85047288,26.04 C6.55047288,26.14 6.15047288,26.24 5.75047288,26.24 C5.15047288,26.24 4.65047288,26.04 4.15047288,25.74 C3.35047288,25.14 2.95047288,24.14 3.05047288,23.14 L4.35047288,14.64 L3.05047288,6.14 C2.85047288,5.14 3.25047288,4.14 4.15047288,3.54 C4.95047288,2.94 5.95047288,2.84 6.85047288,3.24 Z M5.75047288,4.64 C5.45047288,4.64 5.25047288,4.74 5.05047288,4.84 C4.75047288,5.04 4.55047288,5.44 4.65047288,5.84 L5.907,13.74 L11.7504729,13.74 C12.2504729,13.74 12.5504729,14.14 12.5504729,14.54 C12.5504729,14.94 12.2504729,15.34 11.8504729,15.34 L5.939,15.34 L4.65047288,23.44 C4.55047288,23.84 4.75047288,24.24 5.05047288,24.44 C5.45047288,24.64 5.85047288,24.64 6.15047288,24.54 L24.6504729,15.64 C25.0504729,15.44 25.2504729,15.14 25.2504729,14.74 C25.2504729,14.34 25.0504729,13.94 24.6504729,13.84 L6.15047288,4.74 C6.05047288,4.74 5.85047288,4.64 5.75047288,4.64 Z" id="path-1"></path>
    </defs>
    <g id="send-message" stroke="none" stroke-width="1" fill="none" fill-rule="evenodd">
        <mask id="mask-2" fill="white">
            <use xlink:href="#path-1"></use>
        </mask>
        <use id="Mask" fill="#E21B23" fill-rule="nonzero" xlink:href="#path-1"></use>
        <g id="palette/additional/lightblue" mask="url(#mask-2)" fill="#E21B23" fill-rule="nonzero">
            <g transform="translate(-59.000000, -38.000000)" id="color">
                <rect x="0" y="0" width="147" height="106"></rect>
            </g>
        </g>
    </g>
</svg>