<?xml version="1.0" encoding="UTF-8"?>
<svg width="30px" height="30px" viewBox="0 0 30 30" version="1.1" xmlns="http://www.w3.org/2000/svg" xmlns:xlink="http://www.w3.org/1999/xlink">
    <!-- Generator: Sketch 58 (84663) - https://sketch.com -->
    <title>video_outline</title>
    <desc>Created with Sketch.</desc>
    <defs>
        <path d="M26.149932,5.08653473 C26.664136,5.28242197 27.0028858,5.77673647 27.0000183,6.32698119 L27.0000183,22.8069812 C27.0011487,23.3595813 26.6579616,23.8544092 26.14,24.0469812 C25.9931158,24.1025355 25.8370158,24.1296833 25.68,24.1271648 C25.2966164,24.1317874 24.9306634,23.9671086 24.68,23.6769812 L20.36,18.7669812 L20.36,10.3669812 L24.69,5.44698119 C25.0539491,5.0342844 25.635728,4.89064748 26.149932,5.08653473 Z M25.68,6.32698119 L21.68,10.8769812 L21.68,18.2769812 L25.68,22.8269812 L25.68,6.32698119 Z M18.55,7.28698119 L18.56,21.8469812 L4.56,21.8469812 C3.72420509,21.8694263 3.02720184,21.2126348 3,20.3769812 L3,8.75698119 C3.027201,7.92531753 3.71806262,7.27011329 4.55,7.28698119 L18.55,7.28698119 Z M17.26,8.56698119 L4.55,8.56698119 C4.41,8.56698119 4.3,8.65698119 4.3,8.73698119 L4.3,20.3769812 C4.3,20.4569812 4.41,20.5469812 4.55,20.5469812 L17.26,20.5469812 L17.26,8.56698119 Z" id="path-1"></path>
    </defs>
    <g id="video_outline" stroke="none" stroke-width="1" fill="none" fill-rule="evenodd">
        <mask id="mask-2" fill="white">
            <use xlink:href="#path-1"></use>
        </mask>
        <use id="Mask" fill="#000000" fill-rule="nonzero" xlink:href="#path-1"></use>
        <g id="palette/additional/lightblue" mask="url(#mask-2)" fill="#E21B23" fill-rule="nonzero">
            <g transform="translate(-59.000000, -38.000000)" id="color">
                <rect x="0" y="0" width="147" height="106"></rect>
            </g>
        </g>
    </g>
</svg>