<?xml version="1.0" encoding="UTF-8"?>
<svg width="30px" height="30px" viewBox="0 0 30 30" version="1.1" xmlns="http://www.w3.org/2000/svg" xmlns:xlink="http://www.w3.org/1999/xlink">
    <!-- Generator: Sketch 58 (84663) - https://sketch.com -->
    <title>wifi</title>
    <desc>Created with Sketch.</desc>
    <defs>
        <path d="M12.875,21.766 L12.9,21.7770125 L12.87,21.7770125 L12.875,21.766 Z M15,19.0770125 C16.3895062,19.0809823 17.6534009,19.8820971 18.25,21.1370125 L17.09,21.6870125 C16.7013267,20.8614208 15.8630695,20.3420028 14.9507702,20.3614594 C14.0954896,20.3797 13.3254185,20.8683557 12.9415378,21.6226685 L12.875,21.766 L11.72,21.2770125 C12.2711969,19.9506096 13.5636443,19.0837241 15,19.0770125 Z M14.9638357,14.1803127 C18.1336978,14.155155 21.0573154,15.8858483 22.56,18.6770125 L21.42,19.2870125 C20.147632,16.9153437 17.6661548,15.443693 14.9748181,15.4646699 C12.2834814,15.4856468 9.82524494,16.9957988 8.59,19.3870125 L7.44,18.7970125 C8.89819392,15.9823493 11.7939737,14.2054703 14.9638357,14.1803127 Z M14.9674039,9.00014437 C19.9663782,8.97723241 24.5797884,11.6829018 27,16.0570125 L25.88,16.6770125 C23.6837028,12.7154304 19.5020233,10.2666483 14.9724175,10.2895566 C10.4428116,10.312465 6.28611469,12.8034182 4.13,16.7870125 L3,16.1670125 C5.38001479,11.7709008 9.96842967,9.02305634 14.9674039,9.00014437 Z" id="path-1"></path>
    </defs>
    <g id="wifi" stroke="none" stroke-width="1" fill="none" fill-rule="evenodd">
        <mask id="mask-2" fill="white">
            <use xlink:href="#path-1"></use>
        </mask>
        <use id="Mask" fill="#000000" xlink:href="#path-1"></use>
        <g id="palette/additional/lightblue" mask="url(#mask-2)" fill="#E21B23" fill-rule="nonzero">
            <g transform="translate(-59.000000, -38.000000)" id="color">
                <rect x="0" y="0" width="147" height="106"></rect>
            </g>
        </g>
    </g>
</svg>