<?xml version="1.0" encoding="UTF-8"?>
<svg width="30px" height="30px" viewBox="0 0 30 30" version="1.1" xmlns="http://www.w3.org/2000/svg" xmlns:xlink="http://www.w3.org/1999/xlink">
    <!-- Generator: Sketch 58 (84663) - https://sketch.com -->
    <title>wallet</title>
    <desc>Created with Sketch.</desc>
    <defs>
        <path d="M20.1545455,-5.68434189e-14 C21.6457143,-5.68434189e-14 22.8545455,1.20883118 22.8545455,2.7 L22.8548827,5.11169871 C24.1871497,5.27742694 25.2181818,6.41376279 25.2181818,7.79090909 L25.2181818,14.7 C25.2181818,16.0771463 24.1871497,17.2134822 22.8548827,17.3792104 L22.8545455,19.7909091 C22.8545455,21.2820779 21.6457143,22.4909091 20.1545455,22.4909091 L2.7,22.4909091 C1.20883118,22.4909091 5.68434189e-14,21.2820779 5.68434189e-14,19.7909091 L5.68434189e-14,2.7 C5.68434189e-14,1.20883118 1.20883118,-5.68434189e-14 2.7,-5.68434189e-14 L20.1545455,-5.68434189e-14 Z M20.1545455,1.4 L2.7,1.4 C1.98202983,1.4 1.4,1.98202983 1.4,2.7 L1.4,19.7909091 C1.4,20.5088793 1.98202983,21.0909091 2.7,21.0909091 L20.1545455,21.0909091 C20.8725156,21.0909091 21.4545455,20.5088793 21.4545455,19.7909091 L21.454,17.4 L13.4272727,17.4 C11.9361039,17.4 10.7272727,16.1911688 10.7272727,14.7 L10.7272727,7.79090909 C10.7272727,6.29974027 11.9361039,5.09090909 13.4272727,5.09090909 L21.454,5.09 L21.4545455,2.7 C21.4545455,1.98202983 20.8725156,1.4 20.1545455,1.4 Z M22.5181818,6.49090909 L13.4272727,6.49090909 C12.7093026,6.49090909 12.1272727,7.07293892 12.1272727,7.79090909 L12.1272727,14.7 C12.1272727,15.4179702 12.7093026,16 13.4272727,16 L22.5181818,16 C23.236152,16 23.8181818,15.4179702 23.8181818,14.7 L23.8181818,7.79090909 C23.8181818,7.07293892 23.236152,6.49090909 22.5181818,6.49090909 Z M17.0636364,8.36363636 C18.6552206,8.36363636 19.9454545,9.65387031 19.9454545,11.2454545 C19.9454545,12.8370388 18.6552206,14.1272727 17.0636364,14.1272727 C15.4720521,14.1272727 14.1818182,12.8370388 14.1818182,11.2454545 C14.1818182,9.65387031 15.4720521,8.36363636 17.0636364,8.36363636 Z M17.0636364,9.76363636 C16.2452508,9.76363636 15.5818182,10.427069 15.5818182,11.2454545 C15.5818182,12.0638401 16.2452508,12.7272727 17.0636364,12.7272727 C17.8820219,12.7272727 18.5454545,12.0638401 18.5454545,11.2454545 C18.5454545,10.427069 17.8820219,9.76363636 17.0636364,9.76363636 Z" id="path-1"></path>
    </defs>
    <g id="wallet" stroke="none" stroke-width="1" fill="none" fill-rule="evenodd">
        <g id="palette" transform="translate(2.000000, 4.000000)">
            <mask id="mask-2" fill="white">
                <use xlink:href="#path-1"></use>
            </mask>
            <use id="Mask" fill="#E21B23" fill-rule="nonzero" xlink:href="#path-1"></use>
            <g id="palette/secondary/money-green" mask="url(#mask-2)" fill="#E21B23" fill-rule="nonzero">
                <g transform="translate(-56.000000, -36.000000)" id="color">
                    <rect x="0.959183673" y="0" width="141" height="102"></rect>
                </g>
            </g>
        </g>
    </g>
</svg>